<mxfile host="Electron" modified="2024-07-24T02:27:02.633Z" agent="Mozilla/5.0 (Macintosh; Intel Mac OS X 10_15_7) AppleWebKit/537.36 (KHTML, like Gecko) draw.io/24.6.4 Chrome/124.0.6367.207 Electron/30.0.6 Safari/537.36" etag="uJalem_aWCqAUiDCK5EN" version="24.6.4" type="device">
  <diagram name="Page-1" id="w0R67UCHYzGD0wylfUd1">
    <mxGraphModel dx="1026" dy="676" grid="1" gridSize="10" guides="1" tooltips="1" connect="1" arrows="1" fold="1" page="1" pageScale="1" pageWidth="850" pageHeight="1100" math="0" shadow="0">
      <root>
        <mxCell id="0" />
        <mxCell id="1" parent="0" />
        <mxCell id="BaVkGO5fWFvEpA6AnpFZ-1" value="" style="shape=image;aspect=fixed;image=data:image/png,iVBORw0KGgoAAAANSUhEUgAAASQAAAC8CAYAAADRu9N2AAAABHNCSVQICAgIfAhkiAAAABl0RVh0U29mdHdhcmUAZ25vbWUtc2NyZWVuc2hvdO8Dvz4AAAAtdEVYdENyZWF0aW9uIFRpbWUARnJpIDEzIEF1ZyAyMDIxIDA1OjAzOjMwIFBNIElTVHig6jAAACAASURBVHic7L15lB3Hfd/7qe67zwpwsA2AwU4CBAgQIADu1EKJFG0rspTFi6y8lxP7OS+OIzmxE8eWEse07CyOc3JO/GJ5SfJiP1myHIkiRVGiwA0gQWLfQWInQADEvszMnbt21fujqrqq+97BRoAk4PnhXNyevtVV1dVV3/r+lqoWSinFmIzJmIzJh0CCD7oCYzImYzImVjLID7oKVyMKlACh4j/B/i1aUyuFEAJLAu2xEK1px2RMPkhJ99XRfkt/p0Wm+ncyrUApEALztwQVoNBppJIEBCiliFDuWqniaxToYaiEPjDjzmTv1UnFx34dkscwflxHov6Z99qQ768Ic//CbwvagREQPxj/AY2B0Zh8UHI50PG/AYIgQErZdkL1J1YlJSKV1uWrgcPlH5hvCAKBVCqZv1QGeLxrhAIRaDBComSAUsKAlM4HJFLp+ut6g1Ky5d4sMAo7jlNykwGSx5AsQI8xpDG5gaIUCM0hMB2ujbjfrrVvpSdPlQIKey79rUzJwlAfgZ2zbb9P18uxHSnt+DC/SZenzUNgs1CgFEqCEDZPA1HKtJMpQ8oIDTqu3sljA3pttLObDJA8huR9jTGky8vhI4cZGRnh9OnTnD59mpGREd5++22kUuzZ8xaf++zn+Dt/++980NX80EhyEoPRwcgOTNFyXWu61v7ol+dPnpfKR0rp2JOXFiHa9nWnosVwhRAakABEEGiwictEA7DV73AAqeupmZYtylfF7N8my1HUtfT4dXKTAdKYtJPTp09z5uwZyuUyhw8f9sAG9ux5syV9NlegZ+I0Iqlo1CoArFix4v2u9odW0oMLpRBh4AaQR8hVpJAJ1jD6hNducKZ/tyIMuPjnYvuQ0KpWzGC8cpNAKj2A839XBmsCDKIhUVr5wGNePhOTtmxidU2qdFtJ7x7bMLoEI2qvuo4B0k0sGzdt5A/+8x8kzmVzBXonTiNSit7+OcxeMZ3uCdPJ5AsUu8ZT7B4fpz13bD8bv/OHfOHnvsCMgRnvd/U/dJJW7a2ITEC91qBWq8ZgZNN0dXYiQoFsRggRtB1kfv4+IPmSNiek1Z3ENdZ4I0AkVCP/PpLXuN/AAlIQBEgkRAolAlSg7VFtVUPLsIQGliDQDCuZVnk2JKkN5VIahdeqtUGifmkZA6RbQJZ/9pdawOZy0qhV2Pb9/87Spct44lNP3MDa3TySHvhSSsJsyNNPP82q519k4aI7GRkpx4MNFB0dnXzmJz/D5MmTadabhGEY55WWtBqWTjOamhen99MI36bl5+vUNJdHfGT+dhRPGJCJ04xWJ5NGxlqc8JJqMHI2JJm8XilP41Vx290CRu0x8aVUKgGQzZeuCowAtj77Z3R1lvjH/+j/vhFVuynF2UccGK1ft57y8Agff/RjnDt3lsceexwpIxrNBtlMyIXzgzz91Pf42Mc/yrzb5xI1IoLAeKTasKCrq4tnv2lNgTWmW1NP0uXuq2m+t63VcC68a6wtqZ09S6dV8b058G61Ifl1U8YrrlU9nwm23tVYYORNLBP6JgDQqI1c1XX71z3H+eMH+LV//qt0dHRc/oJbXGxMjD52YHTs6HG279jFooWLmTt3Ln19faxatYp6vU4um6NWa9DT08vy5ct5+aVX2LhhE2E2JJIyVn20WgOXMopfTuSoaqAd+IH5WAN8gDVga+NzmDJwO7uQzcWCkW+7sscxOAlLpUTMlNJp3HUmZwXIIHnuEjIGSDexTJigAakyeO6qruueMJ1svsAf/dEfUS6Xb0TVbhpxapTHAgJBtVrjRz9axZLFS2g26lRGRpg1azaLFi5kzeo1XDh/gWKxSK1eQyC477772LXrTV5Y9SKZbOjyEhg3d6uRul09fG+Wb1xWkGItFgBE249NkzAwK3DWeFeuBgsXe9SuLnHZSmGDDfzfW4GmlUHperW3oVkZA6SbXAqFIpXBs1d1zcTZi1j+2V/m+ImTPPnV3+HwkcM3qHYfbvFnc98LFYQBP3juh0yaNJl8PkckmwRBQLVSYeLEidx7371s2LCBY8eO0dXZRRRF1Ot1VqxYwZnTZ/nuU0+jhCIIQ2NPScYp+R4oK75dKfGxv7ekI667+1hbTsJjjw1QtEFFiRgny5ZS+BADWAprpCJeKGFSJmxX7nqrserfXDs75tVOxgDpJpeBGTNo1qpXfV1XXz/3/fSvcWGkwW8/+SS739x9A2r34RZ/CQMookirahs3bKZWbTB92jRq1Wo84MIwpFqtUiqV+MhHP8q+ffvZ/eZuOrs7ARgpD7N48WIEAX/1jb9mpFImk8sQRVFKpWn15F2KIbULlmxJp5x9qF2+ib+NpieVQgpfZXPgJJRInBNCGPCibZ3alhl79FLMK3UvvowB0k0uoRAMnTl2TdcWu8dzz2f/Cd1TZvM7X/0dXln9ynWu3Ydb0oMokw05duxdtm3bzvwF86lWK2ZZhFFplCIMQ+q1OijFww89xJkzp1m/fh2lUoEgCBkeHmbOnDlMmDiRv/rmX3Pi3ZNkchkajShepmGLHS0EoA0xaVd7Lx/9d4J5CGtUlsn4KeVCBaRhLEqAEin7j9BxSkqAEKFWBUexF/ltmAhdaFNry6VGu78xQLrJZcGCBYTBlXtv0pLNF1nyY/+QKXcs52t//DX+/C/+/DrW7sMraTBSKKq1Gqt+tIo7Fyyg2WzgR1/H0cVAaFSxRqPBgw88SDabYfXq1WSyWbLZLOVymUkTJ3LH7XfwzDPfY/++/eQKGZpNGziYjHp2ZVzKdoT3UaljlTpWCW8Zqd/cOjWt12nvmf7nrhXGO2Zc+counxGJ+CO/7um/237apPdlDJBuATlzdP97zuOuT36ehY/+DM/94Dn+4D//wS1v7E7bMMJMyA9/8EMmTpxEV1eXXo8V22ZEAjj860dGRliyeAmTp0zhpZdeIpKSQqFAtVqls7OTZcvu4cUXX2HD+o3kCxmktJHdScNz+oNlK1iVydqHnBFaf8DaaECvIxMCbeyx9ZToT0y9lF63Jh1wxR+p4vL8uCfn6pdxPVx7JNVIW1ZbTxxO5WtnRxoDpJtcZs6ced3ymrpgJcs/+0ts27GTJ7/6O7c0KFlgkVISZALWr9/I8FCZgenTqVQqhIFAoNeKBWHrAm0rQRBQLpeZN3cuCxcuZM2a1QwODVIqlajVagihPXBv7n6LF194hWw+oz3h8To0qcMElNI2nYTaY9UyEQOXi3C2x+29YcpjYUqkPwIlUrFG0hqhk4b3OF/SNizf7uXqoj39DtTS6dOftIwB0k0uNjhy6Mzx65Lf+KlzWf65X+bMhUH+6Ze+eEt74JRSBJmAkydOsWXzVu655x7K5WGzMFQBeq2Xi8xOeoksUwmCkHK5wqQJE1i5YjkbN6zn6LHjlDq6iJpNGrUay1es4OTJk/zvv/6OvibUxm7s4BdJ0HOxQA4grC1HB0LrWCPnvZIo5eppXW+R0nsbRSikEPpjju26OMeyAlNWgEKghFXVlMlbp7OR2NZ2paRCRoDS8VCt99HKlMa8bLeoXGtw5KWkq6+fe3/q18h09PLbTz55yxm7E2wnUnR1ddLRUWLnrp10dnWaVfBxTHLC0+TnYW1LGpQCqrUaHR0dPPzww+zbt4f9+/fS2dmJVFAeLrNk8V1kMlm++c1vMTJSJpfLGg8cjp7gMxE/RMCPcLbn0yEEnpHcZzdKmI9XTgtT8e1SJPKwAJQESP/+XfhBsp0xYNRq4xpjSLeotAuObNQqnDq48z3lm80Xuf+nf43egTv52h9/jed+8Nx7yu/DIj6w2IGYL+QpFkscP36cbVu3m+h1EbuBkrac1nghPegkYShoNBoEQcBHHvkIZ8+cYePGjZRKJcIwQ7k8wu3z5jFx4iS+8Zff5OTJU+Ty2cTaL1+syiPjHRtlAhT079amo/+WkdG9PPuQdW3JxHJ7mxZkZGxCQhGZQCOlknn77ZcAEzVKDBNadbO2MKlaI87b2bXHAOkWkHRw5Lbv/xlbv/9n7Fz19fec912f/DyzVzzGn//Fn/NHX/uj95zfByXtbEBaZQt5/oeryOcKfOpTn6JaG2Hjpg1kc1m9Js0MOG3KcWvDvJxNno7BRJGkXq9x7333EoQBr732KplsSDaTY2hoiEmTJrLgzjt55pnvsW/vfg1KkQWLJAOyapnPklo/nidQCGMj0h97n0nPHODZpFz9Xfs4DGoTb6TSLIlEmkS+sc1LteYztpbt1pQZM2bEDGn/uuc4d+wAn/vs5zj+1ga2ff+/x3seXavMvfcJFj76M7y+fj2//hv/6qY0didZkVuvtnXLNi5cuMDMmQNcOH+Be1feR7HYwdq1rwEBmUweG+ks4gGXnunNAI69X3oQVkaGWbp0KZMmTeKll14wHrgSlZEKnR0dLL17KS+9+DIb128mV8iabV/RKqNwhmzHwjx7EbZOQq+biwybEpocSW/Bq4v6Fihpt6kVCBEat35gnXK2tbzyWuON4mOZjNHStjbQdiS0TUkIImODc8Zya+9qfU7hb/2b3/qt9/aox+SDljVrVnNhqEyxezy7XvgGX/i5L/CZv/UZFixYwEvPP8upQzu5bWA+2XzxmsvonjCVvhl3smfDi2zesonb582jt6f3Ot7FjZO0rUIpRZgJeffESV556RWWLLk7VrXq9RpTp04FBFu2bGbSpIkUi0WazSZCBGD29DE5eYzCLY1Qijigsl5rMGnSJIrFApu3bKGvr4+u7m4qlSqZTMjMmTPZtm07Z8+eZd7ts5GRYXItXMExjAS4WoM0IALtpQtIcg9lbEexp054apWwO1DaPGVsD7LLXpJsKG3rwtx3csvadguCfc+bTdvZUUikGQOkW0BOnz7NwbcPc3TnWpYuWcLf/8LfB7R96e6772b7lo3sWb+KvhkLyJe6rrmcfKmLyfOWcXj3Jl5a9Tzz5s2NbVgfZrEudLuBmlSKRiPiu999hjtuv51cNhPbaYSAWq3ObX19dPf0sHnTJrq6uujtHUej0Uh4sZJg1IZBoMMCavUavb29TJwwkXXr15HP55nQN5FavU4USWbNnMmBAwfYv/8Ad9xxO0EQxtvUWltOEGhmE6+N9eOMzHcMAcoyLKMWJYzmrq5R7C1zYNTabgZ47IJaW649b1RJREAgXBBlkhH5YQx+e6kxQLoVZfebu9m6aT29vb38q3/56+Ryufi33p5eHrj/ATZt2si+TS+TLXXRPWHqNZeVzReZNG8ZF08d5bmn/5q+vj5mzph5He7ixogzsNrBIslkM/zg+8/TUepg8uQJ1GpVgsAFPwaBoNFo0tnRweTJk9iydTPZXIYJfROo1+seG0oF+JmYIYdZCqUCAhHQaDQoFApMmzqNrVu30Gw2mNo/lXq9Tr3eYPr06Zw7d5YtW7Yya/ZMioUCjXpTMxeLbykwstteKwM6Nv7Hszfr+nj2KAtLyoCWiP92YKSv8xhObL+KuZi5P2HYYBAnVwkwNC2fAjahTPQ4gs7OMUC69UTA6jWr+ddf+UpbxpLL5fjkJz7Bu+8eZ+MrzwKC8VPnXnNxYSbL5NuXMXLxLC8//wwjZR2tnFgzZer1QYmduf11VVJqMNqxfScHDx7izjsXMDJSidUVsKxAEASCqNkkm80ye9ZsduzYzvBwmSn9U2g2mrGqoq+xY9baU3zAAtBhAVEkCcOA2bNnc+DAfk6dOsnAwACRlNSqVSZPnoyUktdff4Mp/VMY19tN3YKSqVuSGel4ogTI4EWWSx1TpJmJvieUtj7Z+GtfBWu/Rk2iCFDSoaIFOr99lVVXwTElqTf712k8m5fSG72hBJ1dSUASKmrnfBuTm01Onz59RerTcz94jj//iz+nf/4KFn3iZ99zucfeXM+uF/6S5fcs5xd/4Re1y/wDBKK0xEZspQhDwenTZ3nqqadZsXy5sQsJIDL2IWkGsENWy4JyuSwbN20CBcuXL6der6NUFBtxLfC03rzyzodxkGWhmGfbtu0MXhziwQcfoNlsUm80KBWLDJdH2LlzB4888jB3zJ9HZaRGGIbxWjObh4pN2969xpOB0gZsvG0/rJcuTt8abuDn79pAG8NtPu2uUSQB0QEbaBCTcf3seaUEU6Yk7ZBjDOkWkSvd+XHe3Hn09fXx+is/4sS+LUyat5Qwk73mcrsnTGXc1Llse/WHbN6ymfvvv59c1qiMHzhD8v5G246eefpZ5syZQz6XMwPP2pbi4OYWkFEoombErJkzuXDhPHv37WHmjBkAZl2aLUWzFnAMJsko7EAX1OsNBqYPUKvV2LFzB1Om9FPI56lUqxQKRfr7p7DujfVIKZkxczrNZtMU5N6nhvGWSc/g7UxGKnkfinirEVIu97Sh2rfx2LfWYiK0g0BHc6NU/Pok2wC+TU3nJbV6JojXyAVBEJejFHR1JR0tYwzpb6gcPnKYf/vbv43IFbj7x36err7+95Tf0JnjbPv+n6IaNf71V77CjOkzPjSAFEURmVyG53+4ika9wYyBAaq1KnqphGZFegzpQECtcgVmcEnsSn8poVQqcvjI2xw4cIgVy1dQKpWo12ue4Ryc2zytu0q0S9zmJymVdEDmrl27WLFyJT3dPYyMlOOdAzZt3MiMmTP42Mc/Qq3aNCqbMiDktpZVSpq3gRgAFFolspHkcTyQUibw0bOvqeS6Nn3S2t0sqzF3klLr0uzIsZ84E5OddzzGkMYkLb09vXzi0U+wYf0b7N30Mj2TZ1z1iwJ8yZe6mDJ/JScObOelVc/T29tz9cZuX+Npp/1c7nJ/kCj3Op5MLsOuHW+yf/8B5i+4g2p1JOUVAz8kz76VI1Z1YgYQUK83uG18Hx2dHazfsJ5x48bR3d2d9MCRdoW7m3GEQtt06vU648b10tc3gc2bN1Io5Lnttj5q1Soyipg5cyYH9h/kwIGD3D5vHkEQ0owiuysISjibTWzTMYBq4DU2crULULSMxbEfy2bMPtj+8hXPi6bMTfqPScS/SwSOeSopCYR78UEMogi6usaM2mNiJJfL8cD99/POkcNseum7FLrGvycPXJjJMn3RgwyePcHLzz9DqVRi3tx5V56BGOXYSNuZ3L+kRWXQ29GeOXOWVate4O6776bRqHsAA47VuNgiV7hdbOqM3UIENJtNOjs76e/vZ8vmLSAUEyZOpFFv4Mcq2TVcIgEY7pz2UEG93qBYzDN12jR2bN9BrVajv38K9XqDekMzunNnz7F5yybmzJ1DPl+g2YwIRBgzDx3O4O5AH+hIS6vCMcq3BjHfBuWM8r6XzL6u23rRdPOZcACTNmHHUvb3xENyj7eNyjYGSH/DRYPSA5TLZV7/0VNUBs8xcfZd7ynPSXMWo5TilR98h9OnT7N8+fIru/AyDKndOrLkmrIkQ1JKb7fx1FPPMHv2bAr5gnnvvIpVm1YwShfsq2+YmR+iqEk2l2HmrJns3Lmb8nCZadOmU08wJZUAI5u3G+z6XCACoigiDEIGZsxk/4H9nD59moEZ04maEbVajcmTpyCEYO1raxkYmE5vbze1at3UCe09i1UiC3hu7ZsFjYQdB/sCx7QdKfkNxG/KDQwrSiy49bx1ysYqeeqZBa+4rgaYIRhjSGPSXpYsWUJfXx8v//Bphs4c57aB+e/J2D1+2jwKXePZtvYF1q17g/vvuz8RHzWqpFjSpVhRuwhs0IMniiTZXIaXXnyZgIAp/f006jUzwbutO1I5Yt3ZyXxtTJH+SWOYQEYRKJg9ezZHjhzh6LFjTB+YhowiEluBxLFJLm9nPLcAG+idGGXE7NmzOH78GAcPHWRgxgxQgmq9Rm/vOHp6unn1tdfo6upi0qRJ1Gp1TbNsOUESYPy2c8dm3ZsUcZ0sQMYhA+ZGfTuRbYzYMmYN3/ExIL0JA1CmrTVsBR5p0mV2jwHSmIwmM2fMvHHLTTZv4vbbL7PcxAcgYTxGKTUsvTjWF8t4okiRy2fYsX03+/buY+HCO6lU/P2xgwSLSVQgZjJ6BveBSwiFXp+F8R5pIGg2G8yaNYPz58+x5623GBiYYQBGxgPcr6pV/6y6aAdoYOJ1GrU6M2bOoFatsXPXLqZNm0Yum6VSq1AsFJk0cRJvvP46UkpmzZpBrVrXGQf+fUmP6ahE2SY80cQWaYbm0gUxoCQYnrUPSX8NmrfYNkjtD27tVkKgbOCkwBnXzXq3nu4xQBqTS8gNW27ypl5ucvfdSxKglGZA6eUYaTXMpkmrb/61QSbg3NkLxm60xNiNwA4wx3R8L5gFIvs3qWOnbmms1DYiCy61Wo3+qVMRImDT5s1MmdJvbD3Nlro6gBUuT1t8ACJQ1GsNJk6cRC6bZcuWLYwfP46uzi69m2WYZcbMWWzdspmTp05xx+2306g34uqm3fgtEtu2kztT+ozRN/+kgyXtejenjvm7WHplKg18GLaEBS8P0Hq6x2xIY3IZ8Zeb7N30MrnrtNzk7NF9fO+pbyWWm4w2WBOzLe0HVpo9gVUg4Omnv8fs2bPJ5/MoGeE8UODHA0Fy2w/PZxTn2AJUbVlPQLPR5Lbb+ujq6mLjhg2MHz+eru4O6vUGYZjcSdHlbfO1jnz9XyBC6vUm48f3Mv628axb/wb5fI7b+vqo1+ooKZkzZzaHDx/m7bff5o7582PbTmKphjLxQl57aU+Xq7/1KmLStnPlu+fggiljcFeacwW2fZQyLFTn6wze8ZVx3cYAaUyuSOxykxPXcblJ/4KV8XKTcrnM4sWLW9KlB0GaMbXafewMryOMs7ksL77wMihFf39/vK91zH8smODzoHSekLQn+QzKMSlXJ/t3QKNRo7Ozk8lT+tm0aROZMGTChAnUarXYmGzLTBq8zb0adVABIghoNOoUi0WmD0xn167dNOoNpvRPpl6v0WjoNXAXLw6yefNmbbgv5KnXG4B+e24QKL2hv7X9qMDY0MAuJ4mN4LiFsXEtPXDzmyYOIVAYFhSYLW+BwLj4rdvfY1rpSWQMkMbkykXBihU6+O/l57593Txwha7xvP6jpzhz5gzz75ivWUwbIEozpjQ4aduFzjeSilw+y+6db7Fv/z4W3nknlUpZDzgEWhfSNyWUVSPauPJi8QEIkmAkEuf1gLYsJCBqNshms8yYMcCuXTsZHBpk2rRpNBoN796SnrbEPQqXJgiE9sCFIbNmOQ/cjIGZNJtNqtUqEyb2IYTgtVdfY8qUKfT2jqdWq2vbkHLl+AylxXBPEnRU6jprpBdCeF40YwtCmLVsGMAXMfjHJaZYmz2XNmqPRWqPyaXFjL9XVr/C//xf/4tc53iWf/aX3pOxG+DUwZ3sXPX/MWXyRL7yG1+mo6MjDpxr0YdGqZZ1J0sFYRhw/vwFvvvdp1m2dClR1CQ2GhNo1iEUEJnj2OHN6KB0peLHFllghSAIyeUzbNq0GYDl99xDtWrfMqyNUcIepwFPxf4rhDCqGIJCscC27dsZHhpi5cp7iaRe1pIv5BkeGmbX7t088vAjzJg5m/LICDYuKg5alNK57pXy+F5aLU5FY5utT+L1cMpFWyuEtvUbnPIXAKejutMe0+lTxyVacgyQxmRUSXegw0cO89tPPonIFrj7x6/PcpOt3/9TaNT4ype/zIyBGZdMb6OJ3SuEnJcqCAP+6hvfYtq0aSZyuh7bMAS+1TgNQNcDkHQ+bpW/N1gVlDpK7Nq1m7Nnz3DvyhUoBFEzIgxbcTcd2Z20veg26OjsYP/+/Rw5cpSVK1aSz+eo1etIqd+su23bDhYtWsSSu5fFu3umVd2EK987546le/4oVIQB0DTIWHZkl6gQq3RpQGpVt2Fa/9jSkTG5CvE7kV5u8igb1r/Bvuu03KTfLjd54Xn6+/uZPHky4KDD7jxoVQBfFRBCv0U1l8/ywqoXkUrRb/YYcpHV1i1m9TtpxnvaeP1exDIZtyuj70Kv12pMnToFpSRbt26lv38K+ULeLDfRC1QDz/Cc9vKlA0DrtTqTJ00ml8+yZfMWenrH0dvTw7lz58nlssyZPZudO3Zy7uw5Zs+ZQzOKEswobZ/z9w6Pd3SMA64AaUIlTMiE8w6aZSdKpMAsGabhlwVJ4BuzIf0Nk8stt7iUtDMo28juI4ev33KTyfOWUb5whlXPfptSqcScOc54fql6SynJ5bO8+eYe9u7dx5133kmtVo2xJjbeQmzIJj4W1wWKTI7gqVcuOtoORkW9Xqevr4/unm42bthMT28vPWYNnG/stoyvHaOxEgQBtVqN3nG99E3oY/PmLeTyeQYGptOoN4iiiIGBAd45eoT9e/czd65uT/3KpaRdJ+nON96+xDm7JW8AqXq5GKUkGKVltGUrMAZIf+Mk7Va/ms9oLvhsNssD99+vl5useu/LTcJMNl5usvqH2ti9fPly4wJ3exSmgwzDTMC5cxd4YdUqFi++Cxk1TcifP9i0LUYoZRakCmNDuj7cyIk/UE05IlYYEUK/Iqmzs5MJEyeyaeNmsrk8EyZM8HYLsNe1TiDtGEej0aBYKDJ1aj87dmxnZGSE/imaITYadaZNm8rw0BBbt26JQyAajSZhGLbYdmy942pYtct4DqzrHpKGaWVtft55u0VJOkYs/S2EGAOkW1EuxYLaxepcS77t8l6y2Cw3ef6Z67rcZOMrz1Iul1myZAlxHI0PkJaNBIKnv/sMA9MHKJVKRFEzHlR2AMXgoBsD63OzQHdjxA5Q/5xEmF0oc7kcM2fNZMf2nZTLI3oNXLyspZWVtjMI2/NRFBEEAbNmzmLv3r2cOXuOadOmEoSCZqNB/9R+ctksG9avp3/qVLq6ulPr7TB1VZrpSAtEwvvNS0MKkFKJ0sATt4jw8xvd7T/2GqSbUNIdY7ROnO7I0rxD/ko/l8rXfj7yyEf48m98mcHj+9n01B8mXlh5LZLN61eDT5gwIVV3vT5MyggZRWRzIatfWUOpVKQvxTKsyhPbkQBrErG2kRsHRk6EYUm6vACUkkxzMwAAIABJREFUMFvZRigZ8fAjD1EeGWbt62spFjvQyyncolWl9KZy7eJ37LG1/zQaDR555BHCEDZv2cyJEyd49+QJ9u7dQ6PZZNy4Xv7if/1PDh06QCbM6nVzRCjVRKkmKKkN1/b54/bnThulFTqcVOKFC6SYT7qP+hPapSbHMUD6kEi7B3ilQJFmMjfic6n858+fz1d+88t05QPe+ObvM3Tm+DW1QWXwHLte+DpLly7j8cce99pGmoGhX8KYL+TZ89Y+3n77bebOmUtlZMSsU0vO0jFTATDBhv7xjRVrTPdVRPespFTUqhVWLL+Hrs4uVq9ZQ5jJEASZhBfRV5Pst//c/fPlcplly5bx7rvHOXTwEMePHeOdo++wa+dOzp49y0ilwsb1GygWi0RKmVdru/2NFMrEQDnb0RX1yyvsg3HLeKDa0mpjbv+bTy6lol1KPbtW1S1dZtpTE5jzQ8PDfPV3v8rJ02e4/aGfZOqClVdVxhvf/H0ysspXn/xqvCVvvFRBCZqRJJMNGRoc5rtPPRWrdNYn5wzJqZgenQHvDy+yosEIb1mG79zTBmSFUpJisYPDR46yf98+7rvvXvKFHPVa3Ri7W21JftvrvFQcDrB+vX77zKKFi6jWqgQiIAgzNJsRO7bv5mMfe5Qgk0MqiRJRYsKxdQTiN4OAXnYjRaj3Q0oBUOKO2zA4W7dklLqTdBzSGEO6gXI1rOdqPu3yvpLybjSLKpVK/O5Xf5d7l9/Drhf+kgPrf3jFbfXW6u8wePoY/+xL/8wDIzM8hGMLQRDwo+d/xMxZs2LjrGMRFjBFGyb0foKRKc8HSOG29bAxO6A9gSMjZQYGpnHX4kWsXbuW8+cvUCyW9BtsjfgTQfo5SykpFoscOHCAer3BnDlzOH3mDOVymYuDQ9RrddavW8/8BQvI5nM0GjWUiuK2c8/QlmVMQqZMaY+Vq0fakH2p/ijapE2zJitjgHQdJf1QrsQG084T0e5BjVaOve5KyrFp25aJT91bPwgXA9Rip0qd/8Vf/Ef83Od/jgPrf8DOVV+/bLudOriTI9tX8/nP/xzTpw+glN6/WiNRAEq/QqhYyvPKy6+Qz+fo6+sz8Ua+KqCcV84SlMuW/n6IASXDivx4JYAwDKmMlBk/fhz3338/27Zt5fCRw3R0lpAq+TJHe+z3lWw2y+DgEAcPHmL58uXUajWymQxCBHR0dLFnzz76+6cyb+5c6tUK2VC/FzdQICSECAKlt8IVCgKlrUTShAAooYw6p1rsb1fTf9ulTcsYILWRa2U218u2c7my/TqOZkB8L8zrStOm782//rHHHucXfv4XOPv2Dl7/xu/TqFXatrVvN3rsk59ys7CJFFYooiiiWMqzd89+jr5zjLlz51KrVGO7kdDuKR1bpAyIWhPODekh1yKe+hYHUbr+EQQB9VqdfD7LIw8/zJEjb/Pmm7vp6uoyXkUX7uOrzgAiCNi8ZQtLly4lNOvXBJDP5Tl18hT1eoP77nuQ4XIFEeZQhCgCpAr0scggVYhSIUqZ8ypAEYAIjUEeg6n+jgGj9w1oz+bGGNI1SDs2cSWf0QAILs960jPHlZaZTuvncbWsJ84rHjTCeIral2tF23nSuUc8/PDDfOU3/zWN4XNseuoP2xq7t33/v9PVUeIXfv4XbW5xPZRUKKkIw4ALFwd59dXXuPPOOzUzCkxaf4D49/ahAqP2Yo3Htj2DQNBsNlFK8dBDDzE8XOb119+gVCzFgAve4DZvLdm6dRuTJ09m/PjbqJs9w0UQ0Gg2OXDgEA8//FGq9QiFQCqJVNp7J40RWymJMoxIH6k4ZktZFRPTN1RrP0veU3sm5/dJv/+l5aYCpEuh7Wjn38+PX8crrXfbfK6jredqyrUDBJE8vpIydDn+t17HNX36dH7nyd+lKx+w8Tv/lXPH9sfp31r9HQbPHONLX/oVSqWSm/U9W4VUkjAT8txzP2TmjBlkc1mzn3M8ZZvcTIeP3fu8b+79qxfLlCzbSU4qSilq1RorVqygo6PEyy+/TBgEZDJuTyUUFAoFDh16m6gZMX/+fCojI4Sh3go3l8uxY8cu7r33Pjo6u/R73eLiddsJC0begxPKBJZaJ4HpF3Gf5PL9zD++5N9tWuaW8bL5M831yssN1CvL178Okrada62DvMo6vBcxWGgAxc5jARCNUgc7sELv3v1n4TrfyMgIf/wnX2Pr1i0sfPRnyOZLbP3+n/GzP/15PvnJx3R2pmy9/7uiESk6O/K88MJqLpw7yx13zDdbijjvk4gNx8kqKT5sdqS0OFDShmV9lPCcKUlHRweHDx9m//4DrFxxL4Vinnq9RjaTpVKtsWHDBh568CEsS1VSUSwVeGvPXjo6erj/gYcYHB4hCDIoBQEShELashMTilk8i/v2OkRcP6Uu7Tnz87PXSKUZnd0Azt7njGnJtZBCNuUtAUg+ELxXSQPLByE+IL3PJaNd0nYGtx3LH0AureMjKv5uzxL1f3/yp3/M2tdfI5svsmjBfP7pL3+pbY6RlBRKefbvO8i6N15n2dJlVCpl05GtDUZX0AJPS0bwIWNJSRDSIhK/OtqgD6SUFAoFzp47x+bNm1m2bCkT+ibQaDRY8+paFi5cyLjeXhr1GgjI5/OcPXuWY8dP8hM/8ZNUqnVUYNVaYV5lJJE2YNQCuENEr7rt+96Vjos0ILWTmdNvS/x9UzEkHygsQo/GHq4Xq3gv+fgzQnQFM8rl6uAesGMz7cDApdWvXQ6CpFozSikeM3Ksx/5mrx+tKRLluurEv/ny6qtrWPPaGr74y1+kWCzp9vUpvFKIMGS4PMJ3v/td7rprISIQCPPqa4XQg0t4RaXw8sPNjtJiEVV5eGWXyJhFxLkclWqFtWvXsmDBAsrlMsVCBwvuXMDw0BDZXJZIRlQrVTZu2MQTP/Zp8oUOpBJIItM+AaFSSCKkbP8s/SkGdDS2bl8HLm3vwHv+V9PXb2qG1I653Ggm817yT6h+16EOjs6nVStvlk0BUvtZuW0pqbq3L3+0toh/l0kVU9msY1WOBGCl81VK242KxQLf+utvc9v4cUyYpJeGhHHktSCwLrT3QZW98SJBGTVUaAhQUmB2JtEppKRYKrF+/QbOnj3DyZMnmTf3dur1KtlslrPnLuh1avUGjz32OP1T+qnUGgRhRocOWGZp7EDQfrId7Rxceiy07es2n0v0nTRDynyQasnVymg2mffKhGImI6UOqbeeAfu7HSxXX2F9rXhvCznbDVpftfK9NW6HwPSbWPXqI3+/HvfuMGdYdfkqpw55xsjYlkx6zxxaXCQKt95JABimJkl2XotRQSBoNpqUOkqsWfMqYSDonzKZkZEyof/uMbt5/E3DgK5A7ORibkjbcHSjShlRKnWwfccOOjs6uf++Bzh95hT1elWraGfOUatLHv3kp8hmsvT0dFOt1wnCkMiwSmH7jMAqa1qV8ja9A2tHshOJBrC05yxOJwRKSv2M1eiLlqVKTpLxxNTm6WWuR1u+X+Jb6K9rvlZlEM69CWbsKdtJkg3t2MmlMnbfbawqJPSay2SULE8/WA06gQdY6TTpOobxjKuNz3azLd9W5K5R0r3bS1+jYj6vTRIqjo1R5iYTnpQ2t5y0JSj8ekaRolgqsnfPXg7uP8DKlSs9IzbY1ejxWzJuGRFxH7OTg9U5ldI2pGPHj3PhwkUefughhocH6ersJAi6QAj27tnP5z73OTo6u6k16tSbTYIwiCcZO/h193AMCUaZ5M04sJNpe5ugecYeAFnW7qaZ0csYFZDeD+/N+yE+y4kR+0rvzWcyqRkgqRIkH+TlB8XooKNtO5jlAVfiSUvm4cDHAoDuvKZ2uAhmy448r4oQ8TYTmBlT+exGeTTdL1n5rEeXKYDQY0cS/UJU298E6LUHgWf7M0ZOu7hT2SDBIMPQ4DBrX32NJXff7VbwKxCBZm7OC/T+QVJSXb4RHk/XYM42iInBCqnVa+zZs4f777ufer1m4pUalEol1m/YxKK77qZQ7GCoPEIYhggR6jayTF/oxbxCCKPlinjnh0vZYS1jjic7pRCBzktinl9qEnfZuL6v8/d3Mhhd076pVLZLSZrlQEqV8wwv6fk1pqkpW09r26Rb8XJt5xtMUr8IsHswu3Ptn5IDr+St6LHqDL3O2O3cyGmmZN8IqyzLEFZbcADm37dCJdvBxzljwJbmmnhWVUoDlIxLRfdFhcBt9qUMuChl3NWFDM8+8zyzZ88ll8uZV1/7QafSKIqOwb4foNROZbm+YtgQvmpjbGn5IqvXrGH+/AUUCnkq1QqgmeSevQeYMHEyc2+fz8WhYbKZDLZFlDcHxWDksddLqmEt/d5MAZ4XQVhPbFv7qEgcJ00MMtU/k5J5/93KN0hS9pqWjmP/bqPjitR3q9iuL5BS2zr0DBO16aA2rb8taWvOlk7r5jecY5RHEduIEDHwuAftQ44LcrNvg9DkxdojLJWJ9LdwnpyEB8/8w9ZRyNZpzQIfAml87sLXTf2FobrlYl5jZ0wdRa7tRl1dnby25lUCIZg48TYqlRGjqgkzydhBAe+3unajGJLLKw1GQtuNOjrZtn07Pd3dsS1NBJDNZDhz+hwXLg7zY5/+GEOVEYJsgEQR2F0E7IThlZUGpPQ9tTpPPDuRkuZ12WhAEslRYydCKd3ztZ0hOfkmwSotnsp2LfONuSahmbQykBsjSVVqNJbj0o2uPl1e/Guccc6pbUZ9EUHqgeJ1smSrODuLbUMxeqMp/z5IqlSWhivNEhVGHfOYTzJGR7n/43p5+VpQsfWRBlyF8nQxpzIqm3mMRWZA+Pdq7lEl7lv/L6OIYrHIwQMHOHL4MMuWLaVatfsbSewm+AgTOWNvltaJ5WaTNEuJmZGJPTp27BiDFwd58MH7PYBWRBL27NnLxz/xOFEkCRDettZGDbeTlVHL/DfatmNBKgVeiW+j1gvTJ5J2IptWl+1Axy0its4XC7bmjtu2SSbJwZMVvLzL2xbsT6DvV0fxG0S0uc1kgzm1J7mJuRV7D/o4DVw2r9AjWn4ahTYui0Q+zrZjB74bsiZBsogruNXROlIMJIb+23P6lGjNywxuXUVrxHSaGBC/iytWw0xewrQX0nragjjeKUq5/XWGeoT4HVMYhheGIZXKCGtefZWlSxab1xf5/crv5B8MQ7pRKluajYB+PJlMQKVa4a033+Te++6nVqub9osoFDrYsHETixcvoaenm0q1RiaTASnjCUk/IUn8Fk1bb2/+aXcfcWxf2nPmqfbCY3JCJG2gNl8hMrhJ2kurMLbLJNn2JRPPcGle0c763tqkWNXBDcRWNnB9xeYtvGN/pvehKc1K9Gyf9tK47SAsrZW0r79KfYtUOt/e4r6da90L7FQq3thM1621RFeKF3BoirV/C5EK9Y9nr1ROCpSxXFswwIBRTIpiILX11n9Y1dJ+W6YTTwNKmQHjTUpeHVvDFXSeUSQplYo8++z3mTlTr1Nr1GoEQpktL0ybxBud2TZ/f+VGqmyJMgI9anO5Aus3bGD+gvkUC3mqtSpCKIrFEgf2H6SnZxx3zL+TweFhwkwmnlQUzpNmMk32CeG+7TNPTcuxhpHAfWGUfxVggwIsbviAY7HABXv45zBR4rrjWXxMS8bpeslAklaG1A5kLCD5KC9HSdteLgV87VmaYyv+OSFsjI0yvyU5k09X25Wj70Oi4v1n2tU2jltFt5VV0cyixzgAzc/b1tkboOgtSiNlYMTo72l7XsKuo5TrtB4mxx3OGqtJtlnsqldCdyhvnUUcSzQKPXOP3nYqEUO/kpi62Gdu7VR+vIluM113f+U3NJtNOjs7Wb36NQIRMGXyZEbKw4T2vfD+KtnUAtpbRXw7DoCM9Or97Tu209HRwfRp0xgeHiYIIJvJce7sRc5dGOLHfvzTDI1UEZmse0bxCHdMC2+icpOHm+CUck6gGLCUN1aUdlgEhilJc1JJPbkJqx6K9PNRxrGqkJFl4TZOSSECO5m2tonnZQtIP3DHnqJ44LmOZm5YgBBhfOwDxSW1vVQaf+Dam0uqgq3XuYYISL6gTzHaIBu1EmaGd65lX9IVcIM4HvjW45640GNwPmgICxIqhjipWlXJ9AyqlDK9os3teVhpPVfCs+/owW2nRRUzHf8h2UdgGZD/DFxSb4KK2Y9KnjdpR7sft8PhIQ4fOsSK5UupjJS13cgzntr6K+ENqA9AbqSXzZ84crkcx9/V8UYPPvgQ5bKJwRISqQS739zDJx57gqYEAtNPBTo6XuhnJWyenuKQiKtzd+LMD6ZtpZIE+DsKOCYjjWvEBeMqXHewk6TXTsrAoaa4rh8p4SaYNkM041v6kw1FojMCsWHMZzWukzqGdWXqns1TGa+VHznsGi1pCLNl+eCTTBfPymZW8HcUbBGTdes4swF/l1NX7WGawfn5O1aEeSB2v5nAggJ6ZXesdsXZegzJ2GYuVyXtFbEdyT4jaVRCz4vj2Sz8mc2L08WffGJabtQA/7mkmWyaofkztJSSMAgZHh7mjddfZ8niu2g2GwTW3iGkUw/tc1DiAwel6y1++wjMyx/rNXbv2s0DDz5Is6lfVSSlpNTRwcYNm1h812J6urupVKtkwtDZejCr+NGDXbdbgDQu9kCY8RWXp5HLtmbs/7STlR8bZyZnTVQDpLGTBspf50bc56zY85qw6DPxSgBp45kkacn48Qnp2cwf8K7z+ePP6qwmY2EbhViVuJyI2PbggMbUwAwo3CD1mFlCN7URdmZrBUtL4/q2K9i0cnwpMV5493b5gMXEYExjp8dkk3UVHmMy6owKfOJlLnP3kDT0JlmjP3nEqpVyYBC/cSOemNIt4g0OM6ONBi7t7r/F0C5VzAbjQWIZYSTJ54s8++xzTJ82lXw+Q61WIQiEVgOEUQ7sPccD59YBIyAGmxh08nk2rt3I/AXzKRQK1Ot17W0rFtm3bx/d3b3MX7CIweEhwkxo1qdZEDGtY5vc2NyEASetaqUjqpNagAYrcMzJ9TeM1mB8HHo9nHJ9Q5gOmMaP9h7mZEhJWjJxp7UJE5XGq5yXoWUj/kizd+Xl0y5kKiEqdWCYQNskccX0SfswVQzDyWtjdBfKvDfBXWvGKEJZQLJpjZfbzFpKtLsPH11cWYAmiAnilAxIs7M+YFzzBkFMzJBIs0Gbv2eaSqpPOpEDHZXqCEHq+bg3eNCSlvi5+vW336OpXzEgJbqB9aIpU/cAATSbEaWOLtavW0cmDOifMplyeYggtNX0ZmWhB0ygHJDeKpDkg700uz7u3LVL242mT6M8rF38mWyW8+fPce7sBZ748c9wsVyJ9zVSSi++tWCkiIcB4PpaPCaEH5/n1jC6uDo3rt1aN5LfdjVEJGOnjPDy9sW32eoyVGK9nJ/Gl4yytMlMTHGjJQaAHcX4uGRmd/sH8Y9xA7V7GN7vyTMeqxqt5ynvOz1rp5DLd6P6QNSi/flZWgVG4VQtlVYVvIEsVZvfEynx2aLPJKwaZrXlS3Awcz8pgPPuUQjtUvXVab+uNg+ngifbLm2ramnDdizIv1a5tjN3h3YOWMajt0HJFwocOnSIAwf2ce/KFYyMGBtJDHYqMcndKgDkS3qSyufynDp1inNnz/Lggw9SGam4tXtK8dab+3j00cdRBCgZoUILLG4SSA4LSxYci7FeVa/3eXVx38QKWswtkvUGvb7RGsLTs+Tod43v1ID2YASQcXeTolUqCRzxDHnJsr2bYfSkKnVs37s+mrPdT2212ngzdxxtba+JqJbGjR+knTz8QYjLsB3Ts+0glURFKdbjSTwb2YctUjCsfHXIulrbt1j8ZISI40Nsp5Uy5n8ee0qqXna9kn2tjj8gEuWMpp46TMP2DV22Y6nJ62xiDUraOxhQr9V44/XXWLxood5QDDsgTNvYaF5/xr0kWN98krC1BQH1ZoNdu3ex/J6VNCPzDjQpKRZLbN68hQULFtHTM57hShURhghhAw7doPZX7EulsI7zhOplyndsxfRBApSJWfKHt1YUVMzilH3WWFXaZ/KtT8ivU5oRXcoEkomMQuOWF/g4acd060zqKuKzmjadMg0WNp3PYDxwactkfDHsQGsjNuCqlanohlPJrETrt1Kxs1rPItK7r1hnStfBo6qj6M0SLG3xrk/elNXZ4zZIYFay4Vqq0AZQHCNKTlrtgCetrtln4BZBuWUCmp3pZFIqstkM2gERUq83YsCz9+IM4BpgpFQUcjm+94NnmDF9OoVCLl44q9PamcGfoEznte3S0no3nyTYp1QUO4qsXbuWOXPm0tlZolKtglIUi0UOvX2Izs5uFi5czOBQmSATmr5vgka8DdwwEySGDVkw8lm1FWeKEabPGW+stGNf/29cF4m+Hq8XbcOIWstJTlTtxkk7CaSKkCoiQhEp8zE3bb+l0LaVyEBW/LeS7m+I31ggcSun7G+RzcemSx23BY5LiIQ4eE4Kw7CEij/K+8Y1L0qad9ybN1pYKussXxZABLGL0vsIpd/RriloEA9WmfjWvyuEO1bW0CxituLsL4o4hDXx1nS7xq3dWz0StCXxsO33JY+9LOJtRuzfClM/y6R0e0SRIp8vcOzYu3zjG9/k2PHjdHR0mN8D3R7xPet4omYUUeroYN26dYBk8pRJ1GqVWEXTdXIPPQb6+Bh3fBOLPwi156zE7t27yGVzzBiYQaVSQYDZbO0cJ0+e5r4HHmJwZAQRhlhfpZ10rL0wcYwFAoENhVF+f1Tes/H3xcL2SRszJuM+4k9eljWBAxyfAcX1SREYP6j0UmYAgIwN83Y037YgraqIQVT/dLtM2z8RsAqX/tObmd2mOsnvK8nzMi/fUkYd1DOHWeTV0r1VS/rL1sEyNZVqJY/m6ZmolcUky2tf5/QMck22HZtXgjm69nJpbLyRMIzI0HxvVbZSikwm5OLgIGtWv8ac2fPYsmkTgxcvMn/+nTQaDUQQIKMIACE0Xc/n8hw8eJCDh/Zz34oVVKsVgiBEKYnbrP9mh5tLS9pulMvlOHHyBCdPnuKRRx5xtjQje/bs58GHPoZUAZKm2ddOaLooRLzth8k9Zjx6QmxjF/LGl9/aSoCQAgIVOxGsdpDWNtJANBr78eVaotsDOwNKpWgqiCQJlhSzGHtOGfaklHu/U5tP/Dse6zLfcT4qeXwtn8hjGYlvrHqRJRNmYgu/tsEIJCK+N0uDnbEY9534eDOSZ1yODbLKsJu4Dr5R2T9n80p2Wvv9Xj7+rKZk8m8pXd2UGq1u+jte7hL3LgjCLKt+9AL9UyYzrrebzZs38K2/+ivCbJZIyjjgUS8LiQiCgEqlyuuvr2XxokVEUTPpBfKY0a0s/iAOgoAoitixYyfLl99DFEWxnaZQLLBjx07unL+QSRMm06jXCYQDG5R5In6sCsmVErZf2e9EO1sTg1W/DP20fjX3ST4T4d1D2nHig44viQkxda3/SUvGxqjYQMDkhJ40usSXq8t3o1HTqmSKFq6irNHYoIBw6ayr3gwdNyu0ITxKKbK5kEOHD5PP55kyZQrVapV4a9eYyaAfkDIBataY3aZBXea6RnYmUh6lSjMZ1yHsb6MblNt9x3WN45eEYzLx38mbjyO0vTLt3GjNm8J7QM74admR69xCCCLjmn7hxZcIhGDatH5efOl5Nm/ayIyZsxk6f47Orh6klOx9ay/Tpk8ln8sTZjK8sOpZpk/tp1QqUKtVCYTrU9bwfquCUrtnnM/nef2N15kzZzalUol6rQ5AoVjk0KHDhGGe+XcuYrg8QhBmYnbiHFoiBhotdn8h59EEZwdO9CfvmbbWsz0Db2cXssd+msvF6l0qX18Ca/tQxnbSnhm8fx87wOwGUEKZbQ9skFBsz9G2nPg3/4OOqwiDLGfOnmP37t1cvDhINpPTOm/Micz9WvMNYPcUcozB2XGUkq16NuB2whud5aRjMOKHhbNexd8yRt24E2nkxQC8AKXavkVUWbz05zuh7V3CvmZZ6CC3SCr9VorY1pDsYEEQxPk2Gw3y2RylYpG9+97kRz/6IVOmTmXSpMl861vfoloZ5pWXX+ZXvvRP+fVf/xco2WDjxo3IqMnA9KnUqhUz29v83Qx/K4tvNyoWi+zdu5dCocisWbOoV+sIBGEYcvHiRU6cOMXDH32UoUoNFQZI4Z6ffW5JW1CSdbtn7dhQWl1Mfvyxl2ZZbdg3rv+2C6L2P+myR6tDWjLKZwq6qNTfV9TqbkRfDzF1Uh5DSvyEG5T6ZGunFgqUlBRyeeavXMm7x99FTZhIqaMDKe3Gaq7OerJWMfty5Kk1xD3NmkZzo/vp7VYe6fPt8kywMd/jlWgBc6xIprcdx36UShZr77ENExNCkMvldJSwcq+ZCgJBo9nkwYcf5K03d/F7v/NvqVXrzJ41h0MH32bPnn2MVKqcPnWSru4ODh7axy/84v/FT/7kZ7lr0UK9SX8okNJvc5F+tLeUpJ9nLpcz70s7ziOPfITKSMWs2VMEQcjOHbt55CMfw4aKEAjzhhDdjwWYIFPzZIXts7ZvWDU9ufxKeNfH2oZl134ar1tdKl7oSu1Cl2NFo8chIVOnrgFYriMYWQxqN2D0b26QXi4fpQSNRpNTJ09x5uwZyiNVFi++i2otIkhcb/O0jMjm4SN8CxQkvA7t1popUxHl5ZfOm9RvyW+FMDs7WjVR52ujsZL5WRDywTVRruP9yTooRUNKxvd28yd/8mesWvU8U6cOEEV6PVUuX0CgyOTydHQUuOuuJTz00IOsWvUiw+UyTzzxBAcPHOAnPv0Eubzg9XVvMH36VBbeuYBmo2GWhaSNrLcwGtGq3jSjJtu2b2PFihVEzQaaxetXG23etIX58+/itr7JjIyMEGSysW0y7lcmgBSzQ4TdDUGZ1fdB4JYL2ZZ1vRrnvfRMIIkJWdjxlYzcHy2spX38mZNrjkPyO0p7OqYrPhpVc4VbyIEQAAAgAElEQVR4hOUy6Hk5SeeTBiXdkD6QtgNEhVIRxWKB3bv3MDJS5rHHH6fRaBogcTOJiueL9veov0VMQCy5spBBTHlb7TnOVQvO7oTL04g+L8zM5wzeEuXNjMmcW9vNAzPh3LTxTC2lVwfnBWw2I3p6elm1ag2rV68jl+vh4KEjTJ02HYGkenGI02dPcv7CBc6dPcOv/bNf5ROPPcqdC+/i63/5dbq6O9mwcR3rN6zlb//tz9HV1cPjn/wUhXyB4eFBMmEQ2/yuacK7ycTvr3ZpyKuvvcacOXPo6urS7EgISsUib799mHyxk4V3LWa4PBS/WNROZtboHB8ru0bNhK5gWbzunDZ4EWgBDzx16krq/l4ZUBIf2uNGWjL2vv2OktYD/Uza/RY3SJsKtzOEXalcGlF9L0JrQwugVqsya9Ys5s6Zx+kzp8lmsjqyWcWhkDarxH5C/phRfsrEvk/uvWfxbNZSDx9MfVuArWH7+7WlCoGJqPVVOLzpLJE8rptlPWnVzIKw3vRd24ciEye0f+8Bvv4XX+e28X3k8nnEqZCjR48zc2CASEQIETC+t5dCPs+z3/8BlWqd//Mf/H0mT+ln3/79TJg0kWlT+xl/222MHzeekUqF/fsPMHv2TPMqo2vvBzeTaIaie4wFo7f2vEUhn2fGjJlURvQ6tSAIuDg4yLsnTvPYpz7NcKUKwi2csM/PN00oM1mJeE+iuKfEzN5/x5qtT7vvdjIaiKTHsjVjpN/nNlpeo6l9betw/kLZa4PRkSs503qULUgZz6Qz0tptDm6UOPXO+8Mz6cZMQQRks1mazSZRs6l/T9umbOOlVCGdl2U61sWq2j4sPx//t/j4KgZiuwnA+xW/Ydsxyfb5pLd30fVu1Jv8x//wn7lwfpDOjk7qUZNMJkO5PMzJ06eYOmUi9XqFI+8cZni4zNy5tyOjiJUrV/Cxj3+M9etfp6/vNnZu387Ro0f52c9/gfvuvZdv/+9vk8tlWXTXIqqVsmF5/ubvtxYwpdloLp/nwoUL7Nixk4989BFq1VqcLpvN8MYb63jw4Y8x7rbJVGsNQiFcH7HvZXOKd7z20fZyRyTat2MLQ+LSY3y0+2l7f6P8diX5+DJn1oTE34HN3Oqqzot0ZdZ2pXARz1bfNcaMON9RP6Q+l0uf/KDct6sM4Hki7MNqNOqk7UO2rladQul9iVB+nphQfXvP3kfFShvxlGUshMqrU7zi2uabbs/Ux/8tiqL441ZkQ/p5SClpNps0mw2iqEmz2TTr3Pz62kNdp6gZUSgU2LBhPceOvsO4ceNoRHopSNSM6OjoZNrUaRw9epwgCFm6dDkzBmZy/Ni7ZDJZNm3czHe+/RR3LVrCubMXyGYLfOHn/g+W37OcixeG+PSn/xb5fJEtW7aSzxex7+ays6ZVG28FadEaTLzRtu3bufvuu4lMwKiUko6ODrZv38G82+czaeIUqtUaQSjMygPzz9u9AeHsQzaGzi1W9RhIqjGvhBVBQiFob/y4DBbAZVjPVUw84uzZIRVDbsLDJsBsitWCxHoEetZ5lbhWP5wgeXMxWxFGZQrw43fizESKOo4+ASREZ28fmC1bLx0M4iUYHvWMM9ZrhOy5VhahsJHMemNc5XUOp7PH5MwzEunb0axAGWYglDDLaDTrCtBbbPitH4mIKJJkczkK+TyZTIiUimazSaVSQXkeMJRertLZWSSfzxkKrTtqvV6nXC5rFovwtmdxz0LKGqVSkX/xq7/JyZNnGZg5m3rVbiqvEEFAIEIOHz5MqVRg6tSpnDp1krffPsTEiRPo6e5h3Pg+/skv/WMGpk/m4sUhavUKYZgBpSiVSmzYuJEjhw9zzz13E0X1mO6n2/dmlTQY2U3V1q5dy6RJE5kzew4jIyMIEVAoFDh8+B0uDg7zicc+xeDQCGGYJX76CvQmde3jhRJOFuXOI0S8L9GlhkzbfL30ieOrYERXw7x8STMkcerUeXVt1NmxD90OpqGUMgqOAs+bYneJs4ZNy2Ccx0U5hnENYgEJFdDEAU6AIiOcPSVtpwHzlk87I1kQ9lU/9K1k9dwUA6mn5cdGSI2hNrzfAlMAKowBPsK8UloAShBimZagiUIGgp5xPZw5e45dO3Zw+O23ue228cyaNYe5c+ciAsHQ4CAiCMiEGc1yNq1j1Y+e5+jRo3R39TBzxkweeOBBlixdytDgUOLelYIgFERNRVd3gVdffZn/8Sf/g1o9IpPtYPLkfiLZ0OvyEISEhGHIsWPvIIKQgQG91/O+PW8RhoIwzFIo5PnVf/Fr3L34LoaGBxGBfkOLUFAsFTmwfz9bt25h6dIlZLOhDpIM7A6j3BKgBCbeqKQ3VRseLrNs2TJGymVtNshkGS6PsGPnLn78J36SSFkQEwk8wtvOOEER2thwBWa5SBAkvasGsRzXGG2TnORu+onjlKfsUm+5vVZpAaR6TV45ILVzkih3SgEN0K9lTu0lYsCbmPQob7DjtK34Mg+j4uKFy6dFFNrm7DaNjPP3t9pM10lnrC/WQXu6cKWk28pTaICxTEvQGj6v1Sn34kgVZ6uHtFABkbG9BZbumrTx5ukW2GXE//x//wf/7Q//K6dPnaZQKDA4OEgmE7J82TL+7ZNPcvfdyxgZqaBkk3/373+PHz7/HLValfPnzjN4cYh8LkeuUODv/r2f4qtf/XcIpWg0m3GnUkpRyJd498S7/Jt/85t0FnOUSkWOv3sGEWQZmDGLSAUoqXeCkOjA0NOnTtOo15g+MEB5uMzefTvo7i5y9J1jjBs/kV/5lS/x8Y9/jAsXzwMB2TCMjbt/8J/+E+cvnOenfurv0d3dQb2mNxzTbXhzMqW0nTCTzXLx4gV27NjBww8/TLMZ2R8Jwzzr1m/kgQcfYPz4Pmr1CAK7V3VStWnHQNr+ppxTBaUSb26GVgWjHaCMBkjXajO6GmkBpD/+w/9HxYPD3HRgBqAyg8+uxndooLTaJSLsacyNZ4wRGesO1ymId6GDuAHtboAutMgtY7FuYpu+GUVxI0ilULF1n3gfGMx5IZta9QoCpISGXVmf2r9HKUUk6ynd23kNpGdzEgpE1CSSMmY6vujinWoYx18IaDYUkQroKBV1vSIZu+ABImE6kpQEuRKr1m3nzd27Wb58Ob29vZSKRSrVKqdOnmTdG2tRKuJ/f/spFi5cyFe+/BucOHGcqdOmksmENBsNjh8/zltv7qFWr3HyxCl+9vNf4L/8l//KSKXi3X9ALpvnySd/m5Mnj9PdkSFqNil1dPPmW/s4ePg4QSYkajYoFTuZNjCDmTNnkc/lOX3yNOcvXGDWrJkMDp7lwoUzHDlylEV3LaVWq/GJRz/KT//M32WkPEyjETGudxzPPPMMr7y8mlOnTrFo0UJ+7Mc/RXdXySy21f3lZgOlds6EIAxYs2YN9yy7h45SyazxU5Q6SmzauJmp06Zz1+KlDA1XEIF+OQbeBKfnw9YGSLOV2A5nfk+DTsyIrkSN8367UpXtekkLIP3+P/ykUiikipwLLxCEYQaFfrNoRgRkwwx18xK/MNT74Uipl+CGek2AZhFSv/7EDehIR6RGkkAE8WbuQXyjlh0pGlGDbDanb1yg01qgVM3YuxeGOh+rhvkPKTTLHRrNhnmABmQNpRXKgU0gBEjt+o5VNBWZqGrjdjdUNZvNEsUqpQaTMMzqNJGM6yuVBkOMzScTBpw6V+F8o8TiBbdRG64hVOTUN6loRhoouzMhT736Jltqk/nsp3+cvXveolweZmi4zKSJE+ns6qKnu4fvP/s0gojHH3+cwcFBuro7kVEzboNcPkelUmHnzl2cOHGCEyfP8nu/+x/44he/yLlzZ1EIenvH8Sdf+yPWrH6BiRP6iJoNlJJs3LyF48dPM2HSACIUBAGMlMscf/cYEydO4OGHHqavbzIXLgxy/PgJpk6dSi6bo9FskisUCYKA48ff4Z5li/mFn/8HhJmAXTt386d//GccOfIOixYu5vf+/ZP83u/+HkuXLmHx4oUMDV3QKl4MSldnCP0g5FJ2owkT+pg7Z67eUkQI8vk877xzjAsXLvLoJx5neKSKCDLGlKdAtKpCl/NwIbT9USmzn5fPjDymZPeWumkA6a9+4+8pgEjaQWlUkiDQoIHSr+oVgkajARCzEc2EpDOyorTKZPQj/WqfZnxzQZAFhQaUIDRqlGZUUmlwEyIgkhocpYw83VgPcmEjVoXbJD0Mgpi5RZGJxwhFXEZkBnwYahCLlERGhsFI/RgsXwmUXuMWBHohqpSKIAwIw9C9Py0mTtIBIopMJoMg0PuyKe3F0oBU5kRZcNfcDhrDDTKZLATaKxYGWSIZUcplOXehxn/74ZusePzvcPTIEU68e4yBGTNQUtLR2cGRI+9w+7w7qIwM871nvsP428bR09PD4sWLKJbyGsCVoFarEYYhYSZk79597Nj+JuNvm8CLL7xImMnQ1d3Nq2te5mv/7Q+ZMnkCzUYDEYa88cY6svkO7r57OfVGxNDQINl8jnG943n35AleXf0i2Qw88cRnGDeuj3K5xjvvvMOkSZPo6e6hVpeIMCCbzXDq1LtMnzaFX/3nX+Tw22/z6//yN5g2bTr5XIlx43uo12scPnyAz3zmb3H//SsZHh70mJJnE9Td9LoPhPci7cCoWCqyf/9+zp8/z8oVK2MjdiaTpdFosnnrdj71+BNIFZLYAxD8F8yaAgB81aE9ICVtRtaa6bK4lOp2tfd5OUC6Xkbt8Iml/b9Vq1VoNhrIqImMIurVGtXKCM1GHdloUKlWKZeHaTb/f+reNMiy47rv/GXmvW+req/26qWqekGj0Y0dILETIiiZpGSStiibY/uD5QiPJ0aOsBx2UBqPOJ6JwHg+zEzE2I6xJmI+eB3PyBpblmzJtoYSxEWmCIJoAN1Yu4FGr9VdVb3Uvr13783M+XAy77tV3WgCIC1Zt+N1Vd13l7x5M0+e5X/+pyDLeuR5j6zXI8sziiIjy3vkWU+oFLyjyHOszbFFTpHnFHkhE7lw5EWBs172FzlZUdDtbWOLAldYiiyj6GUUWY+it43Nc3wIeVtryfJc8ETBTCusxTqHdY48y4WWxFmyLCfrZcTQebfbC0LOk2U5eZ6H0HdO3uvJPfMeNsvwrsAXVkr/onCFRQN5XoBzMpicp8gzbF6IiRtgCzYvpM2F9IXynvX1TW5sdtkzZLBZhrUOW4hGU+Q5eW+bVrPGt19/n8tZi/37D/Lu6dNM7Ztic2uTCxfOsbmxwd1HjvL+ufPs27uX9fU1bi7eZHR0mKLIGRxocuXqHOsbm4wODwtUwFn27NnH1NQMr77yGo8++ijPPPsYZ868z//xv/99hofbeFvQaDR4/fU36PY8n//8F3nn3TNsb6+xtrFEvZ7w/vlz3HXXEfbv28OZd99jbm6Bw4ePkKZ1RoZHWVi4hnWWTnsYZy2FLegMDXPt2nVef+MNvvGN3+XE90/wkz/5BbTWXLxwCa0Vs1cusb62QZblHD9+jCJoabIFE/+PgaaUpikrq6ucPXuWp5+W0teR1SBNG7x84jWefvppBtvDFNYHK8GXbgrB66ngv1B9k+0OGlJp2oVFsu8QCZeuuFl2aE+3e4b+mXfUkKrbB4EoP+o2OjKw42/z5SePPK8Qk8rovqMs0QlG6TI65oOJI9qNxhhNmiTBgrGYoFFhJZFPK9GCjE5I0hoaLZzAyIPkRR78KL7kyRGnc8g0j1oJoI1BilHKPqW0FBVE9/lkvATRI+2Cs67CyijX7vUyjDEQQvu2sBAoWZXWGG1IawlaG3GBBe0tmpe2sODBFVawPrZf9qkoCvr+J6k9Fv1KG9s91m3KocnhMJhEy4v1stJETOIX37pIe+petrqWPWNjbG1s0Ov1uPvoPVy/foONjW327t9HkeVo7bl8+QJPPvkk3jtefvkEialRWHnYTrtNYS0KRbfbY3Nri1MnT9LudPj/vv51VleWGGg1MVpz8+Yi75x+jx9/7qe4cOESW91NxseGZfFwjsmJSa5euczeyX2srW4ye+Uig+0O+/ZNURSWsdFxlhaX2dzcYGS4g/eKIrOMjI3w+uun+Pf/7l/S7WZcuzaPtT209rzyygnefuctlFJcuHCBGzdvcuzYPdTrdYrgfN8dOPjPYdsZehfXgtKKV06c4JFHHyFNaxKddJaBgQFeO3mKmYMHuefue0I9tQRCkEAHt0ApASpSIWQRUdVrqn0QhUxMwI2aJezUmCI4+U4akvqA3297T3Urw0S1Xz7qtlsgJQNDE+IPKnIB0ilIdL2U2t47nC9AU1K/akzfwewsSRqjSzHdwWE0Ag4L0lxMLekZ5xxpvRFehqeBTHJA2AQRf1PUbowxFb9z3yfknKNWq5UdIqakdFQtrZfHyqD2NBpNPBZ8yGJPNRqh5ED3Q6RxkTLhmcS086QBWwNKBkxZHQJqSYJzFmeDNmgFFpCENIFarU6SNPCJmJfis8sxqcfn4JxirWvoNIbY3txkY3ud7e4Wk5MzPHD8IW5cW2ZldZXFm4uMDHdoNQfAK7rbXQ4dPEx7sMPFS5dYmL/K2MgwSVrHOqg3Gty8cIGBVp1GM+F/+jv/I48++gijoyOsrq6yurrC4uISSVLDOVi4NsfkvnGu37jBzZtLdLdzDh92jAx1WF1d58CBg1y4+C5XZi/ywP0Po5Qiy3tMTe/n2rXrXLp0kaN3HwWlmJ27zML8FX72L/4VvvXNb/DOmZMsLs3z2GOP8dDD97K8fJPXTr3Evccfoigs33vpBI88/BCjoyPB2a3KiRUDLH/UW1UYxeTY73//+0xNTTEyPBJMNUWz2eLSpcukieaTjzzK+mYPpZOSELAUHPG6MSIb0pOkTp+/bRt2NShoQVHk6FIwQT8wdbue+yhC5E6YqPj3j2JLilwcrA4fVnxwKg9OYNFUHCIwnAtRNx+FR+DYCdK8sAV4GxzeYeJVfFLK7V7xvJR28Q6jRftBAU6yo0G6tY8elz3CuudKp3sptUvVspL5rFSoQS/306G9oRElMV2iKK8f1eiyjXJw4B/qn+sVZarM7tcqMtCTGkOSdCm2BOzorMcK2ggVzpPUljqdVsrizevsmdzHjY1VxscmuH79Oi/83tdZXF5hamqaWi2h2WxyaeEq3nuarRZn3z+L9/D4449x+vRp3j/3Ph5Ik4Rmq8nG+gYTk+MsLi7y+GOfJEkSLl2+hC0s4+PjzM3NMzY2ztraGiMjw2ysr7O6tsxP/eSf5Ny5S7z55mscvusAzibs27efeq0uAQ3vwFt04rG+YM++fayuLDN79TKD7QFOvnaCJ598jHuPH2N7a5NvfmuTT3zikzzy8KOgFHv3TPGb/+7f8NWv/gJ/+S//JWYvz/HCC7/D9PQ00zNTdLc3wwJVwdNw2yDUH8pWnXSR3+jChfMoBUfvuUcy9cMCtLa2xuzsFb74xT8tJpzWOFRZ4aa0zCqqS/+5AohVxSyAKAgrx5QmRWxbP/4Te6pq/d1u+0HC6AeZY7v3/yi02CQPE986SaDEQ+GsoJKVgBedVxQuJNQpUROVVqCDMzzY/c45tA/HEInsg5fbxXLOolV4KAWFCqhtayMJWkUdhp10sRAc1wENvsPhFkOhkhpRJjkWwukjgswTQV6gsL4gCioRXrGChgt1FT2CzIgGIeU9XKlWe8AEwVjtXg/KgDJoFdDJYSD5EAwIaxpKae6f7vBb717hnqMPs3pjmbGxKbSpc+PmPBMTQ0xODnPp8lVmpvaxcG2edrvNQKtFs9nE2oJet8fRu48yPj7Om2++ycbGBlP7p0DBnj17UEqxurrK2vo6E+PjDI+MsL62xsL1axyavgtjDDdvLjK+Z5RW0WJre4u1tTVqtRqNRoteVxzx1lq2tjfJsi2SNKHVaqBNk+XldTqdNlkv5cyZdzhy993cffc9nDt3kcuXr/Dcpz/HkbuP0OvlmCTBes/f+Bu/wJ/5mT/D3PwN6s0Wf+pP/TTf/OYLbGyuc99997K9tSUTU2luH+T+w9uq/pRarcby8jKzs1d45umn6Ha3SoxXkiS89fZbPPnkp9CmTq/XBZME+IyMkYDb749xot9HgesHk6I2XkbkwmKrEZI9cS24isByu4QT9EX5j74vflgf0u7NfOW5B58XqS4VMY1JSNM0SHoTb4/WRqJWSpEYg1YmtgzoP7xSRkK4JkEbEyZ6v8pB+QnCSGuZjLFiBfHjI6VCiJZVnrcqhPqRGV36HaTd/aUknhu1JxXbHtpfxXREmEAVSa1KqIIW4ixxkoXBFTQpZZDkEg30UbNKGza2ttksFDPjHVwRNT9fwiAk/O8YHRvh9185y8jENNNT05w48TID7QEmJyfpZQXLyyvc/8ADXJ69wJtvvMGRI0c4eHAGWxSSoY842pvNJtPT0yRJwrlz55icmGRpeUlMiVaTqf37aNTrZJkcOzQ0xNmz5zl+/AGWV5ZptwdJU8OpU6+zsrzMXXcdwhYZnc4wy4vLXLr8PkePHKGWJiTGkOgavW4PjcI6S5qmjI2Ok2UZvV7OpUsXSEzKzMG78F5htKEoCuqNOv/VX/nLAR+mS5/f8ePHmZ2d5fLly0xNT+NsrHejK+/1P00Y+oO23SaJMYYTr5zgoYceolar4b3FOxgYGODNN99i//4DHD/+ABub27LIVc6VjP144RhVrKSDVEwuwp8q+DTluX0QZH4H4X91UYZd8+02n3jOx/ncDoP1cbZbndrP3Ps8SqFNgolCRAdO69AbWokjOTEGYxLB+miFUUYmaBBeOjHoJEUlqQgkZTBB4EgYWks43mhMkpCYpBQqxiToNEWHNiilMUpSFqIgNNqgQxuSJA1Oc3F4a2WCINKgTbhOEoRUVeXVQdj2HedRgEk7k1JAJmUb5Nl1IoLMxSVISzvlZyqo42DGKu/Ez5QYNrs91nswNTaIjQ5bbUh1Kv44Je7wwYEWY+1Bvv0Hr7D3wF1MHzzA0vIK1joazUEOzBxkcfEGL774B3Q6bZ5++ilULJHkPfV6DWM0eZ6h8IyPTzAxOcnK6irDw0PMzEwxMNCSRF3vQgllS6vV4tz5S+zdu4/BwWGs9bRadfbv28PQ0CBaexqNlE57lDffeJtPf+oJHnrgPhLlmZubw3rDwMAQtnCoMHa0SRgcbDM3d5ksyzh0+AjNRp28KFDacOPGInkv54nHn2R4pCN12gJ8Iy8Kjt5zlPXVNd5+6x2mpqdCAKDP9Bl//mFoS1VNwDnH4OAgr772KmNj40xPHaDXywBNo1Fnbm6e9fVtPv3pn2B9awuVmLBweRQ2aMRhYazcIwqoYBiERa+SBRkXQ8SUi5qVJlgrqk83XC6y8dqVD9WfP4RA3y3Qqr9/lM/IcGvHdc2fffbe570PYWhnxTFb5Hhn0QpZnbytSGkX/ETRt+KIsCvlFd5bcAUECADOgveC+3GVDHQX+ald6C1XgjOVQnxK2qCNAq1KB2dfgxJwpTbR1KK0370O2k6oABL9QTFCqJUWYRQEQ8yxE2GboJUufVoRaBkjedHcU1oH4ROigsqUTm4fvvNGo9IaW1nO+pZl30gz4J8sKmCuQHBO4qS3HJzaT6ue8vUXXmBxq8vevZMYLWWU337rTV498RKdziCf/9znSFNBUifGkCQJ77//PltbW4yMDGNtgbXi59i7dx+dThvvCgprMYmp8BMparU6RitOnTrJE088zfLSIpcuXSAPEAXnHAcPHWJ7O2N29jKT40O0Bwfo9boMDQ1zc2mJ7W6PoaGRAIbt83ePjY/S62UUhac9OCg4MGtptQZwHn7vG99kZnqKI3cdYXNrM/gRNb1uxuFDh6jVapx4+WX27N1LrVajKKqFKX/4ifVRtug3On/+PKtrqzz6yCNsbW+K1aA1WZFx+vQZfuonv0BhPVZV/V6e0qejQlDkgyZqvKEOiddKBaBjEMbBz6kh8JRrvNbiVAjXjTer/k68dsT2fUztSO2+9g/xDm4VSJ869nxU+2LUX4sMkMmH2KVgsUUWolTBca0Qp6bEOfG2AJeDt4JGdjYUIZRV3LmCyDVS5BnO2oAwDoLDe9EsbECBO4sLaSDOSajdB/S3IwjPUOjShWOdL7DhHO+krXjCRAkmXgBXOueDkOnTbLoAmhSnrWgeLvi1ot/LRIFTQklCaW1nJecrPGdcWbc2t1nrWqZGB7CFle9dIbCH4GOTa2uyLOPw9DCjI4P44f28f/YdLl88z+LNa6ws3+CRRx7i8cc+wbXrc9QSQxJM7NnZWS5dvsTU1BRFXlCvN4KPSiKPtshR3mO0xhYFr596nV6vy+jIKEWRMzExwvb2FidPvsrRu+9meuogSdpgfGIv4+OTzM3N8+L3vosxcM/dh8QprwE8Q0MdlleWWF1dZmR4LBRmkLFqXc7w8Cjbmxk3bt6kM9RBGUNhHWlaI01r/P5//I8MddocO36c7e0tUIKCz3o5e/ZMMjY+zsvf/z7tTptOu02WZTsnx38iRakagIm+oe3tbd5+522eeuppigAU9t7TaNT4/vdf5umnnmVoaERAxCr6HD0GH7SdGADRlbhhREaGn1XBpPpgUYUuQZQqCqgwdigF1k5Bd8vfKrgclC6FU1VgfdhPVbBVNa4fVkNKijwLCGQxhxTgfURKuzKkKJPOopzwsShl8FbYF10ZnhQgYEy9wEd/jwtaREWyonGFzGiNk7CnpRRY1oXEw6AYudAXzgdNiEqpJN+/V+yYMFICbMGJ/a0N3qXlQBBTk77gwaNDZq5z4kwvqYwgnA9FGAA+jA5pgggiE/cF/htNCkUXWxD4ijI0QSjFyRSR7k7h0WytZ4wMtvh7v/S/UWs2WLyxxODgAC+99BK/8eu/xtr6OuvrG4wMjxALMjYaDQ7MzHDw4EGuXr2KUoo0Tdje7pLnXQYGB/DOY4xhYeEaKysrjI2Ps7m5yeDgIEVRcPz4PVBoG10AACAASURBVKytvcrv/u5v024P88nHHqPZTPmX/+r/BW/Zu3cPTz35BPVUUxQiFDyeosiZ2jfJ4tIyly6eZXrmCIlOsNahdYLNHZOTe1hernHx0hUOzEyTJHUKa9EmZXxyH//4//oXzF+7zp//c3+Otc11CgqSxLC+tc3E+CRf+MKXeOGFF9jcN8mBmZlQXDF0YbDefpSaUtVMi+NKG8PLJ17m4YcfJjGaLORXDrRavPHmW9x99zGmZw6xvrEpmjv0hY7SlUC/Cv+qknT3T/p/qzDIdJS9pT0nVyyBkr7i+A9n74IOhCfqO9I/rsNbyXWi6aRuaffH28zPPHX4eZnMDpvngpj2YaX3PqhKIpi0Fl9KdJ46m4PLRaCEzlC+Kqk9SlkZNL5AmaCdqBiedwSftFQ8dS6YihGt66mqqARzC+/LSgpKBbXWufJY74J5aHNUMNu0CoLO2qB95eG5CmyRYYscZzN8IUht5XLR4Fwhml2sfxW0Lm8LXJ5DwB55l5MEoWSLDGsF16VcwfrmNmuZYf9oDWd7KGfBC0mKC8f50CbvLIlWLG/0OPzQT9AemaTZaqOTOvfd/yAP3PcgZ8+eI88tQ8PDKCW5eOKIrrGyssLg4CBKKVaWl7lx4wZLKytsbWwyNCS109rtNh5PmqSMT0wErFfC1atz1Os1nn32aW4uLnDj+hyQMz46zP33H+fe4/cAnrHxcZyHXpaXgQ9rLYODLZSChYVrtAalPdaKSWqdUOWmacLc1Ss0G01qdRFKHk2nM8Qbr7/OtYUFPvHJT6KMwtqCJK1TZDm1WpOjd9/DO++cZnV1jamp/WRZj6rzVjTWfmz8h8m/qjpunXMMDA5y8rXXGJ8Y58DMAbrdLijJU5tfuMbWVpdP/dhzbG5uopMEr0NUVlGCeKufoPcQZ8vtPxUNJJhoUSuKHozyu4qqErX2KIyqyk18NqqO9fKhKz9v96l+rUSg/rBiaHhol8n25ScOP5+mCWmSkhhDmqTU0gTtBeNjUGiC+eNkIiq8OKsRE0AmvSSlCn6oyihXYaF0DpsXFLnQdUZp7b1H4EEelMOpSEYftKoo4FAViIFc11a4vIvC9rUmfBB28RqU1ytfUBBe1gZno1ahPdWoiq+cF1Tk+F3FP4Wz5Daq8HItcb4btrs5Kz3N9GiLPO/iraWsIs1OlI1Hobxjreu591NfpNFqk4c0k+1ul4mJcZ77zGfI85xTr5/CaEOj2SDPc+r1Oo1GA+893W6XtbVVGo0G29tdvPfkWY/h4WFBX0/uodPplPmASZIwOTmJQnHmzGna7Tb333cfnU6HickJGo1GQKNLCD7Pslv8ONZaGo06jXqNubkr1OtNWq0m1rnSKV1vNGgNtLh69QrGqKCdiUY+PDzM+++f56233+SJJx6n2WySZT2hMLGiRR47fozZ2StcuHCBmZnpYKpXiheo/lr9cYXR7fBGFy9eZG19jUceeYTtbaFN0VqTZzmnT7/L5z7/UxQWSuey75swpclVFQwfyjTqH7fDb8MHmEfV/WG+RNOu/Fc57pbr3O74XedC8N3uOj/Os49qsg11mjv63nzpkweed4XF5UXIJ+trDN6KD8gV4u8QB7c0oihsoOWUNJCisDgrOBWlkONLx3Xw11jxrSgffneBRsRJ3XjrcnGKe4ezQECEixvElX4hZx0SYo+CQVWQ3rrEHJUrAio4rgOWxQWHexCSaXReA8qIORifE6VITCKJszo6ueN9TAk1EAaCfscmSRLSVDxrWz1Wupo9QymuiFqbi7MGlEQdxTkvGsda13P86S/QHOxggzaotabIBQf02OOPc8/xY7z+xptcv35DtB8veXxJkrCyslJO1h979sdYWJhneWWZvfv2B83PlQGEoaEhxkbH+O6LL3Lhwnmmpqc5ePAQcbGw4fj4rN1ud0fYV/aLAeCcJU01g4MDXLk6i8fRHuyUXFDOOUxiGBkZ4frCHNYWtNttyVV0nsF2m8UbN3nxxe/x8IMPMTY6Sq/bxSQJzivywnLsnmNsbm7w+hsnmZmZLoWh1npHKkU/GvfRhFH1HGOEW/ztd97hySefKPMyvXfU6g1ee03y1EZGxugVLixq3CpEyoXwdvtv/ezeL4u2riz0/a1k37ytkOHWfRXBpis/P4wAiW4XYj99DCF0R4H0lWfve55okwa5amWJJwl5XUmtTpLKxyR1lEkwpo5OJNRdqzWo1ZrU6k0a9UGUrqF1ik7S8lyd1DAmJU0bJGkdZWokpo4xNZKkjsLgnEabGkonaFNHm5rAEJIUk6YoJfgmpWR1SpKUxKQkiUAFkiQtJzRKYx0I5qjEREPIsXOIDypJakDEMJngINSy0iGfSJdd5bWOilhhi5LzOnJ5iz9IknGd93Qzy1puODjZESiESVGJEQoKdLQ2gx9MYzCsB4E02B6S9JuYRhFs3K3tbfbvn+a5z3yGlbU13nr7NPU0IUn6vNWbm1sMDgwyNzfH9vY27fYgQ+2+VlSv1+l2e7zx+htcvHiRTqfDAw88wMjwCHmRESEScUDHbcckUVV9vrIfGB7qcPPmDfJeRmdoCFsqnSK8RkeHWbx5g+2tbdqdIbwPZbubA/S623zrW9/mUOBh2treRmkRfr0s5/DhQ9RrNV4+8TLj4+O0Wi2KIq9MfG5p9w/adk90cWQbvn/iZR588AGajSbBrUqz1eTtt99iauoA993/iJS+DulRUQOpJvFHaG1ELe5yY/f7sqp1xu+oCAxuL1yqGg+V83ygL5bvuCUAsOO8W0y2ql0YrqjEMoomX2VU3HrxXc9xu223QFL/4mtf8SoUnytfiNKgHNYJiC8xNXyIVPl+u4JPy2MUWOfCZExFPY/RK1VBc6LETxQ7tXQYV0wffIDZe3Fs+6orMDxyGf1TYUdM4+gTtaFUcOJqPLYsRIDywRkaSrg4KveWtvhoipXaWWhBALh5J1CFW92B4YV4YR/AQ72ecnNlk8triifv2UORCcjPl745BzZGEj14Q00lXF3u8YWv/l0m9h1gO4Ap4+CIg9cWEsJvt9ucOPEy/+wf/p9oX5DWhFNqaWmFzY0N4bfGs3ffHrlMEBoXL17g6tWrTE7u4a67DlOv1wPFjGK3APpwW39AugB2TJKU69eXsU5z4OARMbG9i2TApGnKwsI1tre3OHTgMM57rHOkiSbLe6wuL/Kzf/Ev8PnPf5allZWwomu8cwwODDC/cJVvfOMFHnzgYUZGOsHZbcr2fBwNKbZ/YGCAl185QXuwzfFjR9nc3kKTUK/XuHb9OgsL1/niF77M5nYv+HACWBYXlYhdvROF+K15eXcKFMbvVJhX7g6+sXKu+H7l+ZjmpjyRHPVj+H4qLoXy7UXhpMvfo1u9Kp7UrqtUn3V6//COu5ivPHvf8yqkN0Q57gMxWvxHuBVeEk5VeDitVSBKiyaOYEi0EUyO5Ln1NQEI9qeW45wyWABtIIAKvTYElI44wHUifgFtynZF4KMyCV5prAKnwwtXqryfNokgqr3sU+EeoHDhOK8NKqmhdA2vpB1a11A6haSGSmtgagL21CnKpOikXnJGa5OSJHWMFs3HRPBokqKThLRWYzu3rPRg7+iAJN0qLekwSuF9yGpXRrAkWlPXnvXMcfiJn6Q1MEARQvYCJYg8ThJ299aytbnB0bvv5siRQ3zrm9+g2WzKhGq1qNXqDLYHS0d33M6efY/NzU0eefgRpqenhMqlEBNcBZP0dpQTcGsEqv97HIbBjAjCpdMZJO91uX7tJsNDw2idlKRi1rrgy7IszC8wODhIkiYUhcMYQ6s5wIvf+x4bGxs8+cQTZJlUj0mSlCzLGB4a5siRI5x45WXyrGBicoI87+3Q4qptv+OUqwijZrPJxUsXWVle4dFHH2VrcxujFcYosqzgzOn3+Pzn/yRSHSRMvBD2E81BomClXyZqkoJv/EimjjwApSIgCP+wwEd1MJiDpmJalWYWlb/1h7wvt9tP+Xw63G/HfVTfzVH9WY2uV00/pRTtdmPHO0ii0EAbsb99IGQLZpsMOMmPcYF9zVRQoYWTNFF5GbJfMEKSVhuFAl4F4KQnywvSJEFrhS0ik6SSCanAWxdMFHFcK6JfJ2gRSpyX8oLDWqMimZvCIFn5LubPJf0sfRV8UdEhjQ6EWfhwTTnKK9A+BkZFu9Klo1ILujpCBHDgVZkP5+M/BV4nFGic8aSNGjm5mJVaCcwBWbaEszvk4CnwvR7NoWHao0M0MxuuG5TlshqMo0pffujgIZSiNMkKm9NqNag3GmxsbBC5exbm51ldXeXxxx8HYLvbRdDp/VV9p8O6nLK3/L1Tk4ozJ5wfVuI87zE62iFJtzh3/gwzM3fRaAxIMEGLaTs6Ok6a1pidvczU1DStVoteVqC1Yt/+A/zO736T1ZVl/urP/dfYQnixkiShlxXUGy2+/OWf4etf/x3eeec09993r0S7dAW9zAfT41afNeKN1tbXOH/hAs8+86lQpkj8mfV6i1df/R5PP/00rWaLbjdH0qWqWr7qZ+2H8VBKlVJj2a0jffCmwnl+R9/Ls7iyy1XQgOQGEVDpoja24x32F4473HRXJ8X9CuUlE4EoFInP3H+uOBSiVhav94OeWf3qf/fnvVbChhh9JVKax2O9xStXDnIXMuxNYmI34UMULSpzWhucd/1OCKhnsWR0OZEgDv5Yp4vSySpyQNJTfHB8m4AX8mXCrlzeWofS8tQ+YJJSXSPewCslWVDlZAkARxcAiV4YCSqFaINZBEYFcVTxfSjC6h/O9d5W0Ml9J7ePphWw0c147ewsY606uKhZCn1tVPMJK5lFgTKsdHPue+azdIaHy8ldKsDly1Vs54o0UdSNYmN1id9+4fcZ3TslEVKjJciAYGis89TSlMuzs1y/fo2HH3yoXFljBZiSIUGp8rlvr1xUlfJbtx25WcEMTpIa3V7O9WuL7Nt/mHZ7mF5egBZnd2IMWZ4xPzfP2Ogog0NDQWtT1FPFjevzzByY4r/5xV+g1WywubmJSdKSZrjZaPLtb73AzRs3eOrJJ1jfWEdpFUC+URhVHQC3ansxcfY7f/Ad7r/vfkZGRuhlGQpoDQzy1ltvMTw8yqeefVbwRirpX7ucebKI+uqtfNXEuR2Zyi4hUeneaAyV9lcswR6q6bBjwocToytj1xvqt+IHCKTbv1Via9g9JqUDy3v2286dhgl7Jjs7e+Gf/+JPeyDQ1SIO0Vs6i3KQghROdC5qS2CLLByj8V6cqn1CchuSbOOgiOkWWsjEFKKBuYDuJqp3Scm/XaaY0E/bKIoc6ySygrPkeRZSTRISIz4U7wRlrZQPZqLYu/jKs/jIT9NfvTwEoRrJ5gKdSZhYuhzABKHngX7OnXzny6ikTlK6ubBYApjAhSQC2GC9kiBCkqDxGGfxRpHZrPImwkBysd2OZq3JqfcXGB8d4OD4CFdW1nlruUVrYi/KO3q9LufPX2BmepqBgYHgs6lx8dIltjc3OXrP0bKtpeZ3B//ER9uq3NgyCZ0TKIRznvmFRUbHJhkemSDPA5JfUb7z2dnLDA4MMDG5h6yQ6Gw9SVhaXWKoPcBX/+ZfY3pqmrX1DbRJyoIMI5023/nOd3jjjdf54hf/JOvr6zhXiC/RUwpapfrPXTXVWq0Wr518jVazxbFjx9ja3gagUa+zcO0aN28s8aU//dNsbfeCdq5DPTRKARyfuX8fuLNG0n/HH7JrRbBEK6Ei6v64bZMT7R1/J0YHsyTkqBkl+WEoIRmDADzEU+RWEKhaYUIulPKKRKfE8DB40iQBLEK8GOk6g2EhLPtBEzOBD6kIFWMpeZicd8JNrUVXjcyQoDFaoms6EMM7ZUhVgvdeknS1DrADG3LcEE3GBSQ2QcB4jy3DqLI/wgW00gFe4MEYvA/CResgrML5ToCfOmhzNhD+7/BfOM1AmjJYF7ZKjUV5SZ9QgNNpGT3DFRi0mGVmgFhw04d3JHQvsnA0ajU6nTqdToNOp8ZAr4ZbDqk/WrO0tIRzjj1793Dz5iL1umiOWa9HnufowF8uW59aA6oTCSSkXx3uMSJ7h6UvmBQxX06uE526MD01wfz8DXrdnL37psjyImjPcp8DB2a4tjDPwvwck3v2YF1CVliGh8fZ2ljn7/yd/5mf/2t/lU9+8lEWl1YEjOhkzNy4scg3v/kfOXfuHD/3cz9HUWQ7cuBUuTj2I4XWCtr9ypUrbG1t8cjDAW8UTNk8z7l8aZYvfemnyfK8fF+lbwXBZ0UzNgqj2Jc/2Fj5sMdQVZJ3nPejWEb+qDfzpx8/+LwPaGObF8KDHcPYChKtJdnWO4wJSa7eywR1ghkS7qFgLyqN9xakHCL4iELup6K48LdwTjtwReBY0juKSYpmIy9ctJ+I1AaCHif10IO5ZBKMNhBQ2oRcLqV8dNfL9YBon4YkakxQ7SX5V0xHjS/xSjoCN31I/lWV66nAp4QvQ9OEtidGqHstUOBEG1JBC1MKZVIwKdYr8gD0tK4Q3UwJfquwLnBF+TL/zXtIjWbu5hqp0Qw1E4nmbSjanWHyvGCo06GwBXmWl1n+aZpw7doCeVFI3ltgH6gKjX7/QyzksFMg9VfmD54GfWdyFTEMOjjmLUNDQ6yvrbCyssLo6GhJ/YIS6pnO0BBbW5ssLy4yPDwK6CA4miht+Pa3v02nPcADD9zH1tY2Q50Ob77xJv/6X/8mxiRsbKxz9uxZ7r//fuqNhmjRpo8xq7IdJomh1+vxxptv8sTjT4j2rWTxaTQavPbaKZ56+lkmxmNRhOjArqKkg7O20o87nNO7nMAf9fPDnn+na0bp+aO89of5tFq1nQLpz37q2PNGm7L4tIlc1kErEoyNlCAS4SN1xZTzJYm9DSsQOFzRw9kMrcJ+2yOyCYCYP7awwvToKYWZtTYAMoVs39u+7ypmnEezzVqLs1LD3jqLtRl50cMVWUgJsWHQu0qxgUy0E6WIAtjZAmslLSTSz/ooNK0I0/id99Jmm2dyXtFP+SjyjCzPsEWB0Qpn85C+YgMA1OK8pNl4m4GVdBS5n7TB2QwVUk18kQulcBHqyylFhAh412dlSIxhbnGbZrPJ6GCLGysbzGY12oNDFMGEGR4eZnBwkDwvUAGDtbS0zNraKvv37w9agysHyM6oVPVTTX2o+A3uoCHdeoynn1slZmu706TX67J4Y0ly84wRTVkpCmfpdIbwzrKwMM9gp01iEmEsMAmtZpPvfOcP2O5u88wzj7OwcJ1f/uVf5sqVOfI859f/za/w/tlL/Nqv/evgDxqi2+0KTcwuAydJE1763ks88OADIbIZ8tQGBjh9+gxTUzM89NBDbG1vYhK9c2IRlsdyUu929ivinC+Pj6RzpYZ1G2FQ3fchhUWQ57vu+cGfeHx8N7vf+kf7+H5ffMhzbhFIX3nm6PPeO4oiD5PfovC4XCaSDxQiMfvdhsok1lpsnoe8tyJMdo/WDnHqhaKJCIOkNgqjE1lVQvwy5uOIU1IFbUWamphguoUE3sREU4pAcibalfeFaCveg7MUQag5V0j4N2g0QjsS7he1tTBwFJQanA4FBBSEaGFRvjh5xj4CPCYOEwohGKPQhmCGUuJ/RFMsQhQzMmyq0N8FPlR3wTvyrEvEecR6d3JsoIGJ5qX3aGOYX+3R7rQZ77RYXOtyJWswNNQhy4sYHQi8R31Gg9WVFanaYiWVo8pZ3h/YYYh5z63C6QcJo1u3OEEk7uBLGjtnhV/Ie8fCwjztwTa1Wi2UrjI4W9BuD2LShLm5OQYGBqiltdKEH+p0OHnqda5dv87xe+/lV371VzHaML1/mm/83rfJc8vKygrf+973OHjoEPv37w+pH33/5MDAAK+fep3h4WEOHDxIr9sFxG80Pz/P9tY2n/vc5wJFrSlN8jLXLPSZLm2p2Hd94SDmXRDmZbf1+/GDhcutv3/Qcf2f1fejK7/f+lGK8mcUpB9GkH3wR+0QtD9IgDab6Y5xYr78iennXcjKFi4gg0bQwjqQtoqZFLiDVGSLrKCfkcC8DpEFGyp+OBD6EOvw1gsGR+SLCBsnaSeiHUkFkFipJOaq9TWjkC2fi0kp4XHxQCsCLkIHUyrk3MVctsjNEwVq1IogFMgMJkQEc0ZHeERge/o+LGuLMo0iCpZIaldNs5BUCCsamg1pNSX/d6iioiQtxRB8ZiH9Afo4IOdiHTlbooSjz0spzfxyl/bgAMOthOWNLle3aly6fJnRsXGa9Tq1mmCjer2MdrtNWku5MjvLnslJDh06xJUrV6g3GjQajYqfLg7sKhHaLSKGO5tsO7fScb5joghURAjoajQada5emaNWb9JstqQ/lAjTWr3BwMAgC/NXSXRCszVQQkvanSEuXbrCr//Gv+Lll7/Lc5/5DKMj45y/cAHrHKdOniRNaiwtLQGKe+45Rre7LX64RoMrV6+ytLzEI48+ytbmVkgDkvSos2ff50tf+pJANcJwF94h1f8ZJ1+lKIEsgmFC6spk1b5/jeCOUBCO2SkMSsG36/cPFgTxOEoz8sMJkB8sOD765we1Vz7Nxk6BlCTNdslgGPErccDFBwzBpNB5qkRbQ8TOiEaARihKgl9CK40rMsnFChMRHzQQpUozUUKiYF2fmyhJdbAOVOl7ilikWLJITAwHoVwT3gcKa4sOQiwJrI4RPR4jPtEx7CrPhgfnd+dn9cPgCoVT/ZLesSaBuLRUWWlFhG0QeqHWVj8C179WBJuSJqBr5QuMEU+lSpB+8NtJcCDmBiZJDaXWS+9zt7dNqzHGVqvF7OXLaC85dSMjI8K93WjQ6/UoioLTZ84wv7BAkeecPnOGJ554gpER4fGpmm59oXS77aNpSOGXcJYvx5XWClcUJDXD1NQk8/OzZFmP8Yk99HqSwuKD/2t6ZoYrV67Qy3pMTkzSy3NMounlOf/h3/8W+B6/8i/+OY889DhpmvDue6c5+94Z3n3vNLNXL/Lyy9/n/PkLfOUrP4O1GWvr65w9+x5PPfU0W1tboGTha7VavPrqSZ779Gdod9psbfWk1FcItviSm6gSTVTI+/ZxobbxkXd2mZdoqQpayQfho1Slf9Ud+1rd9ihFfyH44C0uKmECV7/ZYb5/+G3nPW8f+6s6/aub+emn73/eEojJ8Ljwr/Dysc7hkXJGzote4UJ0ynkkAde6MLginkXC//JiNCapSZ6ZSVAB86SMQXi8fVh9ZLUEjTJJ/1GC30eHBFfJiUvQKiGutEobQVJHQv2khklq6KQWhKAq76FUAqYGOkEZOc4kNcmhC7lzSRr310GlgsZOG5LDl6aYtE5Sk/w8rw0+ckkpAjBNBTR5ikkbmKRW5uChVCmklEnkmXWCSZKAWJfcPac0XmlBhystSHMT+MqVRpmUer3G3NI6A40Gk0NtLl1b5Tsnz3B5YZG5+WvMX7tGvdHgytV53j79Ds3WALVajXPnzlFLG8xMH2Rzc5uLly6hgGarIfCAChapun3UgXmbYUgVTtP3vvhy4dFaMTTUZnHxJttb2wyPjOCtlXETAgIjI8MsLd5ka3OLkdERtrc2+O53vs3nPvfjmAQunj/H9RvX2b9vgnuPH2XPnnHee+9dlpZu8Nf/+l/joYce4MKFcwy2B3jvvfd48MEHGRsbw2gpmd5ut3nrrbeZmp7iE489wvpGyFOLAJGAq9ttNhGeJibY7jRfopAKGpQOmpGCUvWCHde77fV3Sbedx6gdx9z+WpFVUt+2fbvvWQWXfmjt6DYmqJx/673q9WTHCEmSNA0H9wdFzKUnrtiegBEipIroMnSvFAHRLaDJWEFDoBk+5M3IiuuoaBAESZqkwYRSZSUTFdQybwuUkgmJMiH0LaaVpk/IH1cCwQk5lOuvGEaJ/yoCwXxJ9ykQsdK3ElWkqJ2E3yV/zYe1LgxIhfjXAJVoEpWgncXaflkmF4oTSOESaVtsrziRNcb7kMmvAhF8yBQKAFHwIRcwOJ7DcTGfiTCgarWErk/43VNzbPsOz33mGcDTy7Y4eGCGtbV1fus3/y2/88Lv8bk/8RMkScp9997PyMgoc/Pz/PhzMpG991y9coX9U1O7IADSNx+0qn34LZo0lIu6XDkMfgLmTBXs3zfBwvx1Ll88y8zMXZKALC8Q5xwzBw6wMDfH3JVZZmcvcvzoYR564F6GhposzN/g6N1HeeLJJyiKjAMHZuj1Mp555mn+1i/9IgBXr1zlN379N7h2/Rpaa06ePFmayVmWMzN9gE89+ylWVgXx7YlO6DhMfLmwVDtGxXkTnmuH+NABbgCV8RbHYjw7Tt4qKU0QBvGaFdK18vpqx9F9IVB+t/s9VPb58Gz9FxIfcsf1P/Srv92B5flxANxec1O/9j/8rPdO6mpFm9giCOfUSJKiLzKkjn24oBefh9IR0yHfCbgRWe2J+13fNPEh51nH5FtQRpeRrchl431w6BLYJ73k14XpjFJggnZkjJBhSaKs4KCqqQBaRQEQXpKKfM/RZPClTyj6geLpVWpbFY1eH8egCBgdqo+EjL6SKteVFSIiq2T/OjpU5FU+mo4xehUc4FHVJwhoVTkfMU+td7QaNU6cmWXPnnF+76W3udIb57mf+Clee/UlnM+xztGo19m3bz+tVpMXfud32NhYY2Z6Hw899BBpmrC0tMTS0hJ3HT5EkiYsLy+zsbHJzMxM6cPTOqKOP54Kf6dtR5Z7xVT0QGrqLC2v0O05Zg7cBREbFsaCSTTLy0vMXrrAU089QlF0efW1UzQabe49fjysvp48L+i0O3zta39LYBRFwUCryXZ3u8RqOS+J1s47irzgwIGDaJNIknTY+maZtDAsvzvGWzyun6iuSpP6dsdEs5zy975Q4ZbfyiUxdl7ZnJ1m9h+fbXBwZ5QtyfJtIVYrMlmZy7JE4JPgcArGfj9S04+8iA8n5ssETEO4TszpIph3OqzojmD+eQdFEDoEHBLS6cp5aNWH4AAAIABJREFUYglr732JlveAKoWUxflC8sp8sIB9XM3lxdkwyUt/jIdYUK0/0RVauzJLvC88XDkAJKE1rmC+nKDWhgGiy9aFftAh0qZL4QX9v33g6NYB+Onps2RGgF3Zv/SPLyeAVzgnPqLF5XVmVyxP/vizvH7yFdIE2u0O3hvGx8e5cP48Bw8d5rHHnuC3/8Nvsba6EUpW95iYGGfPnkl6vS5ZL2NsbIw8y3nrrTd58IEH0dpIcm9F9e77CCqTY8fvH36r+paqyGkF5EWX0dEh1te3Off+uxw8eBdpo4HNRcMsCsvIyAj1Wo1z759na3sTrQfYt+8g1mmyTJzWizdv8Nd//udphJy+ZqNOYQvq9ToHDhyotEEewzsvSbyIT7IMoJSO+EAIF8bbrQrILm3idgK8ckxVi6noEWWv7jgt/ItpKn73dX7AFvv2h1R1P/JW9SvFuXg7bLn58tPHnhfXjSqFTZJIeSEqkwRFmRckIWkTdofJrigd2ShVYoeqmIwYJoUgnIiASpl0UiYpEJ8FRLjSugRE+qgFeY9XRcAiCe1rjJqpKBvwIhiVgB99oLIF8c1EipOI3JWJEM5DDo2RPoJmqCoCMgrlCPJzsWJLQIjHfisCqLQoCiJXeRGwUbIaZ2T5Ftb2KGwWUMVZGQ0UmEUguxM1tLyHUZ6bqxvcXFpBt6cpVJ31zTWGhoe4cXORt946jVKGQ4fu4v33zzE5OcHS8k02Ntc4eOgg9XqdjfV1trvbUmbcO5QxbKyvc/LkKdY3Nmm3OzSajR2rb18wxclYdYx+/IHeV5SijwGsLWg269TrNa5cmaXRaAReIg9a4zykaY1arc7KyiaT43sZHR8jywq8U+SZZWNji4X5eR5++EGGhjrkAbXtnOsTC+YFReHIsyKQDOrSdaDDAqPRkgStVMUHFmAtSqFjZZFg0sWgSERv9I+J1wX1AZ/qd6h+1CwW4AhTMnzfH/cqzIFS6ERflaacCzuifndow4/0o/v3ilo/QJqaHWPA/PTTR5+XBExNkiZoTUAHh4KGPpQx8v0KIt47ARa6nJhT40MHREKzIrJNOltGjWwhmJ04WfspG4KEdl7C5N7nQYsQswkvsAFvC6zNKLKe8C0nMUfO460VlktnwQYAJ4JfksRbgnBLIQx0KXMkvSTld8QHFdHh2lSce0aX++PLjLxKSoVabmHUGGMqLyDUnUtix7uytpwghCVtRCtNWpMacNoIA6VSvqwbp7UKkcVoAkJiDDdX11lc2aRo7mNtq0st1dy8cYN6o8Gxo8cZHh5mdW0NozWNRovV1RUWrl3h4MEDeODy7Cw3F5do1Gs0my1QsLa6yo3rN7h+4yYzMzMokHbuWlX7f/4wwqh63q7zw+ofEebtwRbz81fR2jDY6ZQwBe89aa3O6OgES4uL5HlOp93GFrZkobx6dYHvffd7PPjw/YyNjZJlWUmoVr2/VjowM8a/g2O2kv/Y/0n5907nbRAC9I9XleOqpq8KnqbYimpr2LWv/50v7yO6hBKOMCV+2OhUrlYRqt5/Z2j+j+ATn0VBkuwUSAkhJQSbkfdcv16U1qhAtu9xUr4nqF2J0pLe4CwojfNWaDwseGUCt06BMRIKL2zA66gkrHpZWPFtyY9U5HmgNxHhZHNItNC6Ou9IdBJqtYFKQmQNkW/e2VKAImgotDE4Zylyh9WqPF77ItRG61OZFHmBcrr0mclAj8A5i3UW4/rfRYIsaXuC1qk4ra0IsyIi2xF/WryurOgqqAFIfbTAjRS1q77fSpUYHBcijTLeo0kdTDslmmlhLfVag62tTYoiZ3x0iqN3H8V7z8lTp9jc2GKglZVh9ESnLN9cYnpqmjzPuXZtgbGxUaz3dLOMgfYgy6trPPvpH+MTjz7K3/+7f4/JPZOBQcBWcFgxpysuLh9VKO0UZn3tK/4n+6y1aKOYmppg4do1ulmPffsOkAcAqLMywqdmDrIwP8/C/HX27t2DdZaicIyOjbO1scbf/trz/MIv/k0efuQButs9tNE4S9m3ZasqwqekUqkKpL5cqaQ79fcFx05IvFXsuLqiQslx+/6Ke2/nFRImgdAmYlsqpmPlkuaHU1r/0LekXksl7UMH16yK2e0xJwu8dZLZHFfn6GsKTj0VxF1wE5MmCWkScU19rQoVnNVeuKZTbbAhjy2irY2WCroqlQGfZzk4hzaIieZyEpME+g4X1O48VKhIS2qPosjQ2khliiRFK1cObFnxAnzBWXSSoLwL+XtBONiAyQorWlzJYtqGQlEEoQriGyIQh2ltcE5WW5tnJU7LBwdpbnshA92QGIElaK0pnGhiKua7BeBfrB8HsjiUGqethT7IqddStgpPd2uL6f37OX/ufWYvX2Vjc4u77rqLvJZTbzTR2pAmNYxR7Nu3lzNn3sVay7FjR+llGSZNyfKMLM/JAnvkT3z2T1BLa/zyP/gHNJsNavVaSKTuR3yqEbjdWfTVrerMDUezUygFT5mqmoSEv+V601N7uXbtJlcun2N65pAUZQzy0HvP1P4Zbly/xuzsFaam9qOVodctaLbaJFnK//q//H3+y7/yl/js556j182DSdEHz1bbWhVEsi/g00oKkLgvCqvYH1WEe+wXed7IaPBhttvLEg9eU4229f26VcYGt9OCASLm4iPEzP5QN/OnPjnzfJFLORm8F+FjLa4opNSRs1AI0b8LP7Osiy8kxUScZErSNfKQg2VzXJFJeSQHWbeHURrtocgzlHchkVUKCoTlEOccRhmclQoZed4TbUf5kCbiSjMwz23I6/KYJCVJa6Xqm2cZeWx7EHSxwICzBWXJJuWlXFERBqX3YAtpH172OyeVY8sKvp5EK5JAQau8Q4Uqv5K/Fsoz+RytLDbvhWKYck+b9cSM1QpX5HS3u2xvbQVBJtE6HeDsKpjLQOhri3cZ3klqjMZxfWkTB5ydW2d65m4KV9BsJrQGUja2tpmYGKfRqAtfUKvFqVOvMNwZ5Nixu0E5xsZGRfNJUpx1JCbh8qXLLK0sY23B3/7aLzE1M8PBw4f4xCc+wXe/+yIbGxu0Wq3AgyVbFCB931p/Ysr3FfNll7DarZ30taWqgIhTSBgVhjpter1tbly/wfDwCEqrkt3BWYmqeQ9zc/O020MkSSJaey2h2Rjg97/1+zhneeTRB/vtkxdXMcfDfXeYOL6ybxdSu3yOvv+ouvXPj9vHj4r1ZaTf8ffO/b6/P36UjKU/+q0f5Klu5s88c8/zaZKSpCkRH5MkNbQWitjU1EmShvwdwH71WoNarREoW4XQPzEpaVIjSaT0DyryA5lQDigVYF80X8IqoZMUlQjZv/YSktcatDahOIAAE30k+DcCgExMErL7RSPxEUuhTUlNYkzQtlSsDJKUZHGR3VKc1078Ttbi8y44i8GDt6Hiq0V7iy96uLyHCpVnVRAcSaLleGcpsh5Zdwtf9MAWaCUVfSVZ2GNS8VsZrUmTGnhoNgep1epoJeWFsmybLOtJBd6QcyaKWj/h13tPajQLS5vs3buXV19/h9G9B6k1B3j7nTdIE8PwyBiNRh28Y2p6infPnuHi+dN88uFjTEyO08t6JYjPOSmFlGU575w+zdLSEk8+8Ti/9LWvgfUUPcvE3gmeeuop3nzjTebn5mm3B3elm1RMHMQ/kKZShAGoBAT6gilaHLcTSNXjohYe72OdZaBZR2nP1atXGRhs06g3sLYI2nPBwMAAaVLj6tWrtFot6o06NhDCtTtDnDjxCvPz8zz11OMYbcpniVSs8jwBiBqEST/fqyqIRAhFkjtVfZQP2H6U0IndelRfOLKrLVWzn/8MPoHqqLKZP/eZh59XJsGLPoOgnRNUkmIS4bPWOhGDRSeUNe21THSTpETXvUlSTJKidIJJ6oJ2TlPhEwoIbGMSVCLCBJOijPBZay3CTFDTUtkEHe8pbdIBWZ0kdbSqoU1KWmugjCFJg5YUhGBaa5IGoZmk/XYlaYI2qSCrQx35VmuAWlrHmIR6vU5aa5AkNUyI3pgkDUJV2qK0EcGb1sSXElV2pUiSlLRWK2vUh9g+JjGhwK4kHLvg9FcgAcHAPqAV5b2MTmQhUEGI74isKFKTMr+4wZ6JYfZPDvNvf+9FDh57gIMH72JtZZkkrXHv8ftotVqcOXOGl1/+Pg8dGWff5Dg5KUPDHb7/0glqtTpj4xOgFCdPnWTu6hyNep1/9k//GVPTMxRFjkkSiiyn0x7kxz7zHOfPnePM6TN0Op0dWoz3njQVTqqlxWXm5uZYXV0FpWjU66RpGsy9corQB/vtNHF2b1UEuQomeyPk4S3Mz1Ov12i1WqUP0BZCVdJqNZmbm8MYw0CrJRWolGJoeJiz757ljTff4MmnnqDRrGNthF2osoX932Po/3Zt7D9DFYlcFVp9wfZB3+885vaf3d/v1NJECMWMiVIv2nG8HKPvcI//tB9pk9y/LBsVe/H/+W//rFeqtAwASQsRp6X4UnRIBKzAbFBKBWBgCDZ6FwjTosNNY4KDt283ByAggsuR0Kp0kImQgWhKBTMuHl+CG4EqP7fWBq893seoICVaofRX0GeFlOz9PtYnvrjIS61VH+8jZY36QzHimaIzUdFf9YMPM+CFYtu9NEgjrJIh367kzAkDpZ+kHCIuvjLpUEHgSSOclxw57xzNWo3X3rvKvr0jHDk8xe++coXf+oO3GJmcZnJiguGhDnPXrnHj5g0WLl/ik8dn+IuffYDzqwmXswbLN+fxDpqtAbLc8vbb73B59jIz09P8k3/yT3nmmWc+UDgA/Mr//St8/bd/m8FB4b9WCtI05erVK5w69Sbb2z0azTrdbpdeL2NkZJgHH7yfmZkZsl6P/mpd9bze2Qu72y8lkUphB5ibW2B0fB/DIxPieFc6jFGDc57ZK5dpD3ZoNpuBmM5Tr6WsLC0yPjHMV3/x5zly1+FA5BdTReKEvtVpf3tf2H8m2wc0507+vTttO2XER9viuX1tLQxmqESfZUvwlrywKDS1mqAmXZHjC3Hw1kLdsvJhAn5D5lwfIKaUFtPCiDDyHlzhRJsSnUAmeBAWWhmx96OWoKQ4ABCAaP3VIHZeEfA9yvsQvZA0Cm8jDonS0e4B66VWWhWcT3gZ2kTBKRO+rOIQ2xNsidiJgi6vksaDUUnI0pcKIHgXANcV/FagMvF4qZmmCFiqvnYgSlTEcCHwBS++K4jaqRZIgAsEdC7Dq4RarcaZSzeZX+wy2BjhUw8c4cXXTnD9oiXB0LMZSVrnsXsP8dTxA7z9zjnU2EGee+pp/tE/epnFpWW62116vW289xzcO8LP/oWvsDJ/lV/9x/+QxAgqOgpsCQzI07WaTQZUxvy5i0wevhdjNO+++x7vvP0u99//MPunpknrKUWes7a2xmuvvcK3v/0dnnrySY4evZtebyssfFEYB5F8h3ld7f/oYhCSOcX+fXtYXFrDK8Xw8BC2yKjV66jAJrpv3x4uX75Cpximl0llEu8czWaNF198ibt/8y6++gs/D9ZJupEPC0zJKhHsS9/HU8eI6I7o4B+lj6YqOXY1I74/dgjSO2xRinj/sYVRvEz15536R/2r//6/8M4FsvxgdkTOHR1KGTlUyRdUpfwUoSF2RCwC4PBiVpl60KQkXwvlA8I6IJRVILq3NoKrA/1sHAgukL5JZ1gvkS1jTIkxEqBhIVVfEXiAdz7w0kjOmigoUYuTqVUVcigVaGmD9hLob0UDlGdO01QEpnehqIASChYXkw/j5BCNy3t32842xgREuRxTRCI3RSmMpJ1x8IS8wZBjpZXCKC9smM6iUWTAzbUNtAXrE2r1WvAbIYuKSfBKWDo3u12heFGewuYMDA6GApeShhHf9+b6Flk359Llee46PIXVWgo+lD4gS2EzvJOqtNeWetwoBlnONO++d57PfvYLrK9vcvb8eXq9HiPDw4yMdNi/dy8vvfRd3n33DJ9+7lkOHphmu9stEzhlale5uO80yGPaUj9ql6Y1Fq7d5OSp18kLS1FY2u1B9u6d5u6j97C6ssbY2ASt5kAYv7LQZNkWhw5O8bW//VW5uGMHxkm03ztrQh83M/5Hvd0uu38n9cvH2+5UC+6H2Uyy04eUrG9sBAdwSixFjHfC3mitTKKgichxIR/NVEoUhZQLY6LPSTiTlFLgchFY1mOzbbSGwgkBWb2WCpVJcGZLKNtR2ELC/7pvDkl9t34pYaWE1tYoJT4mAsWIdRg8OpF2y80phYRS4mCNBGVa7CDJRQuhFUclFSbyEykRckobifZZSXa1NhKueWI4dXdoO/IkdXs9ETQBZOkRYjflCdglR5qkcl0nRHcegnZkQhRS3o9HMlkSo9g/MYTi/2/vTYMtu677vt/a+9z7xn49At3obqABYh44gaQFiqIs0ZItU7GteEhZqoqk2P6QcuxyKl/ixHYVnXIqFTtKbH2JXeV8S2wrspNITsmOypRMAhIJDiDAASBBEAQb89QDenjv3nP2Xvmw1trnvAeABAGQosXeIMDXr+89495rr/Vf//Vfyjx1TmVw70uz6T2JhYH7NzZMM10tBDZZGKv3ioyZ6sDBI/vQNGNx+RLXnjhCppLUKAAxq+OehyIcP3SA02d3+Kf/+kHe/+E/zs5y4Iknn+Cqqw+xvrGPftlz4fxZzq9tcPfdf4RnnnuBBx/6IgcPbLG5b5/3WvO6QJVdG8ZrLYIx7IDIJKUE93/6fp586jmOn7qOrf0HqLVy5qUXePChz/DFLz3ABz/4Y7xj/w1cuHDJmdrK2tqMZ579FtdffzX/8td/neuuO8W73/0eVlbnlD7as8u4qcv4c1xHnYD1YPBDUDwkvfEU/5seU0/mNZ7XbtrCXtrFtzvsGN6l75Oh7VoPtjoYwc9T5EI1zlAtLTWXRZsWkoiFTqUMCDOyhKohFAY0DeCKizoMlsHCgNzswFa/LNZWWsB0fsZduGqhc1GsUHLsukw/9ORZpnMNJyTwJLzmCnCMqkohkZoyo01cM0i1lIYBCdqYyCGHotX+PnW5bYqJaALQoVlBhVILtZoKAaruPTkupDRvMLpeqBpZUpJxsUotSFXm8+TfsSYApXjImsYkbSnGR0o5tUUxqLJcWGap5toMe4SN6v9VDzWGUp3d63WD1WsIfcLl3IFk+lLpS2Wx6Em1R+qygepGJjSOi0pHTQOL7W262Sr79u/nK1/+Mtdeew0XLlzg4a88wcpshRtvuoHTT57m1LWnuP7663nooQf4zOcf4Nprr+UdN7yDJOpaTLG+Xt8QTTEQA9FnfPpT96Oa+bmf+7NcXG5z4eJFckrcfOM7eO973s2nP/1ZPvX7v8fG2gbXnryOqsqsm/HMM9/i9+77BL/7O/8ffb/DfLbKTTffzF/7a3+Nv/xX/hLDckCqOAv/1R7IXs8jPL2IO78fwVvzLt+gF/RGPZ0xe/r98/ryn7/nHR/rkgDV+EOlt3ybL2wLHYy4SCgxumGqwxItvf1bB0q/JIthUFJMWjbnRB18seJW3HRIbGHGwohzCibEHqxlyogR1QHVgdL39qarGc869PSLBWjxsMmaDNQ60C8XUI2DJKJmIOuAiJWkVG+lJGLtnOowgBavFzKLUmuhDAOlN31wO29hCJlYD4NSsueVUpBLqz2nar147WAmtYKal2EYhSlRmQb40CRMAKKZQtTr1drT98Flyt6BpWM2m6NVvIjXvmvNCzo7VzVDlF0+VqkoA0V7oPiCs+dTXBvruRfPsHVg3d9LdIJxjXH/3VAGNtdX+cwjT3KxO8iB/Qc5d/4cSOXMy+e4/vqbuHT5Ei+89AzHr7mGfjmwsrrCNx7/GnfccTtd1/GFBx9gZWWFQwcPMQzDFP3cNfYaIoCNjXUee+xxnnnmRf7kz/wpHv/mY3zjG48y6xJDv+DMmZfZv+8wt9xyJ6ef+BaPP/ZVEoUHPv8ZnnjiMba3X+Hmm27gA+9/PzffdBOra2s8+uhj/Pq//DUuXrzMz/zJP0GpdVeh96uui0nW662sxh+w8Vqe/vT3b8s59mTZuqLVe5ONGSLVaK7nX/LdsJbiO/aoDSziaWyFaBFkkz0ZGbGvXkgKUQRosdlgTSgjPSnZM2t+41ocgzLXGq3WRBEcWIfSdm1f9NXbeLtHkMUqs9WkBhw8peFDgLXkFtzTGdBipRWlCBPtD1LOli0rS0pdgCaE7ACh2y61MKxqGouAMVykDt5XThKiQ/MWW2W/9XzyLJ9n6TyrF8zsfukbgFbInWNJQtdle44MoEPLEpYonSmF+XyVYPEGa76qNRFQyy5YiCoGoPeDNRFYW98g1UpHdVa9cbaGFqra8xyWPRvr6+wslpShcvHCNiur67znPe+jlMLDjzzI5Z0dtCQOHdpPSpmdxYJ33vVOtra2ePDBhzj78hnuuusuVM1b2t15ll3GaD6bsex7nnn6ab721Uf5I3/kQ7z40ktsb+9wxx13cu7cWfp+yXUnr+X0t57kHTfeym233cZn7v89Tj/5TY4fP87VV1/N4cMHydlC7/nKjPccPsL1p67n0/ffz6/8yj/gXe+8i1/8pV9kWBqzPu73B3W80XDsuznW3vD57TzH3tHN17esI0iosnk42rJcabKbG1PJFrMblrGOJ7kFy2QNkwSJQp6tNOE3HACuaoszRyFjSI/4bi5azOuQRE3ainKtyDVN+qnZ57O3OvZ1ZR5BAuM7qDsy2ha31exWqgyk5FpPIYK2Z0ew44aHVVtIKQztWbUe7yIgxavBJy+3Oh6W7JnUeKYKtZq8R+46by5Z225sjS8tm5dwGV73DpVC0R36hd20hLgdhpEVHRpYvlguEKy/HLXSzTKVgTIUly+2z0aRMZqNXU8mA6X2/g4sZJyn5DV0SjebsbW5yleePsvV197KocNXkXPi+eef47d/+99y+fIFDhzYYmVlzrxb4/z5C5RBWV/d4IlvnebSpUt85CMf4QsPfI57772X9773vWxtbbFYLIDdG8hs1lFK5bnnnuPS5csYjlXYWN/HVx99jOMnjvHs08/yyoUL9P2Sxc7AtSev41tPfJOrrz5KN+vYWW5zx123U2thOSzJamqfpRSWy8L+A/u5847beemlF/l7f++/58/83M+xtW+fJUxa8uEHd7ydxuL18KfvmUHKaU6azWwBeYq6qKnzJK+Eb4bCC0NlYiHb/+fUFh2x8Gu17FjsvB5Rj6Fb7MqhT+ziaYAOvYU5AcJCA7JtsTZ/yWN2Ji610RICkPY6lZFOQDhppekWmQa2TnAi7/3hLp1peUtrmhnHimGlKd55lxBeCymIbARS/Brt7JapE2Emq94vTJG5MPSLpkOeXFBO3ICrdI4PebYSQVNkqKLYNpOykkp2+d/csCVhzizNKFixqoDVrI1JR5RE0mQ94oolIDT2IFVvAe6qoClR+sL1J4/z21/+Emvr6zz+6Fc5euwYJ06c4PST32LfvnWuO3Wcx77+DW67+U4ee+zr5Jw5cGA/m5sbzLqOOhTed/f7efL0aT71qU9x+223cer6UywWy5bpVK289NJLnDlzln37Njlx4jgPPvgg+zb30c2sru/CpcucOXeBj3zkI7zyynk+8YlPeOlIZm1tg/X1DVKq7Oxsk7Jps1+8eAlQtra2WNaeYei59tR1XHXVVTz22Ne57957+dn/6GfNeGfxhMH3Ax367sfbGk69Rsi2d7N+y+fYY927vu9bujkHzCEKUinFFlZKHZ2rHFat1KH6Tgq9c0BUTb86i3pdkYVN1d0uUavTqqX3iZxRHYgiRSniGbsxy5JCk0Zoxywlwhm75oa0Rgo+wTBEXJ8tk4WiYnrVtVrIM5vNjUfknWZN7kOaEJoZYjdoUvw63AvTSsqJTgJ0VxJ2P7F7VDEEzjyoDtRkUM3gOVXTcbXIw5inCCvd3DvUqvsnAViOngLxLqijAVVjzFvCAVI0PkDQrAwyWOEuHdmzjSIwE9uQ4iKqGzhNCXJCi2JKZf7kwyvENprlsnDj8SNcu6U8/tgj/NiHfpSP//v7OH78Go5efTUHDu7n0Ue/wU033szO4jJPPPF1jl9zlEOHDgHKkcOrDEPPclk5df0NHDp4kM9//nO8+NKL3HXXO+m6jjMvv8z5V84zn895xw03MJvPWSx2CB4QwHK5pOs6VlbmnD13lksXLzKbz0w9U4Xl0hocbGyuuqxL4vy582zvbFNKYbFYcPjwEUt+CKyurqAon//85/noz36UqLD/XoYsb2ZMQ6u301DuxeumPzdO1ts8ulqX9kM3N++kgshUZAyGsqCq16aZD0V0KBFRL3A1ISqcNJnJVKmmCe0gLr6jGl4egmkhcauUoaevRjKczWb0ai1y8E9FWAa0hoIieIuhwb0JacqXZUixrTs1wLJnpkm9tOLhYQkC89lq86jiBac0a8Yx2NGNfS3Zr9zuP6Xdk0LNNTLDrEsEo04ItPq64sW4FSdBVgsFw7GrtVCp4zNrvp24x2NZAPVna1iehZ2RRQPaNRYKZVA6CfZyKGIC0RJcTCJFc3bjkzBWhz/3asY0up0GTy0x8Kc+/C7+wf/1AEcOHeJDP/ojPP3Ms+xsLzh39gK333YXWgd+95O/w6wT3vfed5OAvhSKDsw6I4Bub2+zur7OH/2Jn+ChLz7Efb93HydPnGR1dZUTJ04wn8/p+56dnW26ruPuu+/m4x//JIudBceOHWNjY5Orrz7KZz/7WbYvX+bOu+5idXXOpYvbLJc7XL58kc19s+Zpl1q54YYbOH/uPI8//jhHrz7Kzs6Ov1N7gpcvXx5XzA+gY/QHkQ37Xo2u1CWqQtVCFgNpTWLW2dgirfCwDEa3j37wOefmKZVhSdEldbAQLWfrxBHZJgOmI2MWoV9xfEoptfeyCOgwboy4vnSk6AUzekoQCd0DSO4d+RLUnCbGzoDxIGLKbAUwKkFOK9QuMfRLlIHqErVhWGr1BVdIZrMEAAAgAElEQVSHVmoQM7IykL3Il+wtnNBmMprxInAlLKSTRFX3VDyky9kLOnOic2XMMhj5sXhgZiGohV/2DgZjlWtFsukhFcf2RDKaje7Q9xaK5tzBLFmNnFitWecM5sF745lOeiYgRdtwLBSsCKiHf3ZTRhfJczTNWabE6to2f/2v/mV+87c/wYMPPcC73vVuC6dyxxPfeIyvPPwllJ4f/7EPcfDAflduNHXQy5cvUdU6xfZDj2rive+9m/Pnz5OSsLa2zjD0LBYLZjPrNdf3Paurq6yvr3P6ySe58eabuf+zn+HGm67n5ptvZmd7m/1b+3nyyad45zvfzad+/9+zsbnCqVOnOHf+HFtbWxw8eIBHvvoIi+0FN918UxNuG+rApYuXSJI4fvz4ayyd0TP7oRnTW/4e3X4381oSrRUtxoyWlJhlL6TVNIYqZXBD5SlqLWjtjMznjOxQe7RyikxKFn4g0bFEjC8EdDLGkLWatH3y9PLlnQWzrht3Yuz6lMAtgjWeWhjVMBcMwA5e1KwzATWSN6vEQ8KUmM9m1v66uh4SXh+n5qFoNf5UyEYYKN7iG0rpQWQihyuThRzmyULCrvOyFu+qq5F1Y+bdTSwzZviU830cfDdPTaCGgbcMmdUL2rWG8gHeKbdqZb5iBmQo1b0kgGphmRZqsefQdVaMWkqPSKYTsc1jKOZhld5wMpcWxoXljEjb06UVLl54hQ999Ef5q//V3+RjH/u7/O7v/HvOvPwyXZe5fOki15+6jltuvZkuZxb94MqacPnyRe677z5uuOF6rrvuFLPZjForly9fZnV11bNuZljn8zlnz54FrE14rZW77ryTe+/9NO+48Xp+5APv5TOf/QxHjx03I1eUW2+5heeff5azZ85w6tQNHD9+nOeff5719XUATl17Cqs+sM1vY2ODJ554gvPnzrFvY5MPfehDk/caXWG+D4THH7Qhr/Pz2zg6dW5R6Zctg5S7jpqSSYJIhuQgcYDKXueTXLK1FiePAV3aLfqvYs0aAaKXWvLFkCcvtVuZIUQXWUWqeWBWk2qT0aGuFpIEh6BOvDgRMeJleGKuj5PU0tYVq8JPyfhRKdvnU4RFzneomAcXwHoNNvYEhiuOGVm3ihAJc0PXdRbcVkuR9/3Ciz0Lw7CDFsusdd2cnAdCv7uUguTsdYWjkQtRL3VsKYEJy+VkaopJSNWkTuI9DtXeZeqybR6DIjLQF8vYlcGM2nw+pwt2sb/XmSr0A8NiG8lCUpdbqWIV8XkGqUO0N8PWF7IWLr7yCocOHeBXf/V/4fKly7z44ousrKxw77338mv/4tfouo6vffVr3HLzzWxuzlGU5WLJzs424pvVfG5NM80wFUQ6F7Sbcf78ee6//zOcOmWa4Kurqxy56jDvf/+7ue/ej3Prrbdyz4/cw852jyRhNus4e+YlvvboV5nPV3juuRfY3Fzn5MkTIy7nKqA5Z9bX13nl7Dkeffhr7Fze4ad++qe5+313U/rSIANp3JUfMg/p+zA6VXPnowwi0s9E2EJpTGgB2xWTFayWSYq6DtW/m9q7MsNTPTRJeA0Hwqjpg4OSkgTJgg4uBZu75ml0XqtmvckArJasRrYL9yKqcWvwlLRdg4mzGz9qFFyPvHzr6qH2d+ElWWlIgMlqTGtGUK/6fakDOJI6Ot9BrfW4OvdKWFlZ8Uyi94Er5rGZF+RYjntFw1D8PBZu5ugLV0x43oD75Oeu1EL7vtbew0Ir35nl6BpjvJ2WAexcVK9LDViv/o5Stm4mjZyZk3d38VKWaHxQi/W3c08plc64QxEq7ixZX1/n1PWnAPgL/8lf4Kabb+JX/9Gvcs0113DgwH6W/UAplUOHDvMjP3IPABsbm62F+XPPPg8Cm5v72NraJDhUqkrXdTYnvbj2wMGDrK2v89AXH+LLDz/C1tZBfvqnf4qP/87Hefqp0xw8dIAPfvAevvDgA1y8eIH1tXV2dnboZpawEREuXLzIE48/wde++lXOnzvH4SNH+B//wd+f2J4AdH0uXzFIb/vIP/fBmz4GuXVwzd0MXOMoQi1UySm5AqNlrapjKpHKz12yTJyqZ8NGXWpRGtu6lJ5hWFCrhYc4XlVd/TG0coZaHWfBqQG0At/owDEM5jnVSTpfWkjlnSKSUJwRHdhVRUfguPTeXGBkSIsbstks00WI4gZmCnxbbV9uRaniYvzSwGzd5XW0rAV2TdYKKgyyh0Ap0aXQrHE8qzoGh53fmAeRbRtFrrKICeXN5k20ztHutnRExcpuJNQUjEyamNAkxDagF168wMEjh+ikkEoxvMoNU3V5XRzpSylz7vwrHLv9Hm69691toymDhaBlKJw4eYKPfOQjPPPMMzz88CNsbW7SpcxQBvbvNwpAbAjPP/88OXc8//wLbF++xNr6GvP5jLW1dQ4fPszq6ioHDhwwQbbU8fLLZ9jc2OADH/gAZ86+zLLf5oknHufgwS1uvfVG3vWuO7h48RWuu+4ky35gsdjh6quu5vy58zzzzDN86Ytf4vOf+zynT5/mlQsXOX7yOP/sn/9z3vu+u6lDbTI70zKNKwbpbRh7HmH+sx+8+WMa+WbnlkTZhhD8IevOEFwXRZynOKbl7dhejCqTDhkioNYGyEKYkZfUsnYSVfPSvAATRQsWcxgj21EDR4pjpDBYcSGxAD28Uzdq4UmVKBcBk+xV+5xx3qJcxv7OquG1GTLPWQHauD0Nzp6ojhhmJkQ3VDTY8HYf1XGpVqmmjAYEbR5pCMklbwllWbWQg7DnGwnLaCyg7ZCOe/i9TqvbdsnPtv+a+xjA9ekXzrPvwBZzHZBiMscjdmLGL+UOFWvYef6Vixy7/R5uufNd3vAgt/eaUqIMhbW1NT784x9mY2OD++69DwXW19fZWew0vtGZM2cZBuubduzYMV546QVUlYMHDzMMPRsbm2xsrNP3PV3XceyoZddeeulFHnzoIY4cPsThQ/bvyZMn2Le5D4CHHnyI1dVVbnzHO/iN3/gNUkocPHyEV165wLnz5zlw4AC33XE7P/8LP8//+k/+MXfceQdlOVgiQbEqBdc7/8NVJPIHOPY8xi7lmU1m3BtpQKwbDAFRW1SdGGYxRLgCJswPMPEcbDVPMqQSbYbE668sU6StPbcREKsGYGpfG8poGAVIacbMNYVqc5/dM7IM9e77c6tkAPP4+ZlkwEITSS5dEuGcllHRUAUtat1TumyAs1u7JNn7myjRtLCU4ARhpSuegRSMmhA7rDDqDib3RgyoHkXZo+q/emgpkl3gLbhN7i05sFxxQ6LmuaQkljXFFBSq64HjqW7zskavK+fZLlA+yRJmM/J8nYTJnqif2PTUq9UEYtlBoZIY3F9iV9ugmBc5ZyvKrcqf/jN/mttuv43/+X/6FZ565hmOHr3aKgacGlEcAjh08FB7fhYqZe+bBqurq5RSePGlF/jCF77AYrHDBz5wN+fPnWNr/xb79m2x2NmBnOlSx7ve+W6+8MADPPyVR/jlX/7P+Plf+HnuuedHQeCVcxfoh54DBw+0YvJmjKDRPww+EiZtQ66Mt3F0qZv7bmw1UYrzXzxD1RYD2C6Rk2VgfNe38hCaBEP1lybutXiUBDP3RnySGmYTrOvg1rTAwv6XlCRdW8DuRgB72KNuRMXPFT6MEba9dgvz7lLuWjgFxkpPgoc4FVUhOavaROQM4ynVxdfQAKEcG5O22Ezq1z2u8GZCoiVL85qUBOp1Om4wESG7kR+xKdwAumYTFTx5ENZeIqo1W+Weqx0nN9pBaEK5YF48KN97LCM5YiLiz7frMvP5jBWBrs6txTqVmgYzbk7lyCipFlIUEBPPfXqhjKGrCMNy4JZbbuEf/uo/4p/843/CvZ/4BAcOHqIvhf0HDnLp0jbDMPDo17/G5uYm1xw/blQHKvP5jDIMPProozz55Gm29u/n1ptv4fCRwzz11FPM5nPW1zcAWFld4ZlnnuXZZ59la2uLv/RX/gr/8Z/7c1x//fV2nbVCha0D5kVRYVj2JLFw3HzfRNQVth3mijH6noyuqguwS2U5RLEkzd1QhRJuumCFmG1zcCwEPDyLBeDGwg2TgBmHXJv/ZQsitXBIiJAkQg+f2J7RMMdLGeeEG0WJECsWWfOZbFmGw+aGKrqOxoJPGh6IeP2btNtTyXa/WSBlhOiaKyS1jipxnsCRjJE9KkEi2cs+JgA4gqTO78szac0o42FYqB1A0tgApq9O3T5LC1GLanvm+P1GbZ69ktQwuMgwqUb2csRHwlFWN1aDmIGt4kmKmV2fidfYtafZjNStgVrWzzqwlLjSVw0R6Bc9s9zxN/7Lv8GJY9fwv/8f/4yrrr4KrZWjx47x8ssvsW/fBl03Y3V1hWEY6LqOZ555hkceeYSNzQ3e9773s3//flISnnvueXZ2djh16hR93/PNbz7Oy2fOcPvtd/Bf//Iv8dGP/ixrnuof+r6FxPa8C6r2TMyDFyP1xvuBK17R92F0LsuDNAE0W/i1lvHRh4fkQ3UMPyx0c0lYQCaEQKABzkCb7FXV9IaiGNS7bSYs26YSbGdGMLpZMjtWywrhYZu0v7Lv4iGNf0fcy7b2WzrxniZiX4mRThBhrIt1hCGxEwqpajROGeVvoaXcwzDGMww9okp4e+7sTRQ3A0NT1HTCvdZP/Xqi1rAdEzc6TgpNeIiYLLhJlZZkCNImyQBs3PhYE8rUdL7jzVVVNHXM56ukbOU+GTs2JVQC7P1XVVZmHfNulZW5kRbz2u4581pj+omf+hN/gn/xf/4aEcrPZh0nTpygy4nlcunda2e89NJLfP3rX+e973kPR48eZbFc0vdWf3b27FluvPFGLl++zFcefpif/Mgf4+f/4l/k7ve/vz2wYdl7DVuHKVWEi5la+BwPWKYF01fG92V0qj2KlQvUoQfVFkOPoU2ZZBl8IVir0KYbNPS9H9IWUmhvW8V6sKgDkK1j9AXeHFFRKainscM4NpmQUJR0PaKGSbTQI8KNMEhq3gNhXADFyZujwZyYDIdopNm/xjcRWtmHERsVVzUycD1JC5Ukd23BxzxWN0ThDVWwcMfF3Oz6CipCl7N5bX51hpexqwNqC/VQ/6xnBp14GhGFinO6crN744NIiZosTETE5IUxmkFVRbqOfrng6WefYd5JCxXtnIXpGlVV1rJy9sI2T3/rCb7w2fsZFstRPsTp9bUWNA3UmpjJirVn14J0mW8+/k0Wi21SPuRUBjNKgKtnGgfu9Olvsba6ylVXX82Fixe9O0viqWef45pjx1iZz/nkJz7BL/7SL/I3/9bftu/3Bj/kbEC8tuueQNOTEHjqBY1mWnZ/EK5gSd+D0RUFsTQW0jIvYpNUMZzIFRTDUIgYmSybu+GtqSNssbDHGjKKV5Srt0L2QltMoRG8NXUJ1vUYPoS733kWrVYrl6hq5bpZ7LjmoUmTFqm+wHKODp6AunEUM2LFuT5dTnZfDcRWBkwSpaKgQwtl8OuauGH2mVJcOyk+EmaLZtgsvT9pZhBhqnhOT2iEUNxjsVNo82T8cIGOsXuBTDaKZmLtWHHOPMGNVK0MqLjXZX3MHNAuJoqXVLnthsNc3l4grg1Vi5j3TB29CPfqFrVy8MhBznztk/y7r3y8bWaWebWwtpTKfNZx7sI2Z3fg1JENhn7BynzGN589S5YjTPYKHn30axw5chVbW1uttKXLRq5VVVZXV9ne3ub8+fNsbm6ytr7G9s4O29vbvPvd72EYBmrfM5uvmPluWlN7TMhew9LAUx0fccTFrzmuGKW3a3TLnQtkya5LZC+gVBqonXOm1OwaSGI8lq5zbecBJdHlyBkBWjzT49wflVZEulx67ZYoyyFCDe+/5kBTP9jEy5KMpZ0mIvwyehTiGbDIGg1qKWNJyQThalyPUD3jk5KY3KtL35ahIE4mNBC+22WAlMgEOr6iBgxP8ZfmuGgYi92eUQkgP42Ft9kr8quOLbIbZULZVQdn4poRysVxYyefnN+veIqdhdFMJPrSU8uyYUqVRCW5xo/QBW/Jb6bWgUMHNjh8oDPvynEupVJkDKENsxpxK+tKPGtrOBZ2ZKdWZM7La5mnLgs3n9xPv32ZlZRJtfLCmVXKMDCfz/nKV75MSon9+7fY2Vkwn1v77m42ox96vvSlL3H+/Hl+/Mc/zOOPf4MbbrgBVSuE3dq/xbXXXedMf20OtEzaX+8ar/Vn3fOXYbCm+8Eeb+rKeOuj02EHTR1DyZOFZNmSUgpCRzdbpZuZkH718gRcHVFEnQVt36vRhy2FqqQDvClo+sbBUS0OxyTrHpQzedaZjnfxQlIR+r6n7ytZLDwSBxx75/MkV5pUsfZBXe5M8MSzRsHYtkVmBqBLHYrjZA4Mixe1kgpVBavh00laHiR5Nkoiu2jeWXS+sAUdbB+TdxWMuKjVQfOcvSPtaOys3VFqSgnEAnf3St2LtWes/o7iXY2p+jCQxua25zd4WYS6gmUsouB7xajuocaKUxXKsidLpdQgdbrmuV+NVnXMymgDYO/AzKiJzyXJDcsTQLvK5cXA5UuVV145z3JnyebajKdeOEPNW43Nvn//fi5evNg87wDoL1y4yNGjRzl69Cr+9b/+f1GFfd42G2Bne5vV1TWuPna0bS6GdX2n8Ep2/9yMzQQSkDp6TYxz5NXfvzLe7OishbMwDKOEafU6sm7mZQ1qUGyk6iEZsY9RCzrClBSV9mJMaU0mW6LA3MOGoVh7arxYV5I1jDNsMTm4bRc4m80ARaL4tRZ67/IqIqYJ7ezlUgXqwMypAlWShS3JKvdT6pjNcpPoiHlKYC8JRIxN3ugEbixEciDTSMh8qKWErd4vJnv1zxvnqgz2fFLKpC63UhGy0vdBRwDL4Il7lpE0wHSjcMOTpqFgaCqZT2SLRn2BKOrFyhHI5ZxJXZA0MY8tGOGIh62C6tCMngBaTRJXI3spVvuffD2a8Zu1CSWzbHZVlZyE2UQ21zneVIGiJkEc7aAuLyu6brWL/dBz7Ng19IPV+OU8NloYhkLfD+zbt8VP/uRP8OlPf4rbbrud+dykYi5cvMCBAwc4cvhIgyDelCOzCzYaPdHmZNXYDHRi7N7Mia6M6egMWxHIk91EElUsfWuYh+kjBQIkOVuhaOldN6YDLa31S2hzVxETzbffehFsQh0LMkKiMOs6WttpVazEpDgfykK/7J6GSZ6sIKwTErCCc4R0DFmqC60VNVG3Ls8M26q1dcwAmjSuhTkFpW/qkQBSE103b2FjNBGo7v00j8XlU0Syh7ombCdp1tx8BeuskVK7Vvut1+Br3LcRLMfM15j2Tx42qATh04aouHcR1ei7F0YpA9Xr3EC9UUMhmgJYOOqX47hQrQNl6Cmu051aa28Fx5ysz9xIJTA+VrSZGlj2C3+HBVLHMAj9ojCbrbG5scaO9KzMYX19k5X5Cl1nBnsYBtbX1qjVDJCIMAwDa6urzFfmLBYLDhw4wLFj17BcLpontb29zS233mqG3xsGvDUTYd9umkOTsE/aD1M8702OXQaQH1q71qVujRAU03h5nbUedlFBA5tTojrD2Vr1WLiVO3tyVZMxdh077Tqrqi/TcgbvwqFRaCvWPkm8IFOHZWsPVOtAFaynWGc4UFGlXyrIQCkLMxwiJApodA9JXkohVo0uiTQzIzH0pWE2UVumjACz8aBmzLIZICseVmr1XZ8RsCmD4ypebgKJWbdiBryGUWHEv8D5OdaMoJERFapUM4ZqomA5+zEQpELKHTgVoroKZKyICFVySiBdk77tOs9QlWjwaZ+rrgbA0qVcxHg36pnCLplQn7huk8m6zIji6DIM5r0KjeiavNbOJDwCHxvQWgzz8zIiSYnZbEY376G3d1Td6yy18MqFVzh79gWuPXGS2MamNXyLxYLt7W021jdYcaO0vX0ZEeHCKxc4fPgwOzsLjh095s+qeofiEXN7wyt9VwQnLWQc8e74TRz2LVqR2Jtkz88/ZKPr1vZ7q+kAZXEX1CdWKUQ5Ax4CmfSsIpK9S0Um5RmQKLVvrX2E1DqitvbbCJ0YplF6a45YSjX/v1tr4V1W46lk70FmuR2fWdWbACQhWOQtUwZoWXp75YyI1YLNunkLzcLwiohlyeqoSOC3aJO5q/YcfGZkSR6eOkEyKAnZpUa81IVUyQ4em9SJF9GmUcUg4YtNwfSWoJFIVU0+RR34lyhfUESiAYBhduqibBFaByepDHUEzMXCRUpPyjM066hRlczrFMR6trnxqCjkzusEjbfjcqIU7zJj15wxiV47V+hSzQSGsmPiA1hDSws7Q20yGjJkynLJhUsX2dx3iAuLBQw7pnc1m9Nlq8Y/eOgIzz77PDuLJS++8CKXLl0gCRw6dJj9+/fz9Ue/zosvvchiseDUqVPNexFNLfz/rlZ4Mwg6AbInri6AhIb62+DaXPGQAOiqZ5bSriegTVs6z+bNXS1DqBJa+CTedUKq0IlhLdWBPuMPFdfXj6yRL9IKqJAlMaiLouUOyXMEyJM6rJD5GBiaZ5A89At33OyctiYDIpn5yty9NQGx5oe2E2tEJT6VOieMO3fJxbeSL9LUmeCZVe1bmyIhu1307iluNCQ7aB74FCMILQKduIH0664euqrWxv2K8hvc0wnPJjhRQvUGnd5nTRlB7ZAnEegHw6RSzi7VUamDYWMJ8VIWO3hOGSlKSpXcWQay9yLoUtWybHnkoYm6oiiejEjWeMDgFMMYQdE+U9ixmZXwMprxfqITcc4dqyurPPbC0zxz+mU+98WHAeHGG25CRDl16jpWVtYpw8Da6hrL5UDXLbn/M/ezurrKtdee5NixY/R9z/b2ZW688UZ3iaQ9Q3lTQNL4nYjKRCrUBKk6foSD23XX59/UuGKU6OrOuXF1+hNo2IxAiUUfC0Xbu6aoMtTiRZ0rhmNUfBJ440ddMqCQE6kGOGkpeKSSu3j2AxIZIUDTzLNX1TNuQUw0IzW4VO5okdQXuReR4h6CdK6vHaqVM/eQ3NMITe+oQVNGaRRJlEFaZ5JGAUiVrGIlE67iSLS4LsVCLKWVHQTrXFKl1G0nU9oC9+KLVjxqJSzWSlxIqBjAHQYd1yxKXWo8sQi9wqhKzszzzFFnoS8FwbCwoCZUD9PB3mOX7X0s6+AeoYVtXYK+VEpNTbkgqRttzHD2dWHenAIyax5dcsM+9ANF8TZLkFJpEsQrq5lzw5yPP/gNzpVNbr7pndx28CCqAzecuo5/9a9+jS99+RE+8pGfpOs6lmXJT97zAb7x2KPccsvNbG7u48iRIzz//POcP3eOUgonT55s2Ueb0DG132zIxiRks3ct/t6E3Wvnynhro6MWY9JaQZp5qBOtnQjjxncaLGiQZC2ti1aWywVZMjM1ukBRW6C1DpScoMtk7ZCaG+9IvTkjEsRMT/EakAVktzcWUDbb40TOdo1mMT2EMB2n2q67INkWmSRBkjGik9WJEJydihWjJo0zWYNKrYUB78eV8UnpmboamS8D/auLqJVhOW50SuvyCp0ZYq1N38soB5kAyEspVllfFlQJnSdxHSKh0lnnFbO+Bi4nM5qDe1zJjUciUZYD1Zs+9sOSLncucwskI4Eul0uKOFnVvR/rnRfoWDajW6HLmZxq27QstM9j8XNdNGKnyIBKQp1oqmpe9jAMlGLY3yVW+Ke/9QCb17yHP/reu3n57DnOnT/PfJa5eGnBT/3UR/nU73+S3//Upzl16qRJiQhsbGywf2s/hw4f5qqrjnD06NW8+MKLfPZzn+Pc+XOELpajBG2uvOGxx1sZhfTVPCRrkuUvEd5ylk1e5+cfstGtbl5lPyVxXonQibdfbpyXcdIr1hnDviKe3HKDoZZqF1E6+6LXotURD1FaFi6ARgmjgtAFbuWeWPMMknkZplZYbXf2SWKhWgC3SvQtG0MeGT28wcBj14WEtvhwjyeKdSvFC2WTiIHrk5Iaor03yjQsC1CfuPYAP1N2HpVlz6hKcas0CsA5Yx2b39aHzev+GtfIjLFduyBV3PNLLYxSEQb3LPFGCoO7tUOxz5u2uNJE9DAaQK3WeFGpdFF4qiMpcxAvFyJCUjf0/k9tADdAbV6YgfICuaMg9FpZX93k//53D3GpbvAzH/owDzzwWV48+zI33HCK5XKbp576Fpub+/jxD/8xfuu3/h++/OUv8/73f4DlcsnWgS3WN9YAo5HUAseuuYadnW3+zt/5O/zWv/m3jNpN7PaY3sh4XQMx9Yjy5O/fohW5Eq4B0EVqP0DSXRIgDcz2sC2KXj2DUbQ5rXhbRYp07Z0FFwfNnqY2w0VuKINN1MCWfFHWKS6iNQ5mxbY4qU9SC9mqTOrTPJsThZ9RmhEhRQ4j2nCyWNxGJUoElcD3wACaZayMN4C+ImJqiIEjRf/3oBwEeAvietvVgXgDkMXVEcVDguZZAFKr9VWTjKauGYRE72GrItIhsxnRUXg0G2Y0U1bAvht0jni/eaQOeVmG85KSmjiey67YRmJs+qBqjGexe8zRiFLjGiZ4YciwAGhiNc/ods6haZuXLix44OvPc/dP/lm++NCDLPsF77zrdh5//DHW1te5/vp38PSTz7JvfYsbb7qJz37ueUIiWCvM5iuWCSxWUnLhwgXW1ta47977+Mz99/PBD32IYTlYxrf51291pU8MUhzu7TBI08t7uy71B3HsNbx7RleqF8XquNOr9O7qOk5CpYRwP8kWQoREzZMK6ZLqIZQZkNKOI97x1rAZcDmddoUm+BVdQxyuaq2RzE3W5n4UGb038IJccPqCG6XpnYpdO2p8KBvOkG4YWmoGJ8B7o0cFmOtGOjmgq4pmbRIm8ZAlm/6QqVIqJGtvhJewKK5VpFHvFQxwN4pSGdTCXqMg5GZQixuv1iotRYMCmTzL0SDUMrjuuHuxfu/RUtyenVqILWHsxYHzMhYvC96cyigTLZ3gXWmSBJnV5i9CIbgAAB4CSURBVEJsWsERsKjGrjWnTEI4/dwZLtY5Q79ApXL06FV8/dGvk7uOs2fOceTIOZSe5194mquuPkLOHdvbl1HgsceeZLHc4ZZbTjHrzPvc2dkhp0w/9Nx3773c86M/2jKS03t/ayNi8Ok7j40H3pIV+WHwkr5DaNrhxMhMdv0XMyLmDcVcDK+oYAYpwiFt3orJOHjo1MiGo7IjCJ0zu8fKc++yajGH60yrd+dYYp0mrJgy4vhIwU8r9oM0WN1gVSpSJx1h/R7aWo3QLoyUG5yqBuLb1SaqtwnKKbW/l6nhmjxIrQPaquBtkapOJIGDPiC770OSequlMeQUtQxOFuMjqRcGx3Owj7kYXsHF9iOt7hQLLHtl6gLqrPIyUXCwriMAs7l1HbYgznSBqJbRC59NwX/nzzPiUwkDJJTetdG9xCSJkJl41Sr0XUepA1mUl196kc2tqxGFF19+kcXiEoLy4R/7cWYrMy5fPseF8xfISVhbs0aeO9s7PP300xw7dpJhWPLEt77F7bfdClW4fOkStVZW5nNePvPya6yGt9lDmvzqbbEe32Gx/qEY38lDSvO5SbGq1VIZWC27JFbFiXu1FpcZLR4aYQB1zgiZUobG4IWxpsqMBN4uyY5fGYtVK9PvmSckYmUWFjK5wanenwxBJ0QFN1GxxB3LiaDL793R5ZFxFR5KZNDU17t6cwBLzyc3q7iHZxukgdKC9VGzhgbhJQZmkpsygrqRH8PYUJO060hoSyRUVapoy2iZLIl7SCIt/dw2iyTOfAeolGVpBke7FWfGF4ZSyAm/ptTec62FUpZIsGAxMiqqIxY0VJeUse2pSGOsYSTKzgx2cKF8MzOMaVSRrKqkUliUBbUU1ueZncvnSXRsbB5gc2uDvpzhW6ef4PwrrzDrMrlbYWdnB6qgA6yurLJ/3yZPPPENai1cc81Rb+3esbNYkLuOxWLJynzFL1BfvRCujB/Y0WXxMhB1fWaJjEiduOYuI5sKyABiZDrT/UmhemahTPOcbLJGGYeoQl2CuDCbZ50MFPZKcx1oe3DL1LSqrTFcJ4xgLMwAl33B+30Yw1gc5wmgOzZ2L7oNMFzNW0EqDhH5PQeQHXVR4mEjRGbPMJRIm3mIl7rRILmHMg73JInQVF0CpMZh2zWNd4wb0DhCXP7u47Zn5sZrKGaMah2aUZ02VLDaPcPD4l6bcXGXUKhWajKhCrTqfoQso16U1Z1V19nGwX8lRHRzJ+TcUWvl1NVX0ZVnWJmvoDWxf+sgIsKXv/wlLly4yB133IGqcvDQQc6ff4VSCpsb6+zf3ODoVYeRnDl06CDD0JMzXL50mVrsGdx5550jDumbzCgsOL7Ctx7F6Z6Qjcmfv8uD/zB4SN8pZKv9DgMJxTpbgLXVrlobi1dDqlUNBxCU2g+oCEWXY5YJm6jmyTiwm7JpU+OGIOd2NebQV/d44vNileOSm+gZjmNJ8D8iRMRBda1ojYVi9xJ4SIsxYk9vD8F+qNXaH6HixadDM1pVW+LYcJLdUBGlGTgP4HwSGj6Tx8WLgektg+aeWHVAPUTYVFzH20NY03fy/JV7HXE5rfTFr9cW2twyY/jxFaQT5rO5P6N+9MSqAdRdXrHPhQQv1hAAlzxJRI1hATEeWfL3bM7seI/i987UaGVrVpByRlXocmImS6oOnDx5hJObmadOf5N33nYnn/v8/Zw4cYzbbrmDoV/Szebs7GxzYN9BPvH5z7G5ucqJ40dZ9oWrjx2jlErfmxBc3y95+eWX2d65zMmT1/LHfvqnLWxMI6XCrktbFhQdDdOr1s0btlSTEC6O+2ZDuB8GDOk7hWwZvKNrTxRYeotE4/PUQqpe7S+dFVIudxiGntR5V5KcWoYIMWDWEjSVQRh3ZLLLfXgro11pU8vwVVXbVYUJeDjOnsjMkbrmXRi2MeomDY0R7PXuAdiCi4tF220B7RBDob2uamR/i5c3AK3VUmBZcTxi92WkGkh4nAojp8tudMTi3JMJLpRYmYyQyOJKmHg5CxECy8S4mjKAqQxEKYk0ffPA6SuWCQx6hnpNXtTZJcnMckYRzw52dAkzShpa4Jkgj8oEJCZ+WyKh4e8sPDTEmfEVLQubX3kOtTZ87KP33Mb/9puf5NoTx7nj9tv46qNfQ7Jwyy03M/RLTpw4zsNf+TLPPHWad9x4PVtbW1y6uM1XHv4Kt9xyKykl1tc2eOSRhzl//hXOnD3Lxz72dzl85Aj9YmlM+4kh37UwJiNC5FHG5XUs1bcbbfN7C+PVDu8fvjG5L9ljdbt57hhkIEtyCdfkcqbOplYHdVP0rwdmM7qZGYQRJ4ozVXLXWZtsMQbyUHrPwgj44qjVpERELDyqqt73SlEpFlK5wdm14aiHc2lM9ScPoxbDwkIzd0Omej+2+yuqBcWKPjUlUAfNBc9GTbrjpmT1a46NGIXHXHQjMYY3JQ1TigLfKiHdErVb4/XKhPsEIKnz6vRK1SXDpJA2p1mr77MlHtgXIGpOi6rX8g3Gd8JDlVr99wo5ZFSSH8d0rZZlYRSBaBGTZyZ5omoKBi7zEg0ZzIglV4Cwe8oeHtomlFrYbh6hF04zWOauDsiwzXpeQeucO248yZ//4wO//snf4B133cOdd7+XS9uXWd+/H6kDv/ep+3j8kS/yI++8nl/663+Lf/Obv8HqPHPowAHWV60w/JGHH+aRR77K9qVt/tZ/87f5z/+LvwrAbGX+xtdImSZqvhvXZCwlaZtn+3P6Tl++MvaMblkGSq0mNdvSt0Z+1Bq7eDbw03lKQRBszrqYPKiFVpZqLlQX55ox66xHe79c0nWde1Mj/0ZRd+lHDCRJLL8GnzIG/84PkuBA2a8N10qQXOBtquvd8JGEpI6hD62dAJ6FKqWl0hJQBn824p6ThIE076S4BAkiuzEnt89ND7ydO4ykxwreQy16trVUeVSkYmUs1ev9rF32MAn7BKld22UkYZIwOtFrEnuvRg5X52+5dG/t2zUOHoKLllZjVms1SkPKlvCwHcI0jWIuuHcboWp1QxreYsrZNiIRkqp1zU3CmbPnOP1coix3OHb1IX787lv4zd/9bdLqlrfjLmwveoZ+wT3vvIGbrznCbTffhP7Mz/APf+XvM1+Z89STpzl77ixnz54h5Rm/+Mu/xC/8p7/AV770JRNc8nlTwRKfGvNtnLtVC4cPHeLEiWubhMp37x05gh/aSPHnP7Quzts39npI8s//2z+vy6KtT3t4ErsB0o5aihkpDyNwj8Yq77WVgyR/F4NWRDJdt0JKwtAvLdOTrVW06liNHqDulFgY/SIDmCTaNalPKNdvCuY2k8+alxSZqtEwRKiTnGps4UuyLqu5swqasgSc/lCLUZciJEmhbhl1XSOwWylEc+lQQNA6DdfMoITBEd9Nzfvp2q5s1ftOUBUw/y+CQwVXfgyDFIZ5BLdjwWljsFvL786S+M1zUbQuqW7IBcP3VIxIWWqPlmKert0VgMt5VPdwnbUfHKpkfe/Uz5PcK9NaqdqbphWwBB576nmWC5OgqbVnZTVRhsqi90Jjd4tzSsznc/plpZLZt2+LYbng4isXPMzNzGYdkpSNzX08/vhpNtZX2NhYs+xmP0Cpjuu5yoHaPMop8/L2ghve/1P8zf/uf7DGkCl6sQl71srrDLWymmTRgU0Y4U2B2tOjTsLH72ZMv/P28K6+t0PynpBN0oxZ8hZ/AWKCbbfNKPl/yohrtCyMmviWeVPJCYWJbtaZ1EXs/Fqbp1CKyWTkjtG1F+caux53bZKrMv5dAw4VKWOIh478GNVK0Sg9KQ2/GnEBU4+cdR1VYOijup7mJWopLXsWAG9TWvQRGT1lkjGLvddDOPUwDlGLeGS8110vJcJZz2LZfUUY0YJW9wT9uxpeWNl9HIL24FIqasbELr+6kTLy5ajTNDi+p2hydUnJREVgO2bLztn7KM7cxjeYuKbwam0zsCYKpptlG0gW5Y5TV/l1maxJ1QVgc0ZEPGlVvZwmugAnr/Wb06UDDZ+z0LQnUemuWufgoX1s7V8zLahSoZQGtqtWI7iKKRWcudizXF+19ztpwfXtgNfdQ0cXffqFN4NB7T3yNBX4nY7nn3kVP+8HfLwKQ5p1cwYVslfXA9Y+h3EBGkFOIGVUBxIDDZ7RZDuhhHHxnVTMyyEnVIvJ4bqngQjdLDeAt+n7iGWGkIQaCuufj4Jb96YcCwngwhaJ+ycqIMUb/9lii++JWDEpKVE0JGPVyzlqE5OTzjJ8SStd0uZ9F8XDJqWKkxk9/IpOte05TPWZ0GZgxQt0rbxPPUwwpUmrn69NlMwMuScWGgXDX6OMSp7hbQXhVMJzStm68Kp15cXJm6VqC7HtGadm+KN7b61KFhP4N8VIk5mxdztKpUBCcoTYxmFqGlWqxtnKVguoxdQQVJW+B5FqoLu//8pAmnQrHtn/Qj+YtG7OGU3KohYzLnUwQ1iF1ZVVBu3Y2emZdSZ3m3PHULzY2TeCnGf0yyWz+Zw0XKQutv1swWh3oxoesOB43ri5+ZSY4G/2XuK+w+OP5/SWvZU38v3/ADyi7zS6y5fP0A9LW0DqVjZhnBwdt4mcrOK7qjOhBTrP5pQIRXy0DrSoZeCSOeu1FIbqeEg3Q7pZE24zb8PwhVk3I3W2wHMKaqIzwgWoCVErAC5SrZ+bVJMCMXIUIiMnaurCZjGFROulJuQcYWBtukbgoPLQY2xyMzQmskYrkA3Vx/CMwo9RRnmQ8G9amUwSEzcQF5yrSq49dRgoKduicKwpZfOUcnIPKoZi5FWViJZo2YGQwS0KUpAyIDLzazMjmbMZN2sVbka8FckqaAvD3AOsRgXI2Tu6Ep7nyIuyhhDiRcT2y1jAy37ZvGt77nbfoNaW3W/NGg+MFIeG80SrqloRZggd2SsCallSS6VqYnCgvhZY7NhGNfQDM29jXosZKPxYOhQvpnavT+1579oLJ0D3tNjcX8Pk9+P7scqGqaf41jyVNxL8vbUA8Q9uvMpDWly4gKaC1iWxv4a0QsilZmBQvN4pURyXyUnG3mw14vRxBNYQ4LPho2asBsAZki3E8JQRQ9eRZ/PGbgYzSI06IKEj5IYmAoXwcLJ1cFUAEVcPsMVQqrYqdqu3s2xYKYMztAM8x59DuPrKUHsicgs1nAgZmUzYnDPdpHrVzJ2HPuEkqneCFRAKQ19gNjdN6WHwjJuZ4ulxW6ukiRkccTYvhvW/L9Wq4HOu5JwZytLDM7uzIGLOZpbJK4uBOgyWBVW15+g4YS0D1WV9AX+G5oVM73/WzciSTTFAK8OwZD6f03Udfd97x5U62c2D2jCGt6UsrTkCHV038aRrJYU2+uKyebfd3CGEhAwzdNhmbe0IG5srLJcDoS5qHo73F4wQP4QDw9iLZQVxkT6bQ6N3Y5CAtmvfvZSmM3/0lPA5+HYYpbfjMz9oY28espPZGisrs13xpzguVE2TAxFrIhniaZYdSi1MyQ6IRwYpwjARvB4sZFe1hcNarX9bLC4LxW1x176nDC7OIdIWXqXa7h0v16/HhWlpLaNjwmiYDnUDmt0JjFcnZJdaiUlk9sUmZM65geI2Ed0IJGllJOCgeWQGxTCVvlEnUjOcu+RFGuplJTSp68hDT18GSr9DCP1LkJ9wCZFmEN3QuRGy+52GdPa2c9ex1ESpA2VY2nPI2ThXXv2v2WRHBKVLmVKN0kBK9hkr/AGkFdzWRnBl4k7AYkecPhFXCENZsnR538AHo/6xlOL636ZFZRuWQikoA1Xn7tF2VmuJmhKCK1saCbZjPrcuOfHZlDpyNrBZ6kB2629z0S45d5k60a5qT1UclNbRSAZmuDcsGsMxedXvdoVprxFO7fW8/kMDpL8Xo2M+g9kaqY4JdtswJk6guzevZeX3ZiNScv511DVRCURgzByJKSuGIBt2PsHc+VKG5okERmOYr9VUGZGwtkJRA0B1vB7GSSLJN3k3NCAt26Wquy30ZPezPwrRFjzJJDvnH7MsnyJlsLBV1UNMaYB3iJ2pGyOUFvImD1PDu7NmjoPjb5bihwnplJHpDQH8RiIgXog0zpdiCQScHBlqk03CJeWmp91ZpGqbSDIlzCCdVpfYzSkbabNdj4VX8byjFtEKid3zkdmEWqFU7f0ZBi0kjwvRaxUJr1SCcR/iNjhtwe8bI3oaxUOZzTP5zA6D67QblUHJwpgg8A0DBbLJN+8uv5E2F4OwGr97u0fbOCdz7rUM0RvBoN4WnOoHYHQraxtG6ssezalC6ixz4nE+7I5Rxx0g6oP89/GP41CBxYwPyn0d34HM45pyjXxkGKdgTHQ/jzpJsJVS+E4WrreOHpCkCOycT4MtSvPFI/09gFMQjPIQsiFB9Nt992GI2m6q7plNjWJkomR8XvZvFJrWycN0VybOIZYQiFcxHmOsM2vTztfJ6DExeR/xXP35iGlfV1U0uDIhFzIx+LVUujAuzehO6hqTvOp+/YVMDFKsYy+gVjMEZnRCA8oKqM3LibKkdsUISnbpF5I44D+5cfVaSn+dVXtKTRQyVb0r7wRDbOEWNHZ8mXh2498bX0oJj2U852tHXdPfx5t4vc9O39R3N95IyPcHm1WbrvE3PzqiLxeRevaD6m41xIZYSNRq+Q4+sfLi8dgIwBrmM4ZqUwMVBmSc1C3BLVaKGXtVUxsUp/hXB47blm4A51hM6ZfV3n9UoWMGQBOaLEQQMQF88e9bKEE7V4Q/quP1uz0jCn9zlhY+Tt31ccOaGh0wXGjsHjJykLy+LY3lNqPhtOtuTmsKT8G1h1R3ZXVUzYeI6wJrc0Q0UHAaQg1wOMK9PDG+yUFmB71js5FsHKTIRIlkz9olyOpeU2xw42RL4mU6zewoQSZssjW+wWhocHnoXGOR+wSx/sTi1x8QQod0M2ebz8kzP27p21uw+ZRJ2Q1rvKuYM4zGaNxgfIq+xlqTNhfGM7z+mE7KMUMX1I2Ucsuwjpm7P7jxeiHla3ticd9v7bq7OER2Fx83HG3XjP1K4+ex7gdJzdCM3m1gC+Mu6sFTrOrxFmo0RIyyjomrrG4M/KwtjIyHE56bRlaKtksLoxczqmB6iQieUfIwNLSHYjIGWB2qlcHS9o26LXb7j4Ofbh7bywsAJ67PQxADwRNjy+pXu+xV6x5h/0kTAg9Vwr6Z9zGzMM2fuRnS8RlI3Z3x8TJeqhhGp146Yw6Rjs+w/ZuaDEkQKsE6rMQplTTSPAT3kEaOFpNOL2nCjWojDFgaNw0VK02pqmipSLLecIE3FkpbKIHx4LV5qHUrTt5mSrrZ+F5UUW/v3WVBImwDK9AWaUmB6WYEo2Gajslhd73T1x57PaQ9G5KGMd9r/L4br+PtM2R7DdC3J2u+XR5SCz36iXsbYObuk4WhGqqleKOCu70UkYmsRyxeW0hjx0/Z5UnUZhSwiWXC3F757thPVZvJKKrZJTSKZ7mN6xKGx3a80Sg2L08wsJ5kXJlwy5PFZRVcIsUnpZjLX6azsIUqNmFS8uXtC1bivtysNc0oN2i2aEa7LLEta5hKMTa4h0XGok5kKqWaR9AaAhATJYisgroiQo0LbK/PPQ0cBI7NRKtb2ToGRN7dZXcYMiYl9oKuloyqzRChQi3WJSYInUj4S7XRQ2xpdoQ2U2wx2kJz+7+osYt/WmkGndML7F8J7xmAgugSLUvqUEmdaSPZFucYn0ZxseGEhZBQsX/MCNsLmyZBXmtM58R3xnFiLQ0TLyx+V5vRe/Ph13f3vb0eXkQz44a4+1qCXDyFEzxfPDn/CBt8t6OzvUAJQlxENe3kbVcc9zRzkX3ypK5dfHhUAXSnXTfmwKtOPBi11DDIqHoYInHYzou/JMFT2jKGkuoMaLv3qK8TIvybvuggQYI0EDxJfJYx3JHJAye8IL8PRrExe5EeBEw8ijC+OgV7xHcbjMXekJIIEVpY7NdfR6/Vnxa5ORTSDF7jbjG+u5gGccQGzEapjgRGFoZQHWsbSasRHrZFXgOQLiY/s8uNh8hI2QHTGG5oHC+M8PidXQbKP2BJEA83I2RtY1KT6KGyv0Uab8mzhiEkWIbiZT8ukeOcOOuYa5vbUHpCAz0yoNM5MH0/b2R8+8/q5P8DZ5re44g97TYUez2rvWM0bFND8UYuO3CzMDTj977zl0f+1fS+4K0UFXcmzgUNWg4hrpgsquRYdHHhBlCgRaxoM0Bgjac4ZkNUB3/5IYQmlo4mkdW8G9SMXNE0mRRAHSaG191tMCOlzmURNa8sPL3m8YF5FOODxkMy97WAqXBbLLo4gpCkksSZy5NM1riDTBatTvCx190Ywmj4852GumrPvtbdk7JKHr1VGZ9vu0eNOwlPIdLauz8XWSzb8V2uuMUaXmqj4ioK9l6t48noHY0hzPjnyCCOHpNpEFVnyEcI3SgPEliQgve5m3rTce/TQld7H/b9MtKe7HpSboB8zrah1aFSi92bsSZ6UKUslUEESZ0LyVm2tVaT6jWW+R4vcOK1xLOehnHfbkyXarz3qt5jMMmk+Pp1vt/mkez5/9c7Gy3k2/391x+GYzFmrCdfmoZsIlPMKz7bjjK5W9lz56/1HF5/dKbBo+652Mct+RJhiO/Hvs7UGc7hbbamh83tdj+iZXsclxHxhSXjjiqjNwVjuho1EmbV4punumvvBkNDWN8XSNtxaTtyWP0poG63ZYtPfbIxmYDN3osvNCwTM80khmGOtzGtk2tlBK0EJjSMwsSJv9DaFqjVdqWGVamqh4ATCVu1fm9NIsQfflAZBAsxEZy1PBrh1F5cLGSllD58NBr+5u9MhzBgZlDaOXdNr4nnyd4FzO7rdzpEzIWmvNm8yra3t+O+Fh8n5kkkAyZ5yWbkqpMxxTfEGnRUdRkWn3alVKgZLYky9KZcEFcYcyZwUsaNMCglr2+Mdi83fY2fI+li/wmc8fWONz3ut1vSU0/lDVihPcfevXmP3x9DUXmdz06vZ3re3Te09zl8uzvpsk+FqqN1raX3xSptMrXdVBKa8tg1tfYYezq3zTuFAUKNx1JLazkEIYEhlFg0Ic+htRmXLBCtd+I2poZx3HN8pTGJv6Hxj9RF14iF7jIUdpxEWHfFvLTAodS/M23JxGRhhaNo12/naAs7iJKRCfOwtClKpoSoF5p2nbHdscKOhKJD7yUUE73v6bnr+E4aVuXXqJLMYOfwUEflgFrGe5niQTbRTBt8agjae0l+LlcPEIFRX2pPyOqFvNMykOYRloHAFCMrOnrk4XGNMzXIoda2PZomVEMsYmNRmtxJGMgy9AwLZVmWUCsr2bvk+HXnFPI34aGOnmv1LGvzSOP54EiJ7lluk3mx1yOJxZfauw2TJq/5+W83RqppXBETw+ZH/W4OOLn88f9f6/vypj47HXufw7c1SFUHr1UaNYPsw9IenF2EE9EALUNsTeAFoRGiNVazezcJbYxjl/qfri20miRESmZB1DtbkIKbAg0ocu/HGlSOwG5z91Hri6jmEpucyZhVazte4EXxUNzbmioyCkZgpLrZlPAMnEgn2sT3pztIlJ6YlziZuoGVOb9K1A23gvouXeOFK/T9snmG0cstotR4mVUnLHAKSe35SoJaBxNDww2+GmY29EN7logYM9ofRO5yW5qlhROjNpI9uvCOdm8mgDccmIZdAMXDIgNxc86NuV91Usfoni/gZSNWnqKlUIugKaPerBSx+sn4rrG7qxsuk/9IOTHzBoDazkHzFGutJC9/qbVEGS+7dpo9w/fgkWeljMkR2fO+Y3755+PPTP78bcerLM9uQ1gn8IC0y9Y35yR9j8fe5/DtRldLb16Au8SCjCS2ietvXAkLZYpafVoSMQWA4lhTzgQIJx5L7XLj0+h5oBP3WCCkMUBcfsPzHdmNwBSjgT2TxjwksDvXahITFbEyAsm+sxppTycLQJSGG+HXMc4cxyV8JkoKGY+J18RUb8nqNq0duGd8dNy9Bbum7MeLGrscC72Flf4cMA+nDNpcfSuz8M+Ig8D+j3joUd0rDTzExNpAi3tgvoiqmtFIKY2GRyep3knoNM6sVxuj9nnFryluJTxX52pNnlUO7e/YCFXBPSjD5WxLiCcRIHS8qNCmIiXP9mKqAzkzX9nHbG2Vri7sfqudtwyFwLxScjXTYWDwdlBxPa8HTNeYFuFhh4Gbui57ZqUnjcfP+OffsN147UvZdY0ydQbqm/OUvpdj73NoU+M1LlP0zecXr4wr48q4Mt7W8ebzc1fGlXFlXBlv87hikK6MK+PK+IEZ/z9j//jgVqcJrgAAAABJRU5ErkJggg==;" vertex="1" parent="1">
          <mxGeometry x="200" y="60" width="292" height="188" as="geometry" />
        </mxCell>
        <mxCell id="BaVkGO5fWFvEpA6AnpFZ-2" value="" style="shape=image;aspect=fixed;image=data:image/png,iVBORw0KGgoAAAANSUhEUgAAAboAAACrCAYAAAAQClkPAAAABHNCSVQICAgIfAhkiAAAABl0RVh0U29mdHdhcmUAZ25vbWUtc2NyZWVuc2hvdO8Dvz4AAAAtdEVYdENyZWF0aW9uIFRpbWUARnJpIDEzIEF1ZyAyMDIxIDA1OjA0OjEzIFBNIElTVPHi0NYAACAASURBVHic7L15sCVXdeb72zunM955qHmiqlQqJENJNhKIRrQZZBuFusGPh9vhZgYTBCH58RBN+4+26HimOwJFtN1tBhtsE/F4jcMtoLvVErYEgY0AQQOWQEgqqVTzcKvueO49c2buvd8fefauPKdulaqEJlT3q6i4956TJ3Nnnsz97bXWt9YSgOGXHGEYsnnzZrTWHD58mOnpacbHx6nX68zOzpKmKVprjOk/VSEEQgi01ufsU0qJ1hopJcVikYmJCSqVCnEcMzMzQ7PZPGd/q0EIsep2lUqFyclJyuUynU6HhYUFlpeX3TEt8mMTQrB161aklBw5cgStNZ7noZS6lMu1hjWcF4L8hOABEoHBoJB9U4VEo3OfEoAEdO//4F6l+12Quj0JBAav95fJHd2OxO7Lz70vekfUgDl7NJH7mLEv2P2u4XJG/339S4yJiQnWrVvH0aNH6XQ6BEFAq9Vy75+PcOAsqQ1uE0UR09PTVKtV4jhmfn6epaWli9pnfr/2d8/zKBQKTE9P4/s+SZKwvLxMrVYjTdPz7kNKiTEGYwzVapUNGzYwNzfH/Px83zHWsIZnFz4CicGASMCAEJDd8j7nktrTEYvMbWMXZ4KMUA39RDe4n95UJVfZzB26t++LWICu4fLCS4boPM9j06ZNRFHEkSNHiOMYIbIb/2IsrzxhRFHE6OgoY2NjpGnKmTNnaDab7n0hxEVZUZYIhRB4nsfmzZspFou0Wi2WlpZoNBoopZBSOsvSjvVCY9+yZQuFQoFDhw6dlyDXsIZngrMTQkZAmTVnEOieLWXfz6y97C/F2WnEWm767MbuQzL3vv2MzO3HYjXS4yxHng8mb1W+JKa1NTxL8F/oATxbUEoxOzvLjh07GB8fZ2ZmBjg/yeXdlvan7/uMj48zNjaGMYalpSUWFxdJ09QRkoXv+yilLkiiluSMMY7EtNacPHmSJEncGOzrdlzWesu/D1AqlSiVSlQqFYwxjiAvhsjXsIZLg3VZZqRhOHsv2tcFHoYASEDoHqmJ3M8e2Ync/WldikJkr+uev7GPxDJmFKicI7NnWfYZeSYjNyEAjcCAMBhHeLBGemuAlwDR5a2mdrvN3Nwco6OjLC0t0el0Vv1M3lUJGSENDw8zNTVFFEXU63Xm5uac69MS3GC87GIJxhLp0tIS69evJwxDR3R2HHn3pIX9vVwuMz4+zvDwMEoparUatVrN7WON6NbwbOHsnaQwyB6Z9e53IXqvZ7EzYzSQ9oimRy5G5356YHKeD2NJR5618ETvdWOtO3r7o0diJmepmRxpSjA9a9AYIM1I2Z2AfVbXno01vERcl3myM8awa9cutNYcOnQIYwylUompqSlarRazs7N9bsqRkRHGx8fxfZ9Wq8Xi4iLNZvOijnexsMcLgoBt27aRpimHDx927+WtuLzrcmRkhNHRUaIoQmvN4uKiI7j8ftewhmcL/ROCQOBjbGxNaIRUCGEQCITx+rbNSMicteisW1OctcQcb7l99l4wvTddHM8gjO5xneiNwWSWI5CRqMycqprsOEYjRF509ks/ta3hWYIH3PFCD+IXQZ50fN9Ha43WmvHxcbTWtFotNm7cyOTkpLP6kiRxopCNGzfSbreZnZ1lYWGBOI6f9THa8Vn35dDQEGma0u123TlYwvJ9n1KpxKZNm5iYmEApxdLSEnNzc06VObjfNVwcrNWch7Xq15BBOmFIBoHE8yRITeBplAKjNUYbtFGY/H+tsveMPvu7NpnB1vuvjf3d5N63n7GvZZ/VxvSOo3vHsNuYbBuTYozB9yW+BIRE4ve0KPrpY3pruGzwS2/ReZ53zuTveR5btmwhiiIOHTpEpVJhw4YNCCFoNpt0Oh1GR0fpdrvMzc05UchzCTuhSinZunUrgEsREEIQhiHDw8OMjY3heR6NRoNarcby8vJzOq7LCatZ4muu335ksbB82oCHLyHVmehpqABXXTnNuqlxtE5IU0XoCQQCZZXLwsanM4+DkSKL8RkwIovxCaRzUYqeM9QeUqBBSDDZPn3fI00T/MDDKIM22bSltMfRYyd49EAWYgiEROGDkGjdRQqTjWXN6XHZQwghzC/zgz44UVl3XhRF7N69m1qtxvHjx9myZQvVapUgCEiShJmZGVZWVvpUi8/FpGfjb0opt/+JiQkmJiacKGVkZISJiQmklCwuLlKv12k2m6Rp2he/W3NTruG5xqDqUgqBZxLGKpKb3rSPm9+8mVdft4WRYUmSNBAofKkwKUgZkiYaPIH0RGZxSdkjuSz+ZoQBoZDaQ2iJEfrsMYXGoMjckD7gobUBD4RISNIU3w/QGoz2MaLEyZkO933zON+4/0ke/NFhYvzM3SpjjOnt+5d3elvDs4RfeotuNViym56eZnR0lFqtxvDwMJ7n0el0mJ2dpdFoPG9jgX4hi+/7bNu2jTAMnUVnrbfB3L88+f4yL0heTFiz4p4GNoZmIgIJWre5fs8Qf/m597J9C6Sd46h4iSBIMMSkKkXKCN+rEHc1CIHna5RugTRoIxFIhLHEpvE0iJ7i0lp6RqjsfSHQ2sOTJdIUlE6RfhchksxVKT2UlhgRIaMNaG8b9317nnf//hfoGA/hRSgd4/mQJmvpN2t4CaguL4SlpSVGR0eZmpqiVqvRbDZpNBouNvZ8iDkG0wYA0jSlXq8zNDTkCG612OCgCnMNT48LxdzyylbPy6pxrFYxZw1W/u9jjCYQgm63xfGjP8W0l5ke05R8jSDGeL08UK1ot1OeOnCUNFW8bMc0pbLAmC6+MGAkQnuZoAWNNCCFxJgsbSBzeWaKTik9fFPkxLFTnDw1y/aXbWV8ooQwbTyRIIWHkIIUwezsAjOLJ1mYLRAFkjjVCClBBqgkQQgPY9YqB13ueEkSnc0xS9OUmZkZtNbU6/VzthushvJcEt/gMc6cOcPc3Jwr+WUn4fOVJFvDhWEJLq9gHYSNwwZBQJqmq+YqXu4QSIwRCOljjIfvG+LE0OmmVIYkGzdNEXlLpJ02OpEY5ZMaQeCXWVmKOfD4GVoNmBwapxJWSNNuVuDLGKQxSJPF8PAMShg0pmfpSYygl5YuSRPBoUPznDjeQql5RsZeTpomhJ5GJAbPE6RGMTo2hgnHUD9bZCXWSM9D6RiMIPAD4jTmJeq4WsMlwBNC3PFCD+LZRH7SEkLQ6XSctbSa6i6fBP58TXbnq3qyZsFdOgYtOHv9wjAkiiKiKKJYLLpk+/HxcQBn1QdB0Pe5yx2CnjGHIfINnaTFaNHnve9+BW/+jZdRHU5RnRV0p4OXGqRSSK3xlSQyHqKrGa+GbJiqEgqVva8MqBRUgkg1JKCTGNONIU2hq/C6GhNriBXCGAICpBL4ic/LNk5T8lM808ZDIRSoVCH9An6xRGl0gqGJjTz2+HEOHmugjXKlyozL3VvD5QwhRJaBeTk96IMr+JfCiv6lcA7PFMPDw0RRBGQLlyiKCMMQKSW+7+N5nltEBEHAwYMHWVlZuWBR78sZtmiJAG58zVY++K438Nv/x3Y6rccpF1ZozJyEZpeCkehul6ywskSIEBUHCOFjRJu428aTGdkYYrRKMNpDKB9Pqp66UiG1jzQhINECUl+BCAiDKkYJosAn1ksYPyYoeCSJQHkhsfQY3rCeNCjjRVs4vRjwpS//lE//p2/RaICUAiE8lFqL013uEIC53CZJO8FVq1WAl5yE/3L4PvPnuGnTJqampojjuC8Oly8iYLdtNBrMzMy4pPs19ENAT86veN+7Xsvtt72ZTRsNjeYBAn8JT3bprLRQdY2Xeug0xeguQhpSpUgS0NpDGg+tBCpJyFSUKWjds7IEUvdKiQmD7FVJEQiUFCgPjBREhQKYlMAXGJFkxOVJhPEhCBGhT3VyCBlJ4lRCsJ5Eb+CBH6zwf/3f/x8njs0hpECrl/azsIanhz9YVeRygBCC6elpJiYmiOOYZrP5tHUrX+wYVGe+lL/PQXfl7OwsYRhSqVTc92jjr77v9xHd8vLyGsldAIZeUjdwwz/bxfZdJTqN/VSqMUZ6YAqMlEaQEwXwwmylnKbQcxUKKTF4mASEEpnVZhRCG9Cyl0Kgs3QD06txKcCWFhOej5E+GhBhgJA6I9IeUYIE6SOEhzYKGaZ00xphGKP1LHgFbnj1bqYmqxw/OocnDXpNi3LZwx8aGmJ5efklOymuBq01SimCIMAYw/j4OGfOnHmhh/ULwZKbxXNJdM/24ii/vwthtWN6nkccx5w6dYoNGzY4Kz1JEkdwNg7baDQuKq3kclz8OQhQPQvo4Yce5O1vnUDKBlq38KRHnKbgpxjaGFUHIZBeAaMiDAVSJdAmwfMVfpjgEyNMRnJCe2hBlkLQc41iejU0BQgSEDGIAqmJSPEQJkJrCESKMAnoBKE9jAhITa+3nUjx/QSjU4KgzunTx0g7bQC08jjbEmgNlyv8LVu28Pjjj7vkZHjpx+uEEKysrLC0tES1WsWS/fmKQL+YcL5JePDvvCDnufw+L5YULkRm5/v8+bbNwybidzod5ufnKRaLzjVtE/Uhi92trKy47Vc79uBCYXDsL3n0TjmT5Gukl9LprhDSRnqZpSyFwagYtECLds+S0yjlYYSPoUxKDGIRLZokaSsTkJiswaqxhZi1Qgqd5c9Z16XMLD9tIlIzgjIFgqBCHGuk18CXCcg2Rnook2JkiCLJiBRBHHcIZYdCJF0xaSn8XoPYy+D7W8N5IRcXF10w/rJ4mMnOM45jl3JgG6L+smFwwoas00G1Wu2b7J9t5F2kF5PMbscxOKbV3K35//ljPN3+fd+n2Wxy5swZV0BbKUUYhu69Vqvl9u15Hp7nrXqsSzm3lx7O3i/dbocwyMpvJXEHncaARqUxwsT4JiagizRdJCkqhUIwTilcj1Y+Ao0QKYIUSYz0Okg/RsgY6cfgtZFeExm0IeggZIzwE4TsorXCk2UK4TioAqQaKWKM3wUvRvjZfyNiFAqVgpSZh6bZXskqqkCP8C6n728Nq8E/efJk3wv2ofY87zmv//hCwhZ8th2+n65jwfON1azrfJ5f/nXf9xkZGWFoaIhqtUq32+WJJ57AGPOsfodhGD6jotf5cQhxtmnt4DlcqMv6aon3g/s3xjA/P08QBExPT7tyb77vs7Ky4lIK8gpMpdQ5qsu8NXyhvLwXE54Vq9NkdSYlGkUvyVZpPCEREoRIsyonnm064CEE+J4g1QlBIPC9ITpdEFTQyQqe8JBG4gsPpTWJTpG+ARFjjEKYEE2INj7aJFlMjxAoI+QoQgyBt4wSktQzpKisg4E2aJ0CGk+oXgcDiZEKzzdIr3dKa8niawB8OxnkkZ+MXoqwE1ir1eLEiRNuojsfub8Q7XAG3ZKDMvggCKhWq5TLZQqFAkEQuBJiY2NjlEqlZ4W87blLKYnjmBtuuIGbb76ZTqfjiCJPyoOuTM/zqNfrfPWrX+Wpp55Ca83rXvc6Xv/61xMEAVEUce+99/K9733PHQ+y7+L3fu/3eOMb38i6dev40Y9+xOc+9zmOHj163mtlj3n69GmCIGB0dBStNe12m5WVFbd/S3KWwK677jpuueUW0jSlUChw//338+1vf/uXqvyatVLt7zYObf+2rz2tizn3XyJcY9SsZqQBYxDSYCQYI9FGAinCT0l1gyTt4HljdLsVEBHCkygSsiJgEYHwMTrplXGWaFPAECKkwMgUhIdKIpQq4kdlEiORflY6LCUGmSJd3UxbaUVhjNc7t6wtkLF962xC3Roua/iDMQuLwcTrF/uDfimwE/EgsQ1O0KtZHi8E8lL5SqVCpVKhVCo5C6ter/cJLarVKuPj488K0Vkxh9aa0dFR/v2///f8+q//Okopl592IRGJJcnXve51vPOd72RlZYVPfepT3HDDDe69973vffzO7/wO999/v6toc+utt/If/+N/dPlxv/7rv87IyAgf+tCHzjnGavfn6dOn8X2foaEhzpw5475LrbUjhCRJmJqa4k/+5E+4/vrrSdMU3/f53d/9XW655RYeeugh1yT3xQ7bniqP/KLjYhdqmrN1RLJCyz3rzQjX89Rg0EJlBGV8NCnIDkKu0O7OUYiq+N4QSlcRfh1MG6UThAoQ+AgPJCaL85kCQoAWXYRMEDJAJQWQFcCj210BWQfRRRAjTYw0fjYwQ6/TeW/sxiCt+jPfDmGtMsplD39wUodzV8gvRQWanWTPJ+JY7bUXCsVikUKhwNDQkJv4bTd1mxoBZ92dnU6Hcrn8rH1nthXSvn37eM1rXuOOZ91++ZibhZX423hZuVzG93327NnDnj17MMaQJAme51EqlVi3bh2Q1QHduHEj73znOwmCgG6362Jw69evv+A47bla69M22bWEb8enlHJjXrduHRs2bEBr7QRZYRhSKpXcZ17M9751+W7YsIFf/dVfJYoiPM/jwQcf5OjRo+d9ti8Eu7WRCiFSDAohdK9hqpelARjT+91HoNC6ixeEJGqZuNOkWNxAnEAaa4ynCLw2Umi0jpGexkNgpMHoNkKkSBRGh5h0DKE2UY42IUSATucR3jKYrJSYpwMwAZqwJ2xRgEYagTYgdFZZxTgvA6yR3Br8QqFAu912D0QYhoRhSLPZfEkSXB6Dq1y72l9tdfx8wya0j4+PUyqVEELQaDSYn5+n2WwSx/Gq8VQbp8qrSX+RMeS/+2KxSBRFfUSRF5oMIu/23L9/P/Pz81x99dUuBUBKied5HD16lPvuu88db3p6muHhYWdN2uNZ9+MgBhdm9lo0m01mZmZot9t9lqfneW78g6TmeR5nzpzBxq5f6Pvg6WCv78c//nE++MEPkqYppVKJz3zmM9x222195H+p56JFJt03Is2EJaZHHpC13qFn8aOREtK0SxA2SbsLpMkwUbAJT4e0Yw/NAkEYg26TGI0SWYvXRMSkRiN0iNATGLURz9tGIRyn0TxF3J2hVG5mlpqOULqQuTdNgEIiUEgSpEnxjMIzBmlyYxV6jefWgL9p0yYOHTqEUoqxsTGmp6dJkoSTJ0/S6XResmQ3+ODbxqdBENBsNl+wailRFDExMUEURRQKBWeZrKys9JFb3tKw52FJod1uk6Ypw8PDzwrRWdfdtm3bgLPFsCGzLJeXl52KEc66gO3CodPp8M1vfhOlFNu2bXNJ3Fb1uLKy0pfHePLkSY4cOcKOHTvwPI8gCJiZmeErX/mKG5clqvz52+Pa62CModlsOkK1pJAXoFx//fUMDw/3xa9qtRqzs7N91yJv/dtzO98zYbddLd6bv0ariVzyxxl8P/+evbbGGLZt28ab3vQmisUizWYTz/MYGxsjiiJnpV4cydnInMmKemWqfbIaJjILd2mJkAYhNNDNCIYEjEQrjRfUUEaz0mlS0NsolTfiM0Q3mSfpzuL7LZRpkWiBQKGMwpgQX48QsAXPn8QLC8zVjqL0UYpBjTSuEQYeIhijq70sKd2IzJ2qOwhNRm46QWIy3ahVXYqX1ry1hmcGPwxDJiYm8H2fiYkJZ8lNT0+7wP9LjeTg3JV6EARMTExQKBRYWFh4XrqOrwbf9xkdHaXRaHD69Om+5rD5CX41FWK+uevy8jKjo6NEUeTUhpcCux+7ICiXy9x4440AbvL0fZ8HH3yQO+64o88VbGEJZn5+nkcffRSAPXv2ONeiMYYwDFlcXHREFAQBZ86c4dZbb+W9730v1WqVTqfDPffcw9///d8D/SrOwWuXpqmLH4ZhSLfbdSRmx2bPzbpSrSDLXtv9+/fTarX6YpAXcy+s5g0IggDf90mSxI0tj8EF12qEZLtbDKpS7b727t3Lnj17aLVaxHFMsVjkJz/5Sd/3fiFV61n0FlGI7DcjMTojlMxd2at0onvNgIUGrxdrUwYpQbOC77dpd1ZYWq4TxzsZGd1O4JXppmU80QXdxeisc4EWXXxZJPBH8c0EvvRYaRyllR7FBEuElQLC204tqbLU8mlTIKHXagnDSJQw6tcgOUYokqxzufEyEYo7l5fe/LWGS4M/NzfH5s2bWVlZYWZmhtnZWcrlMtu2bWNiYoK5uTngXHEKvHgI0E5IF6MqOx+63S7NZtO5bsMwpN1uPwejvTBstwWtNYuLi8D5RQWW+AatGsiqgExNTVEul1cluou5TnmLIooipqam3OtpmhIEAadPn+bBBx982vOyoo5du3a5ffq+jxCChx9+2JGTUorR0VGEEHzpS19y1+TAgQNuX5OTk+zYsYMgCGg0Guzfv584jknTlMnJSfbu3cuNN97Izp07OXbsGP/wD//Agw8+SLPZ7DvvMAyZnp52188S3ZNPPunGZ6/d1q1b2bZtm7NuDx8+zMzMjGv543meI5KXv/zljI6Ocu2117J7926mpqY4evQotVqNH/zgB3Q6HVqtFvPz8xw7dsyd19jYGNu3b6dUKtFut3niiSeo1+uOPPfs2cOWLVs4efIkjz76KNu2bWPjxo3ceOONzu1qE+Y3btzIq1/9atrtNj/96U/dGJ+OsAUqi28Z0EagE41WCULqnuwji4dhfJACgyAVQGDIOnorpFCMDgm6wRmWFhfR8SmGq1upRiMYM4IIfBARsU7RMrNAdSpoNWdprBwjTU/gjwdEG7Zysi558pjk8cMBh0+nzLVjVmKNNoahImypdHjrqzbwK0NtKqqOpyE1qudYXTPo1pDBX1paArJ4hnXztNttlpaWGB8fd/lHg3L3FwvJAZccbM8jH9dpNBpUKhWGhoao1+uuUsrzea5KKRYXF1m3bp1bhefjS4OS93y8DHBKw2KxiOd5TrxyPtHN+TAY97KCEmvJBUGA1prHHnvMvTaoUrUWIZxtcGrHY89VSsldd90FnC3n9Za3vIU777yTSqXiYpN/9Ed/xOc//3k8z+MP/uAP+PCHP4yUkkajwXve8x7uu+8+brnlFm677TZe9apXUSgU8P2s3eJHP/pR/vt//+/8u3/37zh06BBbtmxxxLh582Y3VtuyJ9+YF+AVr3gFf/mXf8kVV1xBHMcEQcDnP/95Pv7xjzvySNOUG2+8kbe+9a289a1vddZ0GIbufK3kv9vt0mq1OHjwIH/8x3/MN77xDbTW3HTTTfzpn/6pI7o//MM/5Atf+AKbN2/m7W9/O7//+7/P7t27+eEPf8hv/dZv8V/+y3/hn//zf+7uk3xPww996EO8//3vp16v87GPfYy//du/vSiiM5BVPzFk9Sh7TViFyEhNQibdNxJh7OLK7x03zWJ3BoyJCQJBpaJoNA7TaMwRFkYpl0aJChWE54E0qKRDo7ZCu91AiRYqUBSm1rEcbOS+7zb4x5/VOF4b5uRKAW94kq4nSb0ITwrKccw/PfJTPNli51s24zVPUUSglMa4hPEXzzy1hhcOfpIkLh5hJ1OtNQsLCwwNDbFu3TqOHTvWZ038MiTQXizy8ZB2u02n0+nrW/dCxCibzSZaa0ZGRpifn3fjyP/MwxjD8PAw1WqVSqXiLJ2ZmRkajcaq47/Yc7LbTExMsHfvXrTWjkCSJGFmZqZvP3mXqv28dbvt3LmTLVu29KV2CCFcfM4Sy8tf/nKmp6cdOZZKJa699loga8nz2te+lpGREZRSVKtVrrnmGl71qlfxiU98gnK57CygJEkQQlAoFPhX/+pfEQQBt99+O8Vi0Sk67XhsXp2trgI48rj99tu59tprSZLELSCuuOIKABcL/IM/+AM+9rGPsXHjRrTWxHGM53l0u91zUjEKhQJRFPHqV7+a97///dx7770A3HDDDUxOTtLpdJiYmGBycpKxsTG+8pWvcMMNN6CUQilFpVKhWCxy7bXXUiqV3PnaxYZSysV4R0ZG2LdvH3/7t3/rXM5Pl0dn3zYYV3cZbTJvoDEIIRFZxjj2X5Z+IDHCOgslyhjKFUGlGlJbrtFozdJe8UkXNUKm+IFAdzWlICQMPboFQTC9mycW1vNXXzvFtx8PSSu/Sjh5Be2RCBN5pCKFIECkCoGiZCocbh3h4NIKV5arRF6K5wVIaYUza6kFawDfxggGK0B0u13m5uZYv379Oeq9X3aSG0xqtuh0Oi6BPN/N4Pk+33a7TRzHjugG43L2HKIoYnR0lKGhIaSUJElCvV6nVqvRbrfPIZ08Luac8onGVp3YbreRUhKGIWmautw9a3kO7j9/T1111VXOVQiZ63Bpaakvxw0yN6GV+9tJ+4knngBgaGiIiYkJ95l2u83b3vY2rr76aoIgoN1uUywW3fWwpBNFETfddBP33HMP3/nOd1heXqZUKlEul/vSJI4fP86PfvQjICPysbExbr75ZhdTtG7bH//4x0BGdLfddht33nknnuc5BXMURX1J3Pb8LBHZa3bixAmMMVSrVa644go3jjRNueKKK/jiF7/IDTfcQLfbJUkSCoUCJ0+eZGlpyR3D5v9ZIrPEDdk9/U//9E/A2WT5C1l1NncOg3NhYnoLPpNZcxIyVaPo5bCZngUo7HctEfiAQZsERMLwKJSHBXGSECcpWnUJpUdUrFAIC6RBkeXyBn5wbJjPfPU0jy6sp7rzVTQp0JSQBhqjBMQBSgBeQNeTFAqTzDSOM9eS7KgU6KoVpCfOkrXwwKz1o7vc4dsA+qCrCmBxcZFKpcK6detotVovaOJsnpygvzZifjK9mHjd+QjMGONKXFlFoJ18n2+Z+crKChMTE5RKJVqtFpBNVOVymZGREarVqnMzNxoN6vX6OdU/zidiuFjYewOyGpr5ay6EIEkSrr32WqrVKsPDw87FHUURCwsL/M//+T9pNBr4vu+I21pcNofONkGFjDQKhQI7duxwRGXTX775zW8CGdFt376973649tprHTFGUcTx48fxPI/169eTJAlhGKK1plqt8qY3vYnvfOc7LCwssG/fPkcWkN1j8/PzHD58mGKxSJqmfPazn2V4eJg0TR3hP/nkk3zta18D4K1vfSt33HEHQghnxYVhSL1e55FHNcwi4gAAIABJREFUHmFpacmVaNuzZ4/LJ7Rjt/HNyclJpqam+kRAv/u7v9snsCmVSkgpeeihh2i1Wtx7773s3LmT6667rq949dzcHPv373e5lj/4wQ8ALu4+EGfTqyUgTS8B2xZ8NgIj6OXUZeQGKoveCeOsOwwgBL4PyiSotAvCo1wMKBUDhAZf+BBLtAlQ4RRPLq7nU//vzzjUvY7KtuuY0yCLPikqIzcFBRkQBtBVDVANPNmkGzeYq9WQmyJEF1KV5IJzPffrmlV3WcNVRslbOFbkoLVmfn6ejRs3MjY2xpkzZ14wIcr54kt2BRyGIdVqlcnJSRYWFpidnb2kMeYnmMFVb35V/lzDXt9Go8HY2BjDw8NIKSmVSoyOjro41vLyMvV63SWM51WFluStS+uZul7zIpdbbrkFwKURpGlKtVrlIx/5iCuInRfHKKX4z//5P/Nv/+2/dddyamqKMAz77rW8RaeU4sorr2R0dLRv4dJoNNw4lFIUi0W63S6+7zuRi71f77jjDu6//37Gx8f59Kc/zZVXXtnXkNUmqwO88Y1vdKpUu0BaWFjA933a7TYf+MAHuOWWW9wCz5L7pz/9aR599FGq1Srvete7HMnba3Pw4EE++clP8vWvf91ZvHv27OHrX/86e/bsIY5jd62sp6RcLjM2NuasQHt9ut0uURTh+z6HDh3ivvvu47Of/SwA//pf/2ve+MY3cv/99zurNAgC7rnnHt73vvedc18NLgpXgyQrJanISC6rNJIRmBYCdM9Kz8w6jJAIobMk7Z7GMWuoqhHInqWvCf0CiCyB3HY8MAEoo0iDIc6ojXzh7jMc7FxNsO065r2IVHYRAvygjOkqfFLSZJb20imGSx0KUQO/vcR4YY6xkgYVg9KYVLmizmuqyzUA+PbhyLuebPzExq0gU4QtLy87F86zHbe60P7y5Jo/tjGGYrHI0NCQi+lYy2FxcXHV1kMXsvIGJ4IXktRbrRadToepqSlXs3FpaYlms0m73T7H/bSadXq+9y4G+esUBIFLLbDv2ZhQpVLpy6uzxwvDkF/7tV9zk7ZSig0bNrjPWndsrVbrUwRu3LiR8fHxvrjZysqKq25y9dVXY4zpI1zP80iShNtvv53PfOYzQFYG7Wtf+xqf+MQn+s5rYmKCSqUCwIYNG/oWdkIIHnroIdI05ZprruGTn/yki+VJKSkWi3zjG9/gi1/8IgBvectbuOmmm9xCw1Zh+fjHP87XvvY1t0Dpdrvs2LHDNfq157awsMDBgwcB2LlzJ9PT0+cIq8Iw5MyZM/zN3/wNX/ziF/n5z3/uvoMwDHnnO9/pvqdisQhkeYhSSpeHeSlueG1ASAE6i89pk/Om6Myyy/4GLQTCmB65AQaEBHqVVOhZgoLMCkSDEBIpwSMiiRWEJbrRNPc9uMC3HulQ2XsDS14Z5ZMlqVNExJqwO0NYf5K9411ecWWJkUKTQDQYjUJ2jm1hZ+UoQWORwAfIPeMiX9RsDZcrfBt3sbA+f1sU10q95+fnXcxjtZjPL4oLPYCrTeLDw8OMj49TqVRIkoRTp05Rr9cRQrBz504X37oUEcZqrwdBcE7F/ueSAAetnWazSb1eJ03TZ+yCfCbIqyity9SedxzHhGHo/h5sBWQt4O9+97tuW4CNGzeeYy1//etfd3G1drvNpk2bGBkZcecbBAGHDh1icXERKSVvectb3GctwXiex6c+9Sk+85nPEAQBQ0NDtNttHnvsMTc+e13jOHYWmnUVAs6dumvXLv7sz/6Mf/kv/yVTU1NorZ1FdfDgQT7xiU8gpaRarXLLLbcQBAGdTgff95FS8vnPf57/8T/+B4VCgTRNSZLEpUyUSiVnkfu+z+nTp53w5WUve5lbcNqk9jAMOXz4MO95z3v43ve+R5qm7lrGcUypVOL666/vs6TtfWPPJ3/PXOz9aizR9dyWUgi0MdCz8LwecUkjUGgksidEyUqDGaMxIumV4fIyy04ZJB5CGJQxCG0wIiIJh3lqOeRrDx5GTr2Otj9O1yhIU1AKdErVa1FqH+Cmq7v83utGmJSzRLpGNYK03YJOl5I+jZRtIr+S5fvZKWqtTc8aAH/jxo089dRTfflYhUKBzZs3u4r4c3NzLv4Az52Fcz4Ssm4pz/MYGRlhbGzMJfmePHmSWq3mpOpaaxffsorFPC4Ua8sTWBAErFu3jnK5zNzcHIuLi8+bOMXuf2Vlpe9Yz6eFmSej6elpqtVqX4xOa+3ui/wEbCfqRqPBt7/9bSCblKempti0aZMjG0uUp06d6jvuyMiIs9CsuvPIkSNOPTo5Oem2tce96667+OQnP+ncou1228WUbawvf17GGDZt2uRSC4TIGrcWCgXe8Y53OCGHzau05cduu+02fvazn7lr8prXvKbP+o/j2OUE5uNwkFmYvu+78mNCCGfNSinZsWOHe/6MyZLZDxw4wLvf/W6+//3vA6t31xgfH+9LUl9cXHR5gIMx7YuCNc3oxeFyrktEr7Bzj/QQBmlEL+kgq4GJUWjRi+ORxe8y6abAZrcJYeikMcovoQrb+Kefh+xfXk+68WU08QmjEnHSAE9TljHF5iFu2ql572vH2CYPIJsH8UWDIDEkXZDGIxAdtEkwplfyq+e6lMhe49U1XM7wy+Uyw8PD1Go19wDaCaLT6biaf9b9ZPFcSO7zD6b9G7IHfGJigpGREaIochLwwdqH9mFfWVlheHiYSqXikoQvRkySPx/rdrKxv+Xl5efVohocz2p/P9ewYpTrr7+e6elp8vly3W6Xd73rXdx3330X3IcVU+zevdtN5tbFZj0EkKl8y+Uy11133TmiF+tNGBsbY2hoyN17YRjS6XT4whe+4BSN+Unfko2FMYaZmRnm5+fZuXMnk5OTjlgsUVtVpR2n9XDceuut3HPPPS6m5/t+X16h7/s8+eSTjmSsutIKYa699lqnVLUW8IkTJ2i1WgwPD3PFFVf0WcjGGD772c/y/e9/3x3ThhmsVTw0NOQ8LPbZbbfbPPTQQ8C5Kt2Lun96Kkvo6TlMT4BiDPQsOS17P4VNJJCZCtOAkdKRoTSZr9MYmZUTs+kIxhAEIU0RUmuX+dHjKyzp9VTKk6hUkcYdhBcgUYjuLBVzhN/YN8Jm/yBR4wnK/gpad1EKioHAKO08lNl5amfDPc+PzBpepJC1Wo1t27a5B8iuGk+fPk2hUGBsbGzVDz7bk65VCObjZJVKhS1btrBr1y6XX3Tw4EEOHTrEysrKeYsJ1+t1ut0uExMTfYKKi4Hdn1KKVquFlPKcxN8XAs+Fu/hCsBM+4GpvWiKxsTF7XfNWioV9zVplNvZmCcnzPA4cOMDx48eBbFIeHR1l06ZN7m9bJ3P//v0A7Nu3j5e97GXOKhNCuEIHFpZEpJTs27evz20phHAegA0bNrjkdUt0Nu5lx27vwziOnXvfno/neS4+affRarVYWFhwf0dRRLvd5qqrruI3fuM33DWz5Pqtb33LKU3zFVqEyHolWrdmXlBk1aUAb3vb21zxa/v+8vIyp06dOifefCnPq+xJKn2TVfgSxmTCE7L2dEqAkpB62X+NxoheQ1QjEcbHUwGeDvFTn0AJQgWF1FBMBIU0IFAaD496QzKzaPDK68CTQBspFMb0zjlZZNu6lJdNL+J1HyPyF0l1HS01mghjE9eN6Llae3U4e6pLLV66fTXXcPGQs7OzpGna1yYFcE08x8fHiaLIPUzPlQIx77YZHR1l+/btbNq0iVKpxPz8PAcPHuTYsWO0Wq2+uEredWQnOaUUS0tLlEolZz3kJeRPB7uKt64l6756ofB8kxyctSogk77b3y3J7N+/3+VnwVkCsAsWS4r5FkLWtWz38a1vfYsTJ0441Wa5XHZCFHu/LS4u8tRTTwGZm85aWXabo0eP8sgjj/QdW2vNunXruPnmm50gycbGHnjgAZRSXH311ZTL5b7F1ZEjR/jzP/9zTp065fZj63z+9m//tou75Y+VJ5BisUi5XAZwC4Ph4WHuvPNONm3a5BaSlris9VcsFvvOW0pJrVbj8OHD7ppb5AVW+QWqvT+feuqpPmv4mXherEpRi4zgMpdlT3hiDNIYpDZ4OhOiIBOUTFBCowWkQpKKgET4JJ4glYrES4m9mK6XkHiK1KQIL2RmrsOJ2Q6F0XXUux3wDVrFCONBIvCTJq/au4lKUiPULUyatfsxRuKZEr4q4CuD1CmQYkx2b8neKUue/2dnDS8+SNtl21bVgLMT6/z8PFEUubYqwDkxgmcTQ0NDbNu2jU2bNhGGIfPz8xw4cIDZ2VmnfHMD701Qq/WUA1hYWEAIwcTEBHDxCdJ2Fex5nlM+2pX480k4g+f2fLst4Sx5/dqv/Zobj1VR2rglZPeEVRPmFx9WXBEEAa94xSvO+Z5mZmacahKyONbY2FhfKbEkSVxJrunp6T5CteNYWVlxLvckSTDG8NGPfpQrr7yyL4n60KFDfOtb3wIyCzPf0UAIwX333ceHP/xh7rzzTrc/yBZUr3/963nlK1/pxmItXvtZIQTr1q1jy5YtAK4o9F/8xV/wxje+sa8eZhRFfW7bMAwZGxtzhGWModPpuOtrj2dhP1cqlfrc/UIIl1aTd+Fe0n2by5HLYm2976ynvhRG4PX+B9ojTHtxt16POm0M2mREF1OgQ4WWLNHwAppBSDMIafgFVqgS+1Msdis0dBkdlMELkL4P0mCMIhCSgooZkprABCBK6HCI1IswJkAaH6EEHhKv12k8iykK16ZHrrku1wD4QmS1BNM0ZWxsjHq97lazjUaD5eVlxsfHnXXj+z5TU1MUi0WOHj3aF7fKCxXyr8H5S2kVi0VGRkZcXcNut8uxY8ecECNPbquVIFttArC/Ly4uUiwW+6pGXKy60062hw4dOmffzweeKbmtFuPMv3ex8cq8tZJ3J9r9ttvtvuuZr8I/aP0NDw+zb98+t4CwY9m7dy+VSsUlxE9OTjI+Pu5ixEIITpw44URFV155pUvktveFVVnaY61fv55bb72VD3/4wy4p3R7vrrvuctahJQlLxMYYHn74YbTW/PCHP6Rer7uqKUoppqameMMb3sAPf/hD97lGo+Fa4UBWnuxDH/oQjzzyCBMTE/yH//AfePOb30yn0+kjVSkljz32GCdOnABg165dTlxlhTD79+8/pyeevd42vLB+/fo+69cYw3XXXcctt9zCY489xpEjR87ppvC0Fp7LBjdIrRBaA71OA0rjySzNQEqJ1B4SH6VjBBqfEOEFKC8iNkViU8T4VYQvIEizKil4aFOgmxboFvfwTzML1NQwxWCIltIo1QY0BClKdRgbilg/NYkqLtMtbCXx2vjJGcJuA6/dRMguSdIGKZFGIrWPQGYJ5oBa60e3BsCHzB1iy30N9jBbWlqiUqk499X4+LgTDlSrVVf5YbD4sEXeXTPo5hkdHXWunna77ap7XGjyvBTU63V3jOXl5T435/mIdxCrkcJzIcR5tvB0RH6xq3tbJ7JUKjnXoo2tCSH4wQ9+cN5FxuBYSqWSi/VaQYXWmre//e3s3r2bd7/73Tz++OMMDw879WKhUMAYw2OPPeaIzlpL+XjVDTfcwIMPPsjMzAy+77N582Z27NjRl4QeRRGPPvqo62c3NTXlqqv4vu/igd/73vcAeOKJJ7j//vt529ve5iw4z/P4F//iX/AXf/EXzM3NUa/XOXXqFBMTE33ted785jfz4x//mCiKGBoaotvtunPJJ6bPz89Tr9cB2L17d98ixPM8jhw5QrPZPKe9jv084EIK9rraxcN//a//lW63yx//8R/zJ3/yJ+6zFy9I6T0nulfqyxiE1gihe53qFAgPTYg2PvijtGJJqxsSU6FDgZYqsNiMOHompaUEulCmo+sYbZAiQumIZep856AiqW7BEx6pNuBHIGMwCi/waLWq/OMjLQ74LQIkysT8sysm2V0OCKnhq3aWb6dBK4H0QGpwytG1HLo10CM6wHUrmJiY6LOmGo0GtVqNyclJ2u028/Pz1Go11q1bx8TEBK1Wq69f2mqVOCzJeZ5HqVRiZGSE4eFhV6m/VqudUzHefu4Xge3PZVWTFs8oQC8vvUPziwGDFvXFnoO1Gl772tcyNTXVZ40ppbj77rsv6tjW+rMKWWup2vvkVa96FR/84Ae5/fbbueGGGzDG9KklT548SbvdJggCRxj5fUdRxN69e9m7d687rlUl2vdnZmb4yEc+4vLqdu7cyfbt291YjDHU63VsJ4/FxUXuvvtubrnlFqIocikU+/bt46qrruLb3/42J06c4Mtf/jJ33nmnizvaxd7ExARJkrj8wJ///OeUy2U2bdrknoWVlRUncHnlK195zr1Yq9X6vr887L1oxSr2HOxCxHaauOaaa5wgZvA7OT+y4s2ZsCOrhIIy+FKhUAihEFKihY8WmtSUOTbbZqYecHC+w8HZFU6ueKx0Ila6Ixydi1gRwzQBilXQCroadAuiRQjGKG7eQjfywPOAFGFUVt1EhpxcGeIv/+4ItJbxfINqNXnb1Q3+6Hd2MSpidLxI4PUS27VGmDRrE3u2RhlrRLcGP2/ZzM3NsWnTJlfE2cZlFhYWSJLEVeWAjBi3bNlCuVx2sYTVXGV24ioWi4yNjVGtVul2u8zOzlKr1VxsJx+LejasJTsZLCwsMD097VxD+Qf9Uiyz/HYXaw2+WLAasT/d+K2g5Oqrr2Z0dBToL4WW75U3uO/8cT3PY2Fhgf/23/4bb3jDG5zcPm+ZPProo/i+z1VXXYUQWdUQeyxr9ezYsYNt27b1iSzsd5xvmmqFJ1Yl+7Of/Yxbb72Vf/zHf2RoaIiVlRWGhoZcmoLdfm5uzi22oijivvvu48knn2Tv3r2OPADe//7388ADD2CM4a//+q/5zd/8Td7whje462MJzx7/qaee4r3vfS8f+9jH2L59uxvrT37yE5rNJoVCgSuvvNJZl3Yxcvr0aeDsYi8v5LH7/spXvsI73vGOvpw9+7wBLs9x8D64IHK8kJX2SsEkGBUDKSBBS6RMkTrFYBgrhMhAEpTLjK4rsikZYUlNc7q5mcaBEE9MEkVDmUpTxZhEEckQT0Y0OwoRVel2upk1Z3xIQHrZ+QZD66iOrsfzX0GiDWVRY759F2eams0lgS88tE4xOkVqidAKqXTPqiNLZF/Lo7vs4ef/qNfrtNttJicnWVlZcZUn4jhmYWHBWXk2gXZpaYmxsTEWFxf7JrzBiXVycpLR0VFWVlY4ceIEjUajL4l3cAK+FMvjfLCfbzazxo7VatWN85kSVBAE7npcaIJ/IbDaeQ3G0AqFAtVqlVar5arInG/89vV7772X17/+9ezbt492u00URTz88MMurnah7yq/cPnSl77Eli1b+MhHPtKXOP34449z99130+l0uOuuu9i6dauzxJ544gnXSWDPnj3OfZ6v8G9Lkdkk7TRNqdfr7N+/n/vvv5+/+Zu/YWFhgZe//OUopRgZGaFWq/GTn/yEnTt3uo7cf/d3f+dI1RjDqVOn+PSnP82/+Tf/hkqlQqfTQQjB97//fWc5LS4u8sEPfpA777yT3/zN33QCkyAIOHLkCF/96lf50z/9U44fP87//t//m+uuu86N75577gEyF/H/+l//q080deDAAR544AHgbKw4f40ted1zzz3ccccdfOADH2B8fNy5lYUQ/PjHP+YLX/jCpee+Cpv4rREmAdMFuiAyC9wzHtLIrOCIBmG6TBUlVZkyhmHKSCa7cFqF+K0RfnI8YW6hhRbDyEKlp7ZMiROJMAFpKpCJh/QADDpJEV6E56eoNAFZoCV8pF8g0QKTaFKvSHmojAR0bPClDzoFneJp5eptAu7nGi5vnGPXDw8Ps2nTJmZmZlhcXLxgs8ZKpcL27ds5fPjwOX3P8r+Pj48zOTnJ8ePHz8l5slUw+gb1LJGIFVRs3LiRKIo4fPjwJRc5ttuOjo4yNjaG1ppjx471yeZfLGSXh+d5LpG5Wq26Vj6+79NoNDh27NhFLyaiKOLKK68kiiLq9TqHDh1yE/9q8dRB5Ld77WtfyzXXXEO5XKZWq3H33Xdz4sQJR8S7du1yZbfm5uY4duwYxhje97738bnPfa7PmvuHf/gHvvzlL7Nu3ToXI1tZWXEpB41Gw6XH5PP8bFcEWx/19OnTPPnkky6Glu92XqlU+JVf+RWazSZLS0uujZMdg932pptuYs+ePVQqFU6ePMkDDzzQ16ncGMOuXbsolUosLS1x+PDhvnSI7du3Mzw8TBzHzM/Pc/r06T41JZwtYD5o5e3cuZObb77ZCXWefPJJHnzwQWZnZ/vi0fku6KtDgvSzIFea8tH3jPL//OEbMMkhjNdBS4n0QjwZZmnixkcbiZIexh+mrkqcaWiOLfuc7E5wNNnFd4+N81RnhIY3jvGqBFKiui1E4NNNIYkj/MDDyE62iDEg/AijOnieIRQl0jjrjhB5Pl59P7+18ZvcemOd3RykEC8Rd7tEnkSnhiic5uCpCd7xgb/n4SeWEL7ApC++53MNzy/6LDqrwGw2m4yPj7sai+ebzJvNpis83Gg0znHv2QdxeXmZdevWuThfPl50IRHDL4J8i5rl5WW2b9/uCvReiuvSvh+GIUNDQxiTNQK1FpGd7J5PrLYQsOdbLpcpl8uUSiVnOcVx7BKrwzBkZGTEfTf5xOjVIKWk2+3y8MMPn/P6oBpwtXEOTrLf/e53+e53v9u3nRWntNttfvrTn57zXpIkLh1ACOFUl2fOnOGv/uqvVh13uVxm9+7dLsHanqsVp8RxzIEDB5iZmXHuePu+XYDZrvO2BJeFtRytC1Ypxb333usaqObPP++hsInvg9sArrhz/vo+nSvfEu5TTz3VJzrJ7yMv5nr6yj69Uij2eEYilMkEJFKTKkM3VXRVQmwCumlConzixBDrNi3j0zVlUlOiGpZZVyqzoWo4PHeMIGoRm4gk0YQS0sDH84eRwSRxGiMDjQwkOjEYpfB8gdR1VPMUQZJQ8QSh6hLWf84118VMRYvIlQVIW4S+j1ApaJF1QxAKWxsl66qwhssdjujsA6mUYm5ujq1btzI0NMTS0lKfWm+QJGZnZ9m6davrm5bfLu9imp+fZ2hoiEKh4LazD+JzYRXl895sLly5XKbb7fbFAy8W3W7X1fssl8uO2J9vkoOzi4ggCAiCgGKxSKVScRVc0jSl2WyyuLjoihjn40+2L9zy8nIfUa9mka+WP7iaQGLwWtoYXN6NbckY+mNPeaswPwZ7fX3f54orrnBjtffq6dOn+7oj2OPa8nVnzpxhcnLynPOytTbzaQz2eHbbvHt6EPmk7cEWSXYfeZK319AqPAf3NXgd8tdnNWHXatfdXtf8tbt0978BndgWBBgNKtVIZQBNO+7S0YpaLGiJiOWupJMEqCSi0e5SizMyTVSD5c4xlvVhwnAbu4dLtGQT4/mYVOF5EU05xkzL0NElPL9AqjUkBuGHmFTh6zplc5J1lUWG00WG0QRJjb3bE163vU1UP0RB15EmQaU+vghQWpOqDilxluwOrOWLrwEGLDq7Qm21WrRaLUd0+TjMIEnYuN769es5dOjQecmjVqsxOjrqYkR2H8+l689OQrbz9tTUlHPHXmrdyuXlZUZGRhgfH6dQKDyjffyiEEJQrVYduQ0NDbnXO52Oa8Da6XT6RAj5/mbWirZpJE9X3f58buRB691ikMjsPuzf+ZYxg9sNwi6EoihieHjYHcsS0SOPPOK+Y/uezfVUSnHmzBln2drX8uOr1WruXlztvFez/FcjtcF7eXBhmH/vfOQ5eB0u9rl4tkVcALIn3hBGYPAwBqQUlCKfshcyZAK8sEhKgBI+UlZoJx6xCvBEhEHSUQFN4xOHbRpKEdPCCI1B0BYjPNGY5s///hgtv4g3tBFlIozRGN0TE6WL7Jtc4v+8JmBKNfBaNYYLirFikzF9hHK6glC9vn4o0GS1NUnxtHaJ4sKsqS7X0EsYzz8kVv68sLDA1q1bGR4edmQH5058tl5gsVgkDENnOVjYh7vb7dLpdBgeHmZ+fr6v+sVzCbv/lZUVRkdHqVQq58QTL3Y/rVbLub1eiLicEMK1JlpaWmJpacnV9bQlt1ZDfpGSJAmtVst1q76QkCT/037e/p3v5G7fG9x+NU/ApcCOb9u2bWzbts21nbEKSNubbXB8+RjbwsICGzdu7HtfiKz4ca1WO+f8Bsc+SCCrXY/zEV8eq13PQQxas0+3/fm2+0UXj8JYJ6YiK6mVKS89FFJ18VWXQLXJEskFeCEVJBiJNAYhDInQdH0fvCJaSNBZwnjqRbSi7SwsgWi0GNn8SuZShQgC/CAiSbJjVZIFrh1pcEN1lsry9wkrHQK6BGmMjNuEBoyWGD+rooLRCKXBxFmZMt2br9aIbg300gvyGLTUxsfHXQ6adRGFYUi5XGZkZMRZaKdOnXpaC2dxcZHNmzdTrVap1WrPq5Cj0WgQxzFjY2PnxBMvFgsLCywuLr5gQhS7CLHWymointXGM/hakiSEYehilheLQZeidT/nXXSD+EUUtJZA7P1mXbWQlQ+bm5tb9fzy8cd6vU6tVmNsbAwppXNJLi4uunQTu48LWa2rYTWSuRQrbPDns3UvPeP99NryqF6oDpMidAdhupikZ5EJgVC9Ki8mS30TpCilQQs8KRBSZ9ZVmqCUQKYQCIEmpRtX0ExSnz+D+v/Ze/Ngy7azsO/3rbX3Ge7Ut/uNrSee9DSAZQw2yGAHl0SlCCQGVyCpuCoxdiouV4LtSlImqFAiBxnFQ0wAMZtBMn4MEQYqCsaOTACZYFsUCEgMAvE0ID3e09N7Pfcdzzl777W+/LGGvfa553bf26/7Td1fVfc9Z5+11157Dd88+A1URlhT07lACK3vMN2MzfkVHrNX2b7+B2zuf4J6PIJuQW08qmNUJnSqONdQ1R3SKerBOo/pJIcXqNyEJsdAAAAgAElEQVQLLbgHheqyRA4QkOqlS5d45JFH2NraygGsELj517zmNezt7fHkk08eKZdTQol8E/Hc3t5md3f3BQnALuOP9vf3B5LMaYPA73SZopNAciipqiqnuFpObp3+HvduibhNJpNTEboSSiJXSnkphm0ymTAajTg4OBgE658G0nw/8cQTvOtd7+Ktb31rLp/0gQ98IFc+SM8us6FAb6e6cOEC4/E4J4ROSRBeLDit1PaCgfZ/Q1k6D9oivsEwQ4xiRUGqEJtmDGIMrTYgUBmLOI92AlaxtgXXUntDJRVCh6dCneepC7t09tUc7Dh0o0boQiYW7xi5OVv2gHPVNUbtZ9msZ/jOgziEjlY9Sgu4EALRdojaEDOXCsZG45zes9HdAwpCVx669Hl/fx/vPZubmzlbSjLmp4THZbmcsvhpCWXfe3t7nD9/nqqqaJrmjmccKftOnH0i3KWq6qTjKAOdXwwElWrtra+vM5vNsqNDaTta5c1aEub9/X2gVzvfCiTnktFoxHg8Zn19PdsM0z4Yj8dcuHAhJx9Yvv9mzEKp9n788cd5/PHHj7QpbY+rfoMgwT777LM89thjjEajXIE7PeMeFBCJnAHwFaqjGFPnsOKwIqg0tOpCIVVj8OoxKng1MbbO0Kng8VirmEZwzQKtWnR8js5u8NE/2mGmZ5hOttnrFG89RoSRFUazQ86OW84/WKF+RkdH5yqMEcxIcHaG61oqEcamwi+6IICqoFQ4KnyS1F/EqbwHLx2oEie8Cnl777l8+TKvetWrsgooeb5du3aNhx9+mFTm5zhbwbITy97eHg888ABbW1srK4DfSTg4OMA5x3Q6zfaZZW+3m0Gy/yzHMr1QkLLzJxVe6bl6Iw/QJAkl54wk4YxGo8xwlH0sE6GqqhiNRllaG4/HbGxsZMkyxX/NZrMcwpHiF0s4rZovjWW5LE5Sn96I6SjVkvP5nCtXrlBV1RHv4HKOXo5p3m4rGDAGtIOFrnPot5jINjUN1jU4Z1EVnDi8OjoP4g2dKiqKkUD8Osa0rmGEQfwYWuh0waFZY6daY8ctaOqa9brFuBnKDKo13PyASXeNB7caxizoFp7GVVgxqFrmc0XFoiI4DDMHBosArdSgm6BTxCkGqM2YBbemtbgHrxyoll2hlxHG7u4uDz30ULarJURw/fp17rvvPra3t7l06dJAokgIqSSiqd/FYsH+/n5OCH2n3fOXDfy7u7tMp9NBOqvjJIJlWCYGKf7rRvN3u0E1JAcej8eZ2KW5Lue5DDtIxC21TWrpg4OD/N6rJMDJZJIrSwA5Li+N4erVq+zv72fJcrmP+XzO5ubmLc9LeU+qInAaKMeTmLaSSbnR8+ClmwzgToIIOAcjAx/45av8pf9ijS944xfRLJ5lVHnUG7yAGofSAZ7ahVwkrVGceEQNjineOFrbgJtgxhZn51Qbj3L52n1Uuscja2PG3UXWxTM3C7w7ZELD/brPY9tbrNcG07wBL/eHgUUChyxAoNMq1MmLOThbW2OqN/Krv/b7PPvcDpNqxKK7yxmXewBAdTP38rZtuXbtGpubm9mmk7KZHBwccO7cOS5fvpy54WUPzmVkkaS6hx56KAde30lIBChJolevXuWxxx5jOp3mLC0nQWildLq5ucmDDz6Ic25gJ3ohkKJqcK1fX1/HWpvXI8X3bW5uMp1OcxaU5C2aQg/KzDTpvdL9a2trrK+vM5lMmEwmOQYyJTVOiY+P8zpdjoucz+ecO3eOyWRypKzPiwFd1x1xmFrlMZngbiNyAOrAmCmmqnjy8h5/+b/5af7GX/ty1qfj6LxjUemDsAWPIRAgL2A1EDovQmcMUo2oOkulFlON2PO7/O5T19h5qmJy5sPgldp0GNPSesN4NMG1V/nDZ1t+/g+V6XzOyE7wKjjvMRa81MEGpyMMFqPgujnjyZRf//Bv8uP/7LfZmEzpTIXzHdDe6JXvwV0AVSmNwOrDnWLIzpw5w4ULF3Kba9eucfbsWba3t7l27RrW2qwSOzw8HGRNLyEh283NzTtO6GBod0xjmk6n7O/v35DDX+4jzdV0OmVzc3OQBuuFROKp/NCDDz4IkJ0sgJw1f7FYsLu7O8gEA2S7Wl3X2ba2fH/TNMxmMw4ODjg8PBx4d66qrL3sdZl+SyrCtbW1Y/fCCwklIV7lrHPXqy0BQfAeus5gxPDUxQPe/g8+cPMbTw1ngQ8Bc6AhWNMqgoXwgH+H8lO32HMtsDd3YDXkwLwHdz1UidsuiV0JxhhmsxmHh4dsbm5y6dKljBD29/c5PDxke3sbCHkyk5rsueeeYzabHfHMS84syQMyBfLeaSKxLGmsr6/nRNWnsRUliSpl19je3uby5cvPK17sNJAQdKpUPZ/Ps5Q1n8+Zz+eD9nVds7a2Rl3XVFWV7WpVVTGbzei6juvXr+fPi8XiWKkHjicGq9479ZXsdC8EI7DK6eVGbZKddlVKs7tRohMEQVFpsbamdQtsFaMNnAQVYk6vFdqr0VirNVT2NqpYVbDQYfAObGVCCR1rcK7CqSLSAQvwHqMWLx5VjxGD2EBonfOo9yAxWJ8YvadhtCpxHAZEFNd5vK0xKN4vEAlemPfg7oYq1as6TiJJiHV3d5eHH374SG23nZ0dXvWqV+UM70899RQPPfRQRm5lPsXUn6qys7PD2tpattW9UJDsdA888EBOR3ZSSJljDg4OcnHQtbW1Qd93GlRD9o9nnnlmpSouqR1T7Nl4PM4qzLZtmc/nuSRNYjDKPlalxHo+79Y0TbYlvlDMwHHPKO2RxxHvMjzjbiR0Ho+YEITtvWKo8K0GAqcWFQd0CKEG3MCvURXF4jUE4kknQKiG4FrBVjXtokOMA78Xf2swxiJUqG9BFMXhO4+aUYztS0xHJLIqaAxQVwQVgzqH2BDkThdUnBWCuwvX8B4chSolb04BwMuHOyGBw8NDnHO5Vl2C3d1dRCSnk0oB5Q8//DDr6+sDhwfokedsNsM5l7O530lIdqiE0FM6sISAU5uTIraUOzLVQoPbQxROCskxo65rtre3mU6nTKfTLKkl5iR5GqaSS8sOI6ve+VZjvI6bvyT5Lvd/p0A11GPb2tpiY2MjM1nJM7gcZ6odl+y3u7u7Aw/iuxXUd4ipUKcYUwXip8GZyagG+5iJkWrKUGJSF4LOCQmVBaXG0OHwHqoq2H0NEiuVg9gRXevBVIhxCA51indJpRlJXH6Q5v8Fic9XVC3hyQ7vBMTcCy+4BwBU0+mU7e1trly5cgRZlfanxWLB3t4e9913X5YIkjPExYsXB50miWljY+OI80Pqv+s65vM5k8nkjnPPy1JLSkdWSqcndUhJcO3atVyQNj3jTiWpTo4lycU/2dWSpJYIbpI0Z7NZTmR9I1g1xlsdd7pv2UV/NptlB5nTVbq+dUhpwpLH57JaMv0t1cApefk9CFKT+g5I3shKKDWeipgK6pOERUHperWmavhkcTG4G7wPvSCBCFaELCyunQNBP6rO5e7K5F0hWEBDrbyoYA2+nj5IcUR3UUnjMni18bMreroHdyNUqSjplStXjiDpZXXj/v4+586dYzqdMp/Pj/xe5hps2zbb9Eppp8xIMpvNckmZg4ODF0wi8t6zv7/PmTNn8lhO6pCS5igFXadMMqnf1A56ZHpae09y408hAmtrawOGwHvPYrHItrVVdrUXC5bfM6XcSuENZbs7SeyuXbvG2toa0+k0q5wTQ5AYhyQV7+7ucuXKlSMJou9OSIRCYtHSQOg0FzP1RUEALf5Pd+hQm5kSRKd20bbmY+6SYNtTEAdRHVl2EL5JbC1xPKE3kz8Xo8gP8cX1u3Ut70GCCsi2nFTCBlYH9h4cHLBYLHJVg+MSM6sq169f5/z585Q2wFIiEpEcPJ48GF/IkjdJIh2NRkccOFbBcQhwWVJIn8tQi5Lgreq3ruschJ3sfknd6pzj8PCQq1evZoeRtm2PpCN7qSDo5ecnhigVbV3FSN0JaJqGixcv8uijjx6J6xSRnD6taZqBZH6z+nyvfEhEridwAYLtzJCIT092oiyfr4cTYQGPF0U03COShL8gGWrwZol0y0OWwEIvPYHzBKms70QzCdWj1aPj9XzPPbjroUo2jXPnzvHss88CqwkXkJ1Szp49mwkjDCW61H5/fx/nHNvb25nQlf0lZJNUW4lwvlBOAMkZIznR3AyOI1InUf+V31OeykTYptNpltaSJLy/v589KBNhu5HE+VJEymluksPMZDJZ+fudenZyGkrq9mQ/TiWLkpR34cKFLJ0fF3Zw90BK/iWRjOjwJ+0JWyJqWhCmqECkp14G1GWSI5HIZWKq0SMyU6o074lArdofJrd76e36e/BShWp/f5+NjQ22tra4evXqIMnvcZlSzp49y5kzZ47Y5kpOOJWD2dzc5OLFiwMJpGx37do1Xvva11Kl6t936k2XIDnXbGxsnCoV2XESySqkHVRkNZPJOKsf67ouKlh72rbh2rVrHB4e5uKuq/M2Do3+J7UpvlhEsJyj2WyWA9BfiByT5f66fPlyDq4v69HVdc1sNhvYppNaGF5YD9GXDpTqwcFmix96VWVokYhWcbb7TJlH+pZ8v+bPRbf0hG5pSPl3c0Lqdq80zz0YQnVwcMDa2hrWWqbTaVZfroorgqCKatuW7TPb2f6WlRtLiP/w8DCrRY9z40+Eta5CSi4p+rvTMJvN2NjYODFBCEgycKHpnnPnzuUad4eHh1RVRV3XbGysM52G+LUkTSRpzTnH9evX6bpuQNSMSYgmwGBcYgKxK1zjV0nS5ecXbiaHsEyU5/MgtadE3i8EJMYqeZ6eP38eYwTvNduRL1y4MKgWDsdX9r47IJEwf/QyyaOxtMsVMYtZBUlc/CGxTErIoJIsuk33alB1mkJZqYNGBsFgcFmhevzqJLnyxToB9+ClBlWq/F1VFevr64NM84PYFXoEdrB/wAMP3o+tDF3rQMPmrEzNeDJlPB0xmY4ZjyeIEarCjT9BekbXdSF4fH2DnZ29fmPqnVMfJSR2cHDI9vZZxuMJ8/mMG3OCwV1ZAGMVYyzTyYSHHz6PqrK1dSYj1xAoL+zt7ef0WU2zoG27GLt2XIHU4fHtEa0BqVBtQW6sGtVo7O+HrS84c6s6lAAWi5aqqpcIXbJb3v51FjGDfq9f32F7O1S3T5lidnd3Y2jM6qTed0ytykmW41YlklX3LV9LEpcW/6CXwvyKXhLhCr8MV1fKLwWHM3zmMnEa9F8URz3O4pbUqSeblZv19fKBXlF7D54PVIvFIteI29jYyBW0s6rRhIKGITNBQCB7u7vc//D9rJ/ZZOfy9bzx1yZrPPI5j1KNDIsuZD+5cuUK+wf7xw7Ae8/169d5+OGHuXz5Cs1igRg7jM1Bs+JDBldvBTQj4qZpURXW1jYKQlcejv5Iixi8Cw4NDz30IOvrGxgRrK1ijBph/E3DbDbHe0fXtfRm+4BIglSYpAUdPKNgifvhSgyMdT5wGlKqfLKfWzFs03/RaOxHhxMX303yZVnFZx+DJso5OtJpAcmS4+k6j4ihqkbAIWAKKWooxd4O0DwPYRxd57h69Rpra+tYWzGb7XPp0mX6uUpwe8exCkxcL4+BGEc2NIXFYOhl9WE5xOGCFz+sWrGhiwjZnQTAHZF6hj30aFbwCDaPULEFyUv7rfxe9pZkueOgb9fb/ZYhBvvfdI2W9+adX9Nbg2POO/3lsFKFHHxLdHvZdejuhApCdpOkWlpfX8/qS1Ulu/tq4NQFS9t1tG3HmbP3sXPlesanTddh64oLly6F6s/q8b4lILZUx+2ojebw8ABrhcl4TLOYo9716q/ofpyO4/Plz3rSoLTtgkUzY31jytWrhLElBKzDDaiaau01VNYwqgzPXniO8WjMQw89yKJZcOX6FXzbpQeBBF+05D+m6lFdVokd/dzz1kTJtuem014VQKK0lmhZf7w1ugYU3S9LevkIaUQe8SCY9Jyeex+qmI7ly48F51p811FZE7vRJc7/9nPdBQuANYbZwT57O9fZPnuWa1cu0zTz0GYgUd5p7l+i36JynEdgIoNDBileO8LMuMGdq8dfqMYBcHFvBCLWr/wqB48eGWu8t+9x1fiX98VJ98lp9tPt7OvFhmPGqD0DVvqXDjmSJfvAsVCGYNy9YCDkrFwsFpnQDfIFZkQQuC0jFW3XsbOzz8jW1PWEIO5ZZs0BB7P9UL7GdVjbc48ihU2bnv+0AotFw2y+YGNjvbCDabj/Zg4XS/2V/1j6HF8IRBFr6LqWw9kh48kYsb0EkKnH0s1WgjF8dnCAqrK3u8tiEdznBWEy6muvCRLohca8fGkeT/A+6ZGmuAZaSGBB0BMjA5QY/jl0CQn1816qqxw+EjmR4A2KhKwqibkZjjRdvznkMcYP3nU07YLxKKmwI99+B8/fINwDmC3mXL58mQsXnmNvP2kYYnTWnRzIAApJQ9J/6Yz0O7Z31DAE21gd/qkU9wWm0yK5Vb86Jv5egtDfCaXn4vFvv8TsEYW2l7qw9LKD5XOVpNv0bxlOSuTK/l4OhP/OQSUidF3H4eEh0+k050YMAchRkismSsWCCge7h5w9c5b1jSnXr84xFlwHB4e7bG1uYK3HtS2SVB9qMCJ0Gjhs8UFZVkmF045mEUrPiIKJ0qTJC71sFziqkAlj6z9nRY72CDdw8KEHMQbvfEzwvBFKyRwcDtuUz5REGqBTRz0KNqeDvX0uX7zEfD6jmy+yuiHx26UcelL8UFpJTDTPC6X61kekI4VqOWaLEBBPzwXGOTCAsRZbVVSVwRiYjDeYTKdUdbABPvOZ5+jaOcYKrousTbLxSQrmDfW/bgYSHywE9fS8WVBNxpjK4juHGBPWy+nqCdGTzdWR2yIh0Kh1EwEfN8ve4T57h/uBqfGgJiYJ9quVZbcbwvqVu8KQnDDS76Eud4oZ83HOy3/pfiGRNxt1Bml/JDm8Z1UCV+/xLKsqgSPfjx29GFRdJpnJhp8YsXtweugD4YdeqeRk1BpZmYQHY1ozib4RJ6Z5d/f6VAmp7+/vs729nVNMhQrcR29IuvrZ4QGu65hOa64LuHg49/Z2uW/7HFvrW1zb3WFk6yzZqPdYLFVG1SaqQ8E3HeONEVYMzoeD6bxGBJssSL0axQ3GVDC7EcqxhydFkVI9ooJ14Xo3bzBeWRtPmR0cYiLL2icbCj0YNRgNga7trMEtOs5ubfPcxee48NyF7LYexqZFP7cCWqipgs2mR12OnJHdK1iDqSyuifbA+MDJuGY6XmNcj6kmsTr4eIK1NaB451FjabsFXhdMxiPEgPddxItFlguxAeFmNfJJyYJgBLwqzaJlY3MTIxaPK+LVkqqY/p0LqeE0jGsmriamqNKISDz9BlFQp0iylfqY9GCgK79zkGdvoA/u1VSZTBnieFx/LbWXEFwdGD0f94VBslyXWMBCzx3tC8E+HSUICem2BmxYdl7KrGIcZxWIsghorEJPHc7ugPjeg5NDZCTx5ETV+ewrSIH3NDA2+Zgk+/yS49c9WA25Hl2qEp0yc6REy6V/FhJwq8Hi/JymOWS6NgUiLlSYHc5ADWc272dn9xB8hQhYUVptI3di8tFUHBbD7GDGfWeFzc0tru3shHIevuu5mXzuTOlncIwKWqOq1PTtohOHkUBo8Z4KA61nJDWTahR5ZIsOeN9w2A3BeWNsahbzOV3TMq5GsU8DInjViMjTfIXnnE5HF58p0Sbjy18cYgouLibJHU/GnHngPMZW2KqiHnXURqhlDe2EedOwcAfsX7tMs1DaLmSH9zg61zCeVrzmNY9R15Ymlp5TFxGymHAABXob5jHvky77QGzye7uQCX88GseJMRgJWe3FRA/JXuwe0LwT405VIlUNSCGd+2gTTSnAxBi8D6HNYY/YuK8jU3VHIL2RRyRu38itJzN4yB1ZEMLUxnhC1pClruhiWFkMd0HxWhK20pgLiMYt1TNxfVsoHVTCxVKdmvZklN8kMHyiSapMyFlOvl53NcQ9KhrWFwVnQgHbtDriCmN9XCRxoKO4dj4yZ6WzScLU93w1lyFLdKmCdKpfltSXJU8HoNrlKdzd2eGB8/czGo9o5kHVqSg7ew3eByeMRgW0ZTLeRLoW5/ZxaeFIGFu5un+d9cP7sZN1/M7VoNKKEkx4cCGjL2nO0uUhTyOoFpymkj+73FJomzm78wWtBpVAs5QANiWxbYlqpKgTu344Zzweo0Cr3dExlQM6NbPVI2qN2dizOsoPu+saeODMNmc2NpktmpCwejajXSxYHHqcczRdi9d22H9Wg8GsAzcbUfuzaDcDOvp4pxVxVcdBKUUv2c8P9uasry1iHUxP1zWENVrd/63wp6vNoOGLS/tJ09+UPHi4N+4kZ5we028VT6jHZhE7Qp0LUhZRsIqMXVLgl6THxb0Q3yD+7gKTpf0Kq/bfgaj40n5VE04U7SXfPFpHIGQVYc4WZMKGojQ9WV59CO/BjWCgmkpOQvRz6KDgHuN1B9RYU+G8K1gRnxn75xuycztiSG9nHOpyVq1b6T8cpRgcft999/HQQw9hreVTn/oUBwcHx/AG4cFr0ymvfd2j7OzucvnSJe7bXsOIwwjYSulc0in76HEntG3wqMym8nROvGJHBlT60IZ44lX7Aoun4RiPQ1uSpZKA+IwJefqc6y2CWW5RRaV3vxdDLCQJo8qwWJT2FR2iS2VgNzwJZOFTCLkAIyIO768YA/g4ey4IMcaGYPLDxuBNxcWLV/EpTXw5C1HKMr7CSsuZc1PWNwzdwjOpDdqlAHTFafR8TXenrjzcSHW5POfZbihgTVDldl1oYW2IHVwWegeI/hSQ7jm1/HwLz7oliMx2dmz1QTq6vr9gb6+JapGoFlTACKo1oo4Kx9d9zZv42q/7IrCXUBc6C2VtQHywDKsoXnxQtXsbpYO0JoJRQ9PBeP08v/Jv/5Afes//E+ymzoHW2KqKeVqbTLzqquLM1oj19QrXBUbQmHQeQkXyewTu1iDtPaPhn0ooYusJc4uCcaBiwAp7Bx1XrzVYWwXzA2BE8eoQMbHkVPSv4MXL3ZpMOWUS/9sFZcKMk/ZbQU8lU85HEWE9ltgJqNZEpKvFhq44nM0wYpjP9/niP/0YP/kTf4lanqByFxnblrqucS5WBhAJTihFF3G40dMPvPhBQmQxltZ3wSEjmRWSqifdv0z8ivVMKr4yYsAIjG2Nap8Fo+taVJWqrqPFox+fJypxnKdrO0QM9aiibUPdstF4FDcSmTCkzeuIxOoEBDrfrxrvV1QUiZKmSLAnea+MRlN8G+aprhzOG+btfWyc+dP8859/kv/+m/4JO9dniNEYhG4DEvUADhFH6z3f/11/gT//NVvMDp/BdTNEhcnEoNpFCUiCegSPF48lJt5V079rMfaj1b3DNQHatsMIVPWIrm2xVcg52XWuJ3LF7aJBY3MazWXB9/UdFpR3uB8SUSeb5sq9cjthIDACznmsqfF+HbFv4Du++7f59u/4VcT0JWrCPUGDYMVg1fEnPn/Mf/ofn8GapzG2jdpklw+F0eB449GAOKOJQEXwajFqUa3xjBhtbHEwf5Qfeg9YDF6D76brLFVV41xK4qxo1/G2b/oz/PW/+UXsXv80VTXH4LASHJycc/n97mkubw5pP4gQ5l0FFY/gMXRoNFsEx70RtBWqU0aT1/CT//vTfPPbf57Wh1jGYKeLNR4i/jBG+IZv+Ot87ud+7pH8wcuVZpZ/KwmHtZYf+ZEf4Yknnji1BJVyyQI88MADvO1tbzvyrDwfRUanVZAI5fXr13n3u9/N4eEh1tpTEdABoUvlXowxrK+tUdcBoR8VTYQkcx8ezgBlbBtq+ywT8zFqPsN01KFeGdcG71xQIypYE7zM8pzFQ6oI3gvOeyZVhTGGtm1ZG1WQ7AoSg5yFY2lHTzDiBJpSzvIYMahTFkXla2tCCIAqVCZWSF5yTzdG8XUYdyUVa+OYyUTJthHRZP8QxHuwFmPkpgsJ0fYZN2ooSNnbi5KEqaKYkaHrHKaW8FyviDnL9pkNfumX/y3vfNcvsXN9hu1z54b30Tb2aTASNMO1u8S4u4jKH1KND+maDtN0KMLaaBrslBL1K5EAG5Fgm4nSpkC0TQrOeVSDCiUTbYLtsjaa7x0ZzcH301qGat5izkt59GYINM1fWJKCssXOJK2T6dXCyQBtRPK95g4RulzFgmB7hhFznWBEWa9iySctnFAFVCrA4mlxBtr2Eq75NCIfpW0PMGKwNtRjCzY64poZvEqQEAgSggp4FdCKRg1iGmhDom1jKiobNTACznchblQEo8EHeGx2mJjfo5VPMGLO2CYmSAdm2xcsUuNlDOV+9yJ4iYROHcHZz+PF4NVhxIKtWLQVNfusjzqMgqhHAvou8F1Qc1f1mK//+r/Mn/tzX/a8x/rBD36QJ554IhcnPimURPPcuXO87W1ve95j2dvb4wd/8AdzOsnTlCYbFAlL6bhS9e3RqKbtOiRKckNcFNSR13euMxmN0M5TuwMqrlPLPlY7mqbFjmqqyqBtg7FRMRhLdwQCRuTsA9qsqoCItfPUKJXW4IKEh8gR5LfMYwQJIxKWgoVPRn4FOlGmE4PqAvWeOnlMquaYaSlsFZqQoQ3OJi5KViZKBSObguEDQyAakItxBLbsJqc/jy2Kg95o9KqKknQkGJgKnGJNw6LTWAW6Zn39AX73Y3u881t+lSef8qxVhqbzObNSr3h1mXsEkHZG1TWM/S4jO8dLFxwWjEXbNiBG6eIhNIhKzkXY61PTSyi1RBVz8tqMjIb3ipP4jl1QFdtRHTLKtC4j9pKZyqVdlh6zev4iK6SCi6ofWfa7FqFKHFJxoyDgPeIjd8udkkrSAbLUdQW+xZqWub+Mb0NBWokUOWylXoWRE2HLAktDRUNdRR8940BdTh6Q3hUt4+g07yMIQmA9PmIrEVkAACAASURBVAzOWIA1Vczi0wWmUxcgHpUKK0rjwThFuguM3BVGfsHI13hROh8KqCb+YTl67x4chbxfAcXghSzRpUMbGA7FWkFkhDUeI5exZhLPRFjjQDQL3GOEpgn5XVMu3ZLoHNW6DPPjQqADVVRhp1zEp1V92ogTnXMsFguee+45zp49i/c+F4w+Mi9L19K4nHNUVcXOzg67u7v52mmgKjtMiZhTQcrxeMLBwSyenyUMATjvOTycYWXM2rhifeQQt8+4arHWMxqDmA6jwQHESPIQi4sdCZ6iVKNgJxBCjJWMYlSRbyBKA8lediNIBLFPhny0jQV8F5C2rVKy2ihN+eUkQ2G0xli6zqGmpTIGr0UCJOmNFEGvrkcR7UlBw7wYDKIelWSzEVAb3Mkrwpy6MZvbb+I3ft3zN/+Hf8OTzzhGdcUi6u6zaS69YVKLRUJXjxvsdEZ3cAgubG71HeJdsAlgIpFUMB0m6vi8ED4X+yaoJaI0ZSTJoMGGUEdds3OY2qKuxbdt8L8VeobkNohTg6RepV41+dFnqhomJKlIqSTvndsPkXERRY2HrkFsyF1qqhk2OO/ijUAXEV3Ummg8MEagNjXqOsR2GOvRrosSdEHkIvFWcbj4rpI8VGJmI/FB29J1QbXktMX5hqD0XJCysCgdKuGcOB80N5NpRaUO77twpm3kQtTfobl7hUJh67DRPKHSx+CqKlLXWJUQlmUdVAscBpcUKsSQcpG8v4y1OK85HrppmqzmK/F8st31w+nteKm6SipQDEcJ5M0glcSCQPRS5ZYyifpyMvo0puVk9WksAGfPnuXixYtHiPPNYKC6tNbSdR2z2Yy1tTXG4ymwE1U/vYQQRhlVMt4Hw7hzWFqscfi2w4hQxSwnrvOYKuuVMteiSObcXefCoUHB++wIljV4mjJpaHp8RlwDR5WkMlvyFC+XyfggHOFBW4eMEiL2WEv/jsSHCIArfot59wp1YyDcEbUX48xUXZP0qkMtcCGxKOF9JWcgiQRDDCJVkLAw+Aaa1rJ25vN44hNbvOPv/ApPPjVm8+w5nv3shSD5SsxMKIIRoa4M1WhKXU+YjKCdXcKb/YA4nQscvPH93Ed7aXbMkcTuhPfzS+84rJUQJYjURF0IwbCAczmri7bxYElSLutQrWMG+PuGkO4TklG/XPOwyfozUUp6ob2Xft1ugT25OUQmz3eeqgYleMR2XZNjUMMAA3JQSXkxOlQrrCFy5wEZuqbNMeTZjuyjBJwl+LQ3kyZE4lQIQkVlIqFzHTHLQEac3oczJBKdMT1U1tL5uNbi4/3Bpuvv5Ny9DCBrHpb+ZtxE/zn7GagS7HIGL5KRnUREIM5E84hBKqJq2mEr6Joi0jdufsWTTFZNUxYSTg4h8QxHSSt9LgtDG2MywRnkPD4llITTe59LZCWiVf6W2iffDCDXjUxjSmMcjUaDZ5wUBqpL51x+OWMMk8mUyB9irMG5Ph2YZDWIp5sfsDE9R9d01NZgTI04FxG6BnuRiwQqXgt/EqIMEST4AjkmLFXGkWmJvEKbkuCVRPjIictqPHq/awGpgPheYhk+u4QyhExD6rIj7VbNu0LKbhGYuFBmZEDgvAHxITY+XRcT5sxXYCq8EbwLamTjKzbXXs+nPjXlG/67D/Gvf0N5/WP3s2jgzJkzueySEcNoXOO9YzQak5Jyd53nkOvYahQQW1R5JOeMPK/46BDTSz5GbyCoLhHwvEZKkDzKtXEa5jtNuRTLGO8xp8Sa6d6ScSjHtIopTc887bNuFYyN2gB11GKDXSXEXGC89NknNdjewgi7gMCsZlubVMELz4vrHbxikpXMJmWkGtW5PnoViwapMjMqLku6GoL64v0mMLKE9HfGgzqPsfHsJAbpriVvPWShNhKxhGvKmUnrQfwX0FBYZ1UTMx21eAXxVXDtVgX1uK5C3AhpFe+iLTcyT0kJquqzv0AiUMGCoxDDD5JktAzLTiK3ox5jGkNJPJMaNXljJolxeSypTSlJhsov/ThvmdCVVa5DkK0wGlU0TYqfSYohl5GhetifOaoqLEiaeDES3Jz9UYSTsUuWdvTo9eV7iuZCT/SylFkSu2WCt/x3FWFkxfXlhx/Xpuw/tVGKFHYF4lCDFPEyifCrSG8nUhOQnvdgHF4dXQe1FZxW1JNHeOqZLd7xLf8f//rXF9jKsn/YMh6PWV9fR1WzB+1sLrk0jnOerm1ouwbnlKaxSQSIMdY+D1tVigNUvKZGxnP5fVfNSfxtQHiOYUa0+JuJ3YpluBEo+XWO5TmWYfCs45ic5wmeoEUI4aMGkaC+MV4xhTpehGzfTYORqC4OJhmfJT0f40oFoqNNPJ0Fg6hxMbPWNngsRIlBkMKJivQbfXbF4FQU90Daoxpa9JMZmaMkVt6NEENsMxrwQRuREgP4OC8mEkIvMQ9A9h53wfyRiAvhZucXIT1fC+JH4MeBwYHC2cuk1QqmICnPbSB+5cL85m/+Jp/61KeYTkOij0Qs3vzmN/PII48MiEuSqm4VyoLGJZGDUPj4ueee48Mf/nCuC9q2LbPZjPPnz/NlX/ZlA+kvSXQJTkuAVxK6+XwejYY1k8laJHRQUqIgUoYj4ICuM1EaSTkZPSmu58hcFd8D9x69+24ypyUyLCT24X3HPWsV8bxZ21VwXBsp/pQEIGc38GBCuEDI7uKRFPAb9RyZK3Sg1gQxo/IQ46KaBibTV/Hppzd5x9/5Hd7/CwusDURpZ2cXVU/btjd1uU1MnUQs36tXJDjCEAOLC8N4KSEdYVxuNG/xxiMVXI5rT7+up45tu4V7Bs+6Jcp682aZmCamJt6khWo4dReIiCRMRroDwjmR+JtE92Nf7jvtecYj+1GKL/G3bO/OaxOenaJJB8polUggNUvf+Zayj7sR0h7vPw7DoBIfn6Zbh/yeCGiKS/RVDOQPIf2Ng3G9hp9NMHIfIdQnrnPEnZRrFf84l5xQlKrSqM2B973vfbz3ve8NyS5U6bqO7e1t3ve+9/HqV796QEBuV7LzkkiV4WM7Ozt867d+Kx//+MeZTqd0Xcd8Puerv/qrefOb38zm5uYRqW656PRJ4ajcSCgcmjxvJpMRu7uJgg6xQTCexnvmINkJAVL49M2mSvKCnXjMR+H53HubIW/gtNET/Y7snUZVU5LmwkGIsTQmsuGVRayhbZoYTFYhMqWTc1zafS3v/t7f42f/xSLYUGyFcxoLiq4mcEc3RXEy07d4qR+3DNSAiRjk9FXLEtxJJ+Y08ELdc5r7Sun9hHhgqEwoDu1SF+l7yRSE/ROTNUtJyGVwT0pqYuK+8lo+c/WS5a7yjzq4PvCgzM8unlvsn5fSGXzBYbjAiV/IuC0xIyadr57XiIxWmtyQbk9wIXzAhHCseaPI6NVcvXY//8fP/SKLNnm5lunc0hkP31xMu5difJPKMnnW7+/3NULH4zF1XR9xBLkTgeZJ/VhVIf/uYrHg4OCAg4OD3CYRt/Tsk4Rn3QwGhC4F4C0WCxaLBZub42z8C1LCIPMl3kNVCbjgCpvGcpq5KQ23rxgo1BVQvFviuAe7PKgzQ+7PWHNAW1yrmNrgVGibmmr8CLPmMb71732YH/6xKwHRGEvnNCrsj5/04yqSl1KMqEaDeLpUDDQhtEQbbyTB3Q1Qrt8piB2ccK8X/SZ+PSk8Aj3q1ZsD5+KEL9N2UIL0l5iaJJWtep+4sAlt6uA5xAQGkq8PqPTdvh9gJceixblJkM5c0iQQGcusWYk28cQUdX5MNXot+/ufw9/+n/8Vv/DLV4I6D5+cY0MnsY+kCAiFn7soPVUhHMoYRqNRcFSL7v+JqDRNc4S43KlsKiXRTY4mKeQgBbgvB7o/XxgQuuTh0nUdTdNgTKigXVehBl1sBUg2hCbjp60sGEunntEpNnwW85e4oFXc58uGaSwGW75XCOA1YSNnVYVEu1ewb4oNiM07xRrBtzCaPsK1/Qf49u/6OD/8+JWYeR/wUKulQwleoWbguXTs8LLqI6LRaCcaeNUiQwkiIk9vhut014EO1zM56Nzklt52eJI5y+uQOg4ez8GDMoWuhIZOQDzBDZ1IgLyJIS9SqEmjqEFfDKbfpGmQKZFdH3OVaViMDw3dxOJbGtTgSZV2N0cXJCktaTyUaKcr5yWen9JWh4ZQHW+iFJXyqanBuRqpP4eL1x7j3d/5Ed7/zy9Eu+k4hINIsn0FDUzwlA7hUl3X0jTzqMI02SGkdOiAnulNTiEptAw4oja8HVBmM0nhB4nAlcQ3jafrujye5wMDQlfadpLoO5mMQoaUJUIHfcqZdNlrCCmQE1Lh3FNCnEktokfF1eH3Pi7pVuC0OPq07T3kdEylS7GXUG7HazTZAUY8qTyHqaBzoFohpqXrwPsHUN7I93zf7/HuH3g6eyo6F/zzqhg+4FQLr9jjoZzDlJotGHxdUFVF+48k989iDrK0p69AddWJqXfAUCEmbknVeAOIMfQnc7LJw4jJB5AY/hAIlVeNTiapwkTg/pPUl4iaidQ1eqjHMA4tzlopsSci6LPZwatmtVvq00uSAnqGKY3heZkfXs4w0HiEiUhZnAb8ivb7JSyxQmVQH9o6dVSjMdo1IGPa9kHwb+L7f+jf8e73PBkCT8yYzhEyPBFiKJXgdJKIHcDm5iYbG5tHhloSsdKDMUlZpev/nSpIvMoOuCpNGfSB57dVdVkOIHheeup6RFVXMIN8ArNYnoyMAcl6B2Kji/IJi3N6en1zmc0h2SZ6XTEDm0HOXGL01B5fp52yW5niPJPaF8QMOniHGsUWzHQoQuppW0WNDVICNWLux1Z/gu/6nk/yXf/oGaqRiTEpPmuRO02ljE7IXCxzcyKxVE54USOSnSaSF4r6XmpZlrxf1pD2jS9F15u8lMS9J8TQi5sTuiSgyWnmTeL+R3ppKiHPiD1zHtUili7ViMrleFSQ6Pqs0ZlFM3WW4pVTx0qKcwnELjUJynWig4Ot4vn1sTlBsrxbPS8lUXsvkQHK1Kw/msXnVCpXvQGvODwSc+i2ziP1BuONN/P3/9cP8yP/+BlGtdA5Qr1IYvq/XNXEREkvVQNRfu7nfo5nn302a+nCGIXf+q3fyp+h1+ItqyxtzGF6u9WXJVE9jriV4zsuHOK0cMTrEsLLLhYLvPMYhLpKomNi7/Luzzr9wO2F0jw3y16SIO8DJatdfH6KFvps7b+ne2NKKfGl1+BNnqW3gKgLVdUqQ/KqLrKCKFbkJkqfSpelolDl2qLe4LQLnLYhcmQOlW2cvo4f/dEd3vltnwiZYYwSQlNCrFNiNvp/J9uUmRMv1nsw15r5zb49/buLF06E4V/qkCkQnFxMjTFpWTI6mSST25x0yuKZSMkIyGsQ/TRjjIcXF3i9yFBJ3NgadWMqvWNB777OindNIlqRlSJ5d5KIZMrXGTaQFtsu5z99ue+JU0KW2OI+0swR9ikHs6a5PFBESd0XuWHbDmNqvL2feftq/s+feZrv+f7PsDODySQkxMe3QV+sEhncgC/AhiB/AnF4/PHH+fEf//Hs8ZjWtAwUT2rEUpO3nK3kdkt1pe1vOf3YqmfdDmkOVkh0ieIuFgvarmUyGjMZjwH6ys35BhNUKhFJpBABSS5fJwUhehdKb/wGkn4kS/7S/5iN7hxPcAbvRt/2tDzKMkO2zPuXXkrEcaePAR0pxFDgsOEF70fgQ/CwxswgVbLPtVvU61/Me997gb/1jt8Pc1tZ2i70c9z4TguSxpopGTkNV+kS3TskBIQmR2bgFQBLrzJkxpd3WJHlpqcfp37GzdqWEl3QeaRxJKcDiaEigsmpXyJySmlSCuYxhKObo6rL/oH0Dg3DfRb2QdzjprjGK3hPnAAS6srxwkU2H7RnsPOlzGBEXFcJnVdELSI1++2Yzfv+FD/9k0/yjd/8SQ4XhlEN3hvUp2KsIeduSCrQS/hgguetBCfBoP1ZMeYlj8pVzmq30xFk+dnLQenLn5fb3w44El6QXq5pGpqmYTqeMJ6MYxZ+GJKKwkNIk4pFTnzyo9YlF4WGfDZ7BrsYV8qfOKCGJ1gLPfKBjBSOJ2NL92hQAw276RFLKSGFIUaFpdcozfW3qNbgQ6kgtQ5TVYh0NC207Rm2zn0J//hHZ3zj//hRnBDygHaQMqyECNJyfLe4IfP8FRlRJDIzyctuWWqJ99z+I7A8sFUS6snYmtWt+lRYS8d66a7weYi2V++JUohJWkQ5iWCt/R9dujzYq8uvmWLYen+FyNVTPJyeF5Ik+aX0fWGRB55/5dNz3GTURAzOsUZetFd/SrkXtBz9YHMW1+J5oXeJL9skcp4I+nG74KUGYWqTV6oO3yjiDYEiRhXUpLXwUIG2GzRui61zb+Rn3n+Jv/0tf8ThAmxdBXzhOvAeIxZjU1HsqF2QmABeJaocG6xN0l4/mtLZA4aJkZfVhnfK4/LFgpVxdJnYLRpkU6iqUUwQ6ggHQDPS1TiZKSdbktOXt325abPKJx02IbvKqinT2iQGJmRayb1JkkbIHPWNlqWXvEhmp+IQy4qWw0upfekRWvY36A561ZaPCZDLFwQQR9seYqwg1qN4vKuh22Rt/c381D/1fOP/9Gt0qkhd0flwD1IhXnvvyOdD5EiHM6b4imnRwnr0E5X4fonvmCXpO8q430g6uPmDVyNIGezD1f31n7OqT3XpnkJ1SVrr4u9xc9NnzwtMBEQvxp6zzs4k6YsO8xlqZN9TSHdK72V8cBIZqNcT0o2qTo8PKufURnvVa8ZpSWWtifEpE5dHAhU9hk1BBwfnSVbPZ/m9DJIfzmxP7IBj1uulBf0RDBtAJeUV7Ul1iigOWWV8SAYR2zuv2HpCK2uMpp/Lv/ogfNPbf4+LVzxmMsG1gXBVQG0NjXPgLVYqVNq454LjEEAXC+M65+gdzcJvfVowyX9vZCO7ncVSX2zIhG4VFe9czMGXDYgdYk0sghwwbZJWem6mP7SJJpbEQfJ/9Agzum4FVYjERMmhkSu2TTLKJ1f4jBj0xochJYhOo843IRnRE0viJEeDDJljj+HvWrpnl3M2RK05ka6GelNh0lxwI1YFCQ4lxoCaCYvFGdYnf4xf+pUp3/C3foH9hWM8XWfedjF/FKTq04lu9l8GFwpYxVkXiM2DesFjQ4CqmJjpXkhlYjQZ9KL7usScfH0CgTsBJakq5/dkqC+5bg9bRX9Cleh7klJhLa2fJmQlMc9xSqOkfY6txMgVG29ZosvVCuJG7e1ZYa8J4NQGT9xkp5AidinuQ/GxfoQElOkwdGIQDRk0jPPxjBhcrDzv45423qISvH+9Cqn0U4tSq8Gls5oPacE5ZlIeh6OC+pgG0Nss3akSw12U4GJh+jOk2p+pYu1EfazBls5zItLhrCQCkc5t8hUqpec7Daex4yf84CNJM9mW6fOmCGMPWCGtUfhpzGK+xcbWH+NDvyb81f/61/jsZUc9GdP6MYjDVgajDY1TNqc1s1mDow740/RLJmpRCcV7E1OkHJ2sZZVlyqa0Kkj7lSLZZUK36oUODw/xolSjEaPRmPl8gTpH8PIRVB1l3TZJ3kYkokUmcqskOiRngQwjMQbjKmZ7c0xVU6+t4Y3BaqiTZbTOB8OLjbFMmrmo+CIFJ544KqLzR0if4whVrU1MciwGjKkit2px3qPeYY0EtzIF1C5xoolrBpsSIod8XFE9oDFgBpQKLx6kDT2oUFeCHQlt13I4P8N4/AX8wgeFv/jX/iWzRYsYibWgFDQRupiVvpQOMsEx0TRdEjwbf4vFc/O4LaqOsZlg6imYc2AWGUlbI/FZ0V6T7hWNhvNkeRymr1omQ5EVCFciUUjFYlWgsnX0HitViqXyyvWME5J/6Tn+NAbT36uBiOTs05KSCgoqIW+/j9IK4sB4vOswMooJl6EyFdpqLBvlEXGYsaJtk8sYYRRnJPMYgxRMKoi3BePkSW7fakIaelWHtTV4E2vBEcr0pEwDGrLkqLGBJ/Id1qxRje/DyMNY00bEGc6gURvfUTHiI1MY94dJzGiMX+oEM30QM23jshZImRAY51GoekSpjLF2HVPPMX6BGkfnHMZGIqchX6NSqD01pLGSnPFDoqLA4VJpBAk57wKhs3H9wm+hDmIMcRCTGUSjR9Wayzhm+dqN9+jRayWTfiPQtNWMYmyFtYZ2/zrGOMTYsOdj8HPXeYy1qIeFc4ynaxzuThhNP58P/cYm//lf/b/5zOUFa+tjmoWC20cE6qpm3ij/1df/e/zJL/xC3v6O94BrQGysViAZsYoEJ7Vv/ua386Vf+iXZASXFrCVPytIZZW1tjde97nU5fm2Vc8rLHVaqLoE8Qc45xAi2HjbVKF1IjHpUUaSInD0RoUtnhMD5utZjFdY2HmS+mHB5Z0Lr1hHfBUlCR9kw700gKrJM6MLg0kvkZxpjsjTZ4cF7bIwJCsGUFi+C01DMwMZqAWg4WGJCpfN+3QM3ijFYY2gjsgpSXohJUwnIyouNh7XFRKRkqAKRtQZG5/nIx8a8/Z0/zcEslOFwLoVopETaSWrrT59k6VIA15O4nMAmIZ1Yc0+hJHg7B2e4enmLg/0patpQL06Cg4Nql9fJEzNwxCBk1JY7ZXnrLIGPhBGsjRUcELyGd/N++E795+hMUaKtks1OG0mF5B0hkckJJLGL7SM59LbQBCStgCLSZtWPlRHGjkKMoodRVYM60F329y9z7uyYza0G73YxpoqIXEA6Eu0M7xeYHAnCG6oGo0F9qKlumxcUi5oqOBYAvcdich2PBF4C537x0piP/L6lNg+gxOog4oMEoTZKRBoIBNJ7x0p0Q49SROcN07UJz1yIBBaDlcTsJr2MgFe8qRA6Fu06Fy9+Dt1+BdpibEXjAwKvxASmQTwhy0/v6i50iEQiHBOai3haMXg1iDQYdVkiQW38q9EBJgXLhwTTUvhl3wkUXOKpEwp04T5VbF2zmF9ja23K1toc8VdwPjC3aoK9zUSV4MgYDvc807U38dRn7udv/Lf/F595boGdBqKm2mKNYIwyb+Z87X/0IP/Lt76FX/rgs4SyO4El1KR5QVHtsCawu1/1VV/JV3zFV5z4vdu2zWkfXynErYSqjFQvIUWrd21HPaqWotNLgtarWjQj3h4f3Ux1mb4K0QMRRUb384mPzvmeH/okF66uxRIyEcFGNUhSPy1LdFmlpj4Q6KgPV+0D4qtKcK0LDobZU82ANThV1AYE0zVBEgrVxYN01EsRaeSa8V06Id77EA5ArLEkIcUXEhCDeMH6CkFovWO8/ix/8PHn+PgnHZUYXKy2LqF4UZZhCotJJH+xXxS10YlEKbSYbZqUwdp6H5iUb/9H/y8/9rMjui4U27QC1pjC/uLT0kZBWSEWiRzOwzGcsZTEB0Ji2chJakBaXinUJP1+KJ/RX1uW6Mrnaoz1i9KJuJ4IZtZ8iUCqoMYH5IsCQarvvIYq4BgmldDM9viCP77gr/yV11Ov7TKajujaBVbrsM/S/lYycQvZuYkq/QqvFlWPuhZjBIcNiN7UVJHQGTVxxvswlBSP2gL/9Gc+zr/8Fx+nkpD1rVPQimybI72a6bNuZL4g9icaujTVbzJr1sM91tI6xUYNB0T9gK3xXQd0/MRPfYLf+vAzaHsY1rAKaaWSL6gX3zvi5Ej6OIC0f5KziwnEVaN6TyUUZxaCROs9vUlBUh7PwFgaPc7Wensg76e8509wR1TrV9awWFzny75knbd/0+eD7oFtgyf7KOwVP2/ilEzZnL6Oj3x8zDe94wN8+tOHVKYCpzjfYWwovNy2yle99Szf9z1fwUP3P0O7eIaRhVlb4N7E7kpvj5vP56hqLryapLUkwJQe9onZT84qbdsyGo1OlGXp5QLVjQyOzjl8VGFZawu1QB8QnradRORYCDzDv6sgbiYjgaiEbN8edY7dQ8svftDzmWv7N+jgdFBbwRqYtzdePGPBn7LeYGUITiO3BFfDc43EPpSgbuztgUNSV27wROrC/dPJFGPDphfGQVq1AcmICMYajAExLZ95ruHJpxdUdY2RUPvKNQ3zecPhYsGdguQP9nKBL/18eOdf/HJe+9gObXcR37XYaM8MdhGCZBj3f8h6EypBSFxLbyrwBvU2OvV4PAuMtJEpAtFeWoFewDMY1Hmu7xISrJOUukcP1zAbLcWZ7T9bkgvZAZhki/cxFq/CmJB9xbct4DCV5WOfvMbHPnntdk/tKxImY3Cs43zLuAraIucX+BYqKywWlqp+DZeuv5p/+B3/hl/+0CHrI8FYofMeXGB8Oqf8+285w/d971s4s/lHtHMYjyQE8QvRj6FcbSidS0QkCyilW3/KL1mm4koELn3uum5QpuflTvBWqi7LOItkpLQ22XsS910eIXoDaL7AiViuwPgpxoI10HmFsaWaTBhvgN2xiEkZGhQhqIE0FnwUji5AYKolSog53ylnz56hHll2D/c4PAycVQoXErF4daxtTqmrit1rB4Al2fuC1aIg7pnVU9bWJoxGFdev7zMajTh7dou26bi+u4vrXM/RFmM02KDydF2QJhWcDzaN/j2WJ7T/pMAgjsvBdG3Kax59FO8XqBiMTIKEqR4hqoUEVBrEdHga5k2D+IrFLKguNre22NpSnv7sZ7FRfvJRraTDp998cenXLIw3/NvcXKdrOw4OF6fob1mpdBzUBAbBxR6jDVATB3w0m4kRixjBeY+tDN512EpoZspb/2zFP3nP1/LoIxeY7X2a8WgRwkGakGEerRCtUBPdvRX69CBRmhEF7RCpUcZRzTQDCYUyM1OV7Ilpw6RJUxBsTOIS9n1dVbTOZzswGmxFpthnWXhFoodtahf7sj5oMFIQcZxbl9TJKSjde0wd1fYuytQ2jE/88mpI/w5Ri1EuYe8hnWyuZQ3EJE0Zlh31Xw5ga0vXOs6ctcA4qFqN0rgORLG1oWlrqo3Xc+HSw3zLuz7EP/uFQ8YGViTaAQAAIABJREFUFh2YCoytMKajaxxveAy+49vewqOPXOJg7w/YOPt5dO0Cl0IkJeHcfsVLzQiQCVbC56sCtJfTbZW2ujudDuyFgmqVW2lJ6FwXFqmqA6fnfPIMW9rekia+0D+dGGI0kAreBaSsHXQdKAbv2kxYTUx7k0jcsuCVUGHvURaQmnPB9qaNIH6Ea5tC3UnuSbsab0c4PyMZ07MaJsPw/bvOUNdjvD/Ae8G5irZzdC5UAx6w1Vkh5WhzHIuLispw7G8k7ZTcORoteBrQuVXD2I559vJF9g4Owmx5DcSWOupjOrx2EcmGjkSraHP1nD27zWQ6xrngRqCpymo+UKU0eRLidGTUeF/jVXBuvtRWlv4uI7qTIL40ppwLK96WkO9RUd2LhS4ShEgpupnyH7xlxHd/+1s4/9BTHOx+hI11j7YtvpWoZnIEdXRkAXxA8sETzg89MY2C7zB2GlVFE1RHeF3DVHFejNJvmKRqtXg6kGiPEQFxNF0kD14zhXBKLsCq9IHigUdMV4MqVaTCuRmgSBXoUdB8F45Lac2NwbtAhEXHgWD6huwFXE790j4PDlF9BfPMmfl+fcvVTuf65UXiAni1qHe4uWdkPU57VbB30HZgRg+yc/BavvdHnuDHfnqfyTh4sYoITdcxGoc3f8Ojwg9895/lC98052DnE0zHLco8SAORl9Cs/Umz1afLapomE7OkonTOncgGt7a2lj8nJ5aXOxwbMA7gVWmaFtFQRsFa23N7R+5Le1hOz/RDiA8zglXQuaOqaqyBUV3RxIrn6UQsRzaVB2x5ZDmPJin7iKWTGkvwPMz4JN3vPbVYqsrQtU0gBFHXlt8PzZ+DmN8iMkGEaNdsWVufMG8mzLrDOMSkdEyScQsp7NCFiMRV0ulgjo68X2kpC5+8F/b3ZxzMllWPZVLuoiOxxJIJgFKPLHVlji6deLLLe16BG4+330pDRsqY4Bl4VIE5JIxHuc+SCB59VmC0UiiAHuOdmnBuyeB5jB3j6ahMRzOH/+RrNvnOf/jlPHT2adzhx1gfLfCNBrWkDUjDCqgEz8xkGw5Sdp+LVCTmgxTAeNR3qLV4N8JUr+dw/xE+8YcfDe2gz6CAiayPRazHe4dUwX4aSq7ExiaydUK21VkPmL4oq2JJicNRxapBjOC7oMRUF6bHENX2PoQjhA1qCSyPjzg2MAzR3QUI51aNRk9PEx1HbPhNPWKCs5pGdg4s4j24Dh8dZsI9aU0KZrnkkQbM1ktJwoinIRK1ca3gWvDgBIwVnBNEznO4eAP/4H/7MN/7g5fBCLOmwsR0JpWBdtFx/n74zm/7M3zlW6fsX/8t1sYdi24RmNO4p/v9fvw8JPVkSax+8Rd/kd/93d9lNBqFoPOo3ixj7JINbzKZ8PTTTwOs9ON4OUG1Svfax/KEnJdIcMU30ifj7PnG3LQgBJx4LyohRCAc8OSpZnGuC4sqQwWGH3yS4/BeACPRKz80WLQt4/EaQSVZRabSZS2kwYBTxtZSRcTjo9iYUbCW79x/rusqck9Z40Oq4iDRgG4YOswTVauJMe/jg9L8ekoubVmmTP+nWENvDGpjXTkIefN84tBXTJIExKURsQK4xiFjQ11VNEGkLlQk2gt3N5j2G0H2DqtuvjlWz/XxTw1NPNZYnLqEoyOTpCSVmqJUVPiYYcZrhxFDJZ7F3PH1/9kD/P13fTGveuApdPEkdeXA1cFBwgabNRJZC3EFLo7OVFUkADEvaQoKN5UEWw0TvHmIZv4G/u67PsKP/+wfMBpDUwhTSaYDJZSRd/iuLfZ/CAxmRcWKDsjietZ7pHYatB0ZsVWZuFgB7zxVLbStoDIOlM/toUGupJcTi+e6cm1c/LfEWOXPPvxmbEw3kTZURCAl4ji64SOYYbsXFdLZUdAuXlE65wPOBNrO4Nmk09fxnvd+lh96z2WoIkZwFq+ecaU0jbI+Mnznt/0p/sOvhIPd32Z9fIB6QxULLFciWYtDTP+2ynw2m80G6krVUOz0/e9/Pz/8wz98+rd8JdroSgiISaMGI7qypo1ZbLZbVV2Go5j6SIGxilCRlJXZu7CQ6tLoik6Gz1R6QhLBGEs1qhl50L1eolCIeTx9H4emvdyYu08BsoUGRlWxxjIeT6MHUxjQbLagaZrYfyQiWRYqkETPU2TU0CMMWKVqWwkGnDhaPC7GSwUu7BhOIEnH2tFvg+Dybm0dOfIuujFzBLfdCoQcjBpCOSL32xPR2wWREGm00xYSbOmV5gq1W20M2jU0wH/5ddv8vXd+Eefvv0p3+EnqqiHEtBnAghOMONTEnpMXqhQkyEUPUAvqfGZ8XKs4dSzcFmubX8g73v47/MBPfJzKCm0b9Q5FXCooXnywuxn4vDdu8MbXbyH+WggFAdSEZOrpNRMpxwf7n4mMoo+erx5D13omk/M8+ZTyOx99DjEjxAcHM4+PhCtGIrsW8PzJN53l9Y9Owe2BdHgBazxeFZcz7KTsH/1fEytz+JjZp22hqrb4nd+5xtPPBM9nf2T9/fBMl38HTNtLBflG1tWYWE9OQCvw4xDz67aQ+o/z+I9+hr/7bZ/A///svXm8bVdV5/sdc6619mluk4YkhEAgkBCMITTS2kGppR8pFcSiQAH10RTSE2kSSAIkGFqxrQLf8yOKiorip8qPz8JX+uSJIBFBkBC6ECAhzU1723N3s9ac4/0x5pxr7X3OuU1yb7iEzPvZd6+z9mrmmmvO0Y/foEa0spw31yIEQqtsHcGb33geP/PU+zBb+1dq9uI0lePRnDLiikBsysVwPHoCmLW5ReST1dVVvPcb+uA28uF1Xfdtz+TgUBidaoqMdH3JBOlNcYvtcJ2WAgkYWlLEtxYtTmEeVWF46Uwhhwxuw4XRb3vvGY0aI/AuOSVcNkVqCroRmqUa8RWEroAyu5Ib1DO4UhZDrI/eV7TthL1799K2HaoB58GcGiW0A/NZyMZ9Xfz7IGNH6h8CGjtChKp2TCEx3i4hzaQzJIV+pzw1QXESQB0Ry4lq6iVElCpZWc30Jmms7jy3cwnfr64b03AcbJbecghXY+MXrqCBkfd0qWafA7zzdDEkocOhdIPFbWFGL3zmqVx04TmcesIO2r3XUDezUsMtj5XEJKhoyvOiQqJDaYEc/u4Myi6EZBU201XXeaI/HvzZvPNXv8xv/95XaJoKVYN2I7blnSa4XkTM0hCBp//UQ3nFy55AmF1J7QKW1O+SoJiRePJfIdU6HOiGAlEck6lw3H0ey59+YAcvetWfUYmYDpaEO/PVmbDlXSRE+LlnPZIXPe9Mxnu/QeUnqAScswCtKDnJ3foqKfFPo6TCrIGgEaVm0jq2bT2L81/z9/zhn31jsKQXhNbDWAfHSnPe7L5GlhzOLRN0ldHobD7wF/u4+PJrmLYe8atoVET34JzNvaDw5tefy8t/6WTi7AtU7MOrmXTzXDXIOJn3/W6i0fVMsKdVeb4PKxjktbcZo7snMDnYIBhlscUQiDGUPAug16yOQJvTmsQE5+hiSnxNPMLF/p4xHa3ZtJd8R6UJi7b+rBE6DCPOacCrI/gcjWi5VjG2rO0fc8ft+xhPzI7Uy/2bE+PxeMKuO9YYj+2cyWSycERHn+x99KTR6f4p411T4tTeU4wpIXioAaumsWuAadIve+12z64Jjr1Mkjbat2Hf71zLi2r3zjGImC/oTtv+e1Pc/Le1aQiMXIPGSEBpU2ijd9GkbNUUZm0+4Jf+4qlc8vpzWF2+kba7DpH9VvYkO/8FRIOlZmQrm0AOyMigukqVJPAUbQtmnZBl8CewtPVsfuXyr3Ppu7/CqIFpNCLmXUMMAszS+0iAA+Loonm24A4afx31ytdomOC85fxZUrni1OFKaZ5kHYl1ijKN4JSowpalhuXRyaw0Nj8cdmwshJH0cB0urYGVZifbtlzNiG9QyQQhJgEq0mVMTBVEovUBQcTjvKPTDnWOtnNsXRqxtLTMluVJuZet5MzoBmbLoXa7OPWOltXyLjBYjcmCpEJwHbOu5bjjzuVPPriLV7zq04w7qJZWmLUONFBLjbiW2CpvuehMXvjC45Duq2h7C05afAWaaIfTqtAphIPCoKnGUoJnowjLzbY3+/3bvW3ooxu2PFCWf+UWfh2qU+t/mTtkoF2VsxLvUk3O7Cx/FpxF1r9REZwmKKf+DPs/aVYittiHqREx2HNoiHiv1LWnm1gy7NLSCGLH9q0Vp91/O7WPEJaJcRm8MxQPt36cki4IqvhqTIwNzjXEKIUQliCBmEPc8/7B9ZJ4tpgZVXSVgeJa8P4YElswWC3PyvLtTNbGSLdqJkxTYFLYuUnbZuNf4wGnbWd1qzOUmORXiiFSVXt40AO3EtK9rDSL9Er1ISy0xZZ0dlTBe0sn6dotc6brdWdsoJWX+ZZF2kE/BCFoR1U17No55oYbJnRhxKyLCXSAVC9MWa5GKDMm05YXP+9kLnnDOWxduQWNN7G0FJHOJRSuHOhhsFpm0tYC2mKwVyBa2WC5SGg7XJUACGKkaWq62Va8nMOv/ca1/P4ffoVlSaajEFFpU+6dwczpYMSyhuoceF3Dh12M/G7QfThn+ZuZWYjOTYe0kcHIM55kig7sbiKG7TZwLhCDkgu5ChWWbdciSaBo230E1oBbQPcnc6yZKL3EdcaW/Ppyxox3EKJH3DYcu5jsz0x2gafM2TGHV12YcEeTBh/mtcuYJ3+pIIRwHFKfzV99eI1Xv/4z7Oug8hWzyQREEDrEK+Icr3nZGbzkhQ9gub4awm001czmaqCgTWkqYxYlgWUADIR56APk7CedY3SlrwOL27dKY9uMwR7NFIaDmi6j9gPYM7r5Qd2oZTDWuWC5wW+9GmfXE3pgV6vN5Ir6Xd5nOjYOvFmlP2RJlHkNT7PRULCSORFXtdQjCFEYNTVr+6accrzwjrc/kf/4w6fgZQe1dITO4Z1nFiaon1k4W9T+oVRQzFSxsrzMJBerTSgl4l1hSi4maKMSpUeRxHuSFs33o743Syam4vJ4Docts48YiXhctYU9ayfxi8/+KDfffCLLx22li5EgimOGi4rHUfuWyf5rePc7nsBjHzOi63ZSj5QQZjgxE8ykHSe/kyOEDt/UfcDQesTkA7REPFN4c57QdV3Tta0JLi5hjiYfmuGfxLTShzfKOWbSb+ePZvPcDJUt3LRjhRe+4GN8+soxVSV0sQI/InZjqrojTAMtyot+4b5cfMHZHL9lB7PJzSwvWx9CjLioxcJc5m6aZ5I1O0fKpwMkorTUoxGzmRKDJzroWmF15cH87Ydv44LLrqKRilFTs3866YEGpLPc0Cj0IflprqkB9dYCI9fgY21BIsSiRWgyh9ga6AOsctWBLFhacIxpdz2okeXm4Zz5IGnS/ErYrChdCKhUiHMlOjSXvCtC3eCtAAkxyCqSayd4V6FSgauofA7QKpmORdAbkMG52T58B0e7DdfZZvcbkjEbk5oYp8w62Lb1UXzkn/+el77yY+y4w1M7STmz4NwUpWPSwkuf9wAuuuAsluRLaLiNGCYlBC1ryYoWl04QR0jT3ZWcOevJkB7nQJT82fQ5vwXMbqM6dEc7T+/gjC7hXVZaDTq1mKmzvs2hjC9qdJl4aBbSpY8ziSkUWa0USF2PqBuPBjVIL2f5fJ6UXFmbf8NBMtc4lApXWx9HdY3EmnYWaJYcrlGiX+a4k09htaqQ2S7khDt45csfzTP+00l03RdAb2OpUlztzHy1FOkIKcwhQ0qZ/dyJIs6jMTIaJbt2zIDI9tCSAYWjkTBNaplAQpqXhJRhDudixx2gyvaJBPPLr9S4dQ1Rxoz3dexZm3LTHTsY7dtJ10GgwyCxjGF6H+lapW33cPw2Zbp2Pd7PCD4gYiHsSy6TH2PA4oSSYnBQEpAnAYV4eRyxNuKaIYdYYp6WJe0xE704IIGWnDYYm3UTzJhlVcG0rTjhjLN444WP5MWv+BduvL1D3AjFG/B2aFkedVzwS2fyqleeTuOvp53eSlN3aDcFZubCLHKdS27Y2CuSqUsxGn9Qb2ZrjUIMAZ+EIanuw2jlu/jQ/9jLRW/6d2rviOrZPwuDiMNkG1ClB+LWRD3VtHUHrSpt7PDS4pU0h4ZzLGNG9sOSM06znOjU1okNY5b+00PFDMCcojudFpmxQvBR6WKkcs7SA1I0q8saXNbikoArKkS1dBLUAmtUWySGnA6WPdZsnBy+EQE5usocDJnvZvfrV+Pc9E0HLm1/IB/+/8ac/9pPcttOx2g0opt15q+N5ruPEZ733ON52UtOYqn6Mjq7HqFNka+9IAXDeRgTDFpSJAb6/0YaXfbLHYiJ3KvRpRY3kAyGuWSbtbxACi7vIqNL+yyhe4hxYlqXiEUXxaCsrjQm5TiPc2LFBxVc5fC1N+xIVVQCUTyqNVI5prMxbdcS2g6Ngs4UNxrRiWffWst4fBvt3v285Y1n85yfPREXP0ujN+F9i4Zo+H0AgZT9M1/Kp0ym2CfYl4kGxXlcGHs/BKX5TbY3GFF6OS9pcvQWVZUacY4qbkEjrO3fx9r+fSwSiWEPxtP9aJgg4RacmHnMTLxCLX1mnyOkIAzKvsOdkpmE5+dczDXeqA21g/krZV1guGBMsAj7A149oYMf/eFzeOtl5/LLr/ssd6yN8c78X00F57/y/pz/sgfSyNV4twdz+E8RTVK3N74exeHUM4yWzXNbEZwoIYBvbNxmrVK5pAn6VZx/MB/758gFb/kMX7tO8X4eyNrWVB9Jl1mTZKCu5IoUUdT7BPca0GhEL8cWSTZTQyq1lLZVTdtzavNUek0re/4kZx8rGPm0xSmS5jtQ4VKgiSb4sxRpmadXWcuDtS8WJWgecgUNRAnJrbDey7q4Pf++7762Ub/mW17jg7VOBiqHb+5QLnvrX3D1NWvUdWUWlzQ43guhi/z0U1Z5/WsfzIPut5swvpZRlQJEBCqfhICkZBcBV1K+bVYKkqCxTpOAgzK4b2X7ljA6q0h7YKojIoiTUvy07+jmHROlVBxZVPyGEmfWvBUlugwzFFMoOoz376drIyEkfSf7EdI5w0TZomfKEKJMcZVJSdu2beH4E8+kUdi17wZ27t3P+b90Ms/++dOI8kU8t+Erw/cznF2fcuH62LWc/mB97zE+Nf2bM9UmH1Jf++wgb2N4zLrj15MDzWPrkjNfFOdi0SSt3E4Ghu7R8EU8MbZ4TypRZB9yZKWm8B1Roigu+6fogZmEgz+Plv/s2OEYHOjULB1L1u2k11zWj0OKi43Rkm59QnPxUyb6JZ75rDO54aYH87a3fw1fd0wivOSlp/KS8x8AfIVuchPVCCTpFcXSoIM+p3EjGtQXWXNREPF4IrFTonqW6hW6MKalwjcP5orPKC982T/xta9B03ja2SDNfmDZ6IlVD2+QiVs2T2XtLOOWZmFr2FFNfc8C0HzV+3yuHdinAqVJDCX3M7+7Mu81E9Y+Oi+f71RS5HS6nGIVtKN1PiPOSMxvtK8CUuaB9PebN2Aei8R6KLmnPXmQgH/4hyutoKozHFHnI64e4UJL1wV+8odrLn/To3jgqXsI05vwTsvlhmumd0Frei/2njXvn2MM+U0N+nSMBpN8S0yXB2NyRYvLUkXZp8iBqPdAa1t3yKKSUSb5gMqXc1pCMNxKhILQX07X+WnnkBRw4Ym09lsyLzWjEWE2pdFA2LeXX3ru/XjdBeextPxltN2B9zE574XoSLlAlT2CpMhJxUw+mRimCabDv+eYne2bS4/alJktjAmLxw0Xv8zRxzIGOj/hVbMJsF892UxkQ5oIqgpKyjPTLNMPiZ6AWk6UDh2GB2iZYaVycOufa5OTCpixZvKeThxy2ER0y3CJFMYjrgKBir2006v5r88/j6uvuokPf3jM5W99EM98zv2o3dfR8c2MqgaYkYM1MhWRkkqR4gGHNfgS5pok4UIFui4hwaN0rFAtncGVX9nGK179Ub78NWhGnq7tq01k4jUY4XXkfXhsOUxl7kBJ8yJjTvaCVz+OWUCbO1eGJaf6+2RhaMjl7PmVXG6JlFYzFPKGgTC29nPkpxkCs89+0boxfO+b/HEMtg0ms5J8zUJUD8wKjRAPTltmXcf3f88Sb730cZz5wD0wvpHahcK4cr5kES7KtyQzs2nnw98P2MtjVKP7VrRDyqMDFlThgzC53IYE/QCHZAmvBJ7kCMR0fsyRWAeLELWMKQQpuWOK5c9FjbSTQBUDd9x0A8/6mZN59avPZOvKNyDsoKqw6ihqJjvRmHyFVlXZkOXNhxVL3wYibyYWC2tgGCU5NyaL2wOVZ4GGDy4Sk4nO905oEQuyQcENGW46NVO9ge0+JxGLhYMmE1SCbtI+v86eLRExyRprng+HSIx6ZcOEh3mwlw1P0DwOKU87x2TMmWkkMjT29r84M8UFkKDU1YSl5Wu54NVn8CNPnvFTzzgJ+AJxtovV0RKzPULV+GR6hAyHlgM4LJsl4jQWQl0YQAQnyiwqzjcgnmlQXH0GV197Aq84/9N89kqlHnna1kxYJdAmVYLue0+5sJTv4a9pENYL7v0gy9yedd/5Lvm+/f37ozaCdZvvTf93j/HTb/cH5cFKv4sudnH9TXTDP47hNmBF4hIKEYDHyRIqUxvkqKhGHvldI97y5sdxzkPXoL3W1mGIUB/8ictI3gXedaxoeENz5d3Vp4MyugxfZNFbPWM6UhMxL2JNUroRNDGJOTOLxLSG3MKk/X6p5f2aMAJbbckEIETQIKwuLdOOr+fJPxB46688mtXtX0PbG6ilhZlN1ozeEZOjQ9zUmF3umw5kXk1kaaDh9cEkdvsFAXzTJllaE51nIpmyJiJvwkagwLAlrhizDiDMMboS3JHLNAzGK2skaDZH5ctl5jhAqCBpuqT8rlxz7CDv1qkxuBR5fwiDYf0R1EKri4aXB3M4EXKwSs6TBCUSwoSqgsq3CFO6dszZDzmOsx6yyqT9GrCbxoG2M5aWGsNqjHYdSZBwvSXD/isRxGS5Ic8BxdJLHbNuGarTuPn203nlqz/Oxz+528xXrSaYtcwQZGEMhjJ63GD7yLYS/j98IBYmzr3tENqA7qhSVTWhU6AyC1SqFtKFjvtsEX7jV7+H73sstJPrkLCb2nlUul5L06PL3jeKyry729AXN1SeFv12R7p/B9foZJCALUN578gswESek1kklstmwguuaBOFEmtG+JeB5JhLfiyY6uoaiZ6lJnLzLTfxyO9f4t3v/jG2bbuG/eNrWG0UCQq+Sk78lJ2nFunmkgM9E9qhpll8dcq8FjQYnkyXDz5a2Y/X+x3LBWK+UAq/F03aqpbnHPDWheyKRVl7MNkRSJWbEZM687cpqUOuFBNvywz3ECZhVkR1MBaHchKU8c+MRrJ6PhdpmSHcetFLNViUn+y3c6LBCsYwJkRP463SeQwBpxGnU2IuYZQzM/McNLdfyVuS1D3BJTDiQOxAK88sVFTNA9m593RefcGn+fuP3m5pDV1GZoFu0yKHusG2Dp71yBKkkg5QfHRkKe3bQ5E6Ztqc9G2mc19Z8Jqv8B6mszGn3xfe/fZH8fhHQ5h8hboag6/QMEuTM1tP7r6e39115g6WqD5kesNo0SFyy11pB2d0MSboJqzqbaHaR3JVSE9AUvFJ51zCq00mJcX+m7tl/lsSg4igXbJnB/AVzARXBcazlu99xDKXXfqjbN12PV13PStNhdPWiLd22SmEkDbTvXzWHovg3W8PmU35e0Dg15kuDzgMWh6rfGdRL6asb9OT0rMnwinztsDhX8VUtuk9c2BDD/4sSaM202CPmoIU8eKQHshlBjF4TYfSstkw1yEtvnoZPHsZB5DB84kzaLH81Jk5OQHxaY6EhPAvzsLfIwmL0QY+nydZYXYCAYIqBfMSwDtEO2JswJ3Czn2n84rXXMVf/s31jCph1pG0zUiMHR4hkMvwDFt+0RvkBg7cBUe63avA3dU2L8XG0IILgKNyFSEElkbw9rd8H099SiBMvoiXCaotuFxFXg95XdzVtohtuREq0Z1lgMNK5Qe67pBhDY9bPG8xiv2utoObLosTNBFwNGkBdx7zcKOmYkZHY2o5qiv9diDBNmesaoIAydyFCqTB+UjXTTj15CV+/d1P45GP2sN47RuM/BinWiT4mHLxiiYm/aVloJYMJfsDP1AiV0X7O+jhvVYytNDJ8IgSi9f7M9MYyMCvOZwbhpHXB8PI4KIZ97HUH5xTvRKVL2zTBI4yRvPC7AHHoFzyMNvw0aV0OzO5OR02pQHEAa7n4PwsF2AAyf1YpAvnmnLaj51qCUBFZwp1hbYB52uDD/P2JqJriHoSMT6ciy/5Nz70V9dR18K0tXy43ntV2Ofmg7U4qHPPe+TahhpdFnDuZX6H0fJkERMCkwxk1o4ZozryrsvO5ZlPX2W6/zNUfg9OUyHjKMlSRQpuu3sY3mZRjsMapBkcZNF86L2fY0aLKCybMc98DFgZsww8koEjDtS3+ZS2O98OinUpKZJIxfwMie1xpO0cQu8nQgbb9mfvo1u8pfZX6PEvBVjCRSWGGSffZ8Tv/rcf4FGP2sm+fZ9lVO9FtS35eyT/DMnwyRyTS0EaLoKLh0awB4zqUH10w0cpr7RwPgo0Sma6fX02O7AP/Z6X1DVH9mUHMHkh9vcxgOUsyAxvPMwPgTk6eCjzbo57H+I5w/MWz83qYenAgHlkeSf9KSEpwdAXmE3zqBeckrl2aK5U5hTrDGgd24ivRsk4boEkMTiCO4lOz+Id7/o8f/yn19E4oe1cGaxh/Kque7CFh07g2vPtyAqUwKY+uruJ1t6DmpT/LVcRq1gRIyEob3zNOTzv508lTD9FxV4LPpGIqEM01eQrkVZ6eGvkMNsilmXbtgc8dpEnHAwrM/99KEgrQ4aa+9G2bbnHkBHmrID18JOH1w5Jo8tagSGQwwHfyJz2dQjkfXCpjfJESbEHAAAgAElEQVQrDtoEcp0xC54whjeqPdPZbk45ccT/9d++n//w5MD+fVexVN+OuLY3K+YQR7GL6aKvMMowgKynrwcb94HFKWto5Xvwe96fh2pu2HT+On2+xjqEwKTRsYlGpyUlIuOBWjOzZNk31OjUmRlmQcrf6K3krg19g/Na2CYnbtY2O2fu7/XJmZYm0WspfbCqTypaLI9XLE5ZU0+mTCmQS+CwEPoQs5QrtDHgfU3QCnXH0cm5/NZ7vshvvPdaImKBT5InSRxodIsjtsFD6+IxQ6Z+hFUtWb8tR/I2urBZmP49qdlEKs+lDtqABy58zem84uUPop1cSa27qRvMLeMwaDmNZZ7NRaEsCIVz5DRLczD/4yG0zDREhNXVVY4//njatiUk5KvcqqqiaZpihrz55ptLqZ7hcSeeeCIhBOq6ZjQaAcasbr755g2ZXabnWSvM/VldXWXbtm1s27YNVeXmm28uvw/RXe5qOyios5Oswg45+JC7z3cim78MIUEWQFrnWybM2QmnsrjYD6FpnmoRkUiG5epmezluWXjbZY/gx39sienaJ1luduNoi5bVa2cuRSvmFZ/2KikRVhMlHDzuJrQqE/i5kckEl/47H5CZX5RCh/swfOmPOyTmCqalbPZbWTyLqyr9WLisdco0pIFGsYF8M2Ryw+cqPOeuSKnz063sKxo+PVM3Zp4QRpJqYrllfYJ0oUc6GNo0tnMRsymdpHRdwFViyb84uiC04Ti0Ooc/+MOv885fv5Zx53DeoSEVRF1UDcuD5Jc52FWeMxMyGXy+HZiDDv63Dcu1tImRBUWJfWL5Zk914F+P3eYEnERigBc8bzuvfuW5NHIVUW+jrkaotubuKS4Ce7cWa5YE16FATZ5CAyAKLJ9ubjrB/Lpd1/oIRu89L37xi3n605/OysoK4/G4MDXo/WTee9q2ZTQa8dKXvpQrrrhizod20kkn8f73v5+TTz65mCKrqmLXrl0897nP5frrr990nPLxqsr97nc/fu/3fo+9e/eSwfe7rmP79u3UdT1nQu3HROe+D7UdXKNLaCVKQp8ogzevdWWiJjl3Jg2+FoLTE3oYLGM1hqhiKQMHJIobPJsdnmtsJ5+IKk0defe7foCf+emGtV3/ypbRbkRT6ZngUz9jYq6Gj6muRSSUUHjFmGZU7XnMkA5t1L/M5AaMLI9HP717Yl2Yn2bhYMA4ZH7c5hjJZkMksoF5dSAJCklrGXY6E+QEJpy4xLo4CMlFIAe7hn3eYCzy/ijM+cc2a4Xp62Ad60DbkMHfZD9lRvxIgNgiqFpwiflBQmFYWV7RXJopExHFjlMZsBfbqhoIMeW9uSViW+Hrs/jgX+3m8nd8mX0T8A10bTDk5QgEsXy+DVMEBgxsyB3mJtZQCDnGW9KC8/vVNMdEDGk/C18qOdUlI32sb4n8M//sx9o45HdjDEpEqCtoW+XZz9jGOy5/ElX8PNom1BNpEPEJyzYgOFunOdhJ+7mQBfA8X+cQcHQhF1GHMdXzi7UP0e81ohACZ511FmedddYhP+m2bdsAqOua6XRa9p933nmcdtppc8eGEMrxi1pY7o+VxjKT5crKCueee+6G951Op0WzG14jt8MFoz500+Uccc8J3v0iLr9nepoJkB2+uTVKIUeb6QEzSunRVvteGPHN0YeqeKeMavjlV5zGT/ynJSq5mmZpHz5JWyIO1CfTeFbBKBSw9FPTwMogdD33d2EdaumLlkUPOcBjINgnjqUqdBrx6XlUwbmKSNYG5hlhP04bDOC68dQNmIkUpmPvLnOlBe1Bcj91aL3tn1czGPA8E8rf2YKsyZdY0hTyeC52fwOmXZi/9veZ0wyVAqYsKogz9Vczookk+7/THr5xYF4yU9FQGkn38ekeUVEnSFTz8UllBUQJTBG6bkTtH8o/fHTMG9/yKW7ZCc4JXZs6G2LKMs/3HkaJDh98g3fE4EHnzNRH3k93RFsSrrI1pxdysy/Zar3bP6VyDpWNJ3IvYPR/rVtw3+qWJ4saIa6dMm2Vp/3oiVz+psez0nwTbW9CpCO2ksyAZsaGNE7ZSibg5hhdQs+RZE3SVDNTXIoqH8YJDIs5p0ukxe+9T3Tb/NBZMVHV4g+rqmrOX5ZNkzHGud/yvnx+jJHpdIqqMpvN8N7jnGMymRSf26IWlhlcNolmDXEYCZpNofn+i9fJ18j9OZx2UEZX+QrnDG1kjrjr/I0yo+ujZOw/iWrBkNbV9LLTC8dMo8VJteF8zr8Z1qYWU2iSZjTgKiOGVYQQ4EUvuB/nv/wcRtWXqbpbEaaIr7BqvSDEXrVIBBzs5TsqSti+k8LoDKw9E6D1EnpOeM95f7YvmNkhRYMWNBmXAKtRq0ocUnkVUVRDKeSdXYeZJisb3HqxJxsyOi1StSRg6vSA/fgOPiKkIBzMeZ6vould5qmQaXJ0hi/qUvB85XFRCDOrcyepX0WEzffULCBIf60ML+YMmzOXg0FJxDEvNsX7ihA7Y2pq57kE7Z7vEqNPFboVfDCTmlLsxC7xpSh9RGmZwyqoq+m6DvEjulizsu1h/N3fTjj/dZ/j+hsD3rtUWodcq4V5xrQ4oQ/E5Aa/DyrXH/PMTi16uZSR0gQSEA102tY4CdxYLcBtGGm24RgNxyPbUw4y+Y/MwwzuNZSwUp6umHBt8oviIlQoj33cNt526ZN4wGnXsXvnF1ldmRKi4uoawszGSPq8z17w7MmfCe0eFQgSE95uhCBEJzjnySqdmeQTPU0XUIyJmN8tEqMJzjHaPIWeic1hlaZAj6qq5qIiM0MCisIz1MyAOUaZTZ7QM9qu6wqDy8xy6Hfz3pfzF5lcvn7+jjGya9eu0rfDSSo/KKPzlbcB0EDXZoib9RcvpsuUPFWmalZ0yAC9vcyWX49BbYlJNhsR6XQDDbY9Gi2zdXUl4V8KjRema7tg2vHMZ2znta98BCv+GrzeSlVFYqj6habgfcqyGtoVMeZtQs1gkaX+S1rBmSENNYxsPjNmFoddLqa4/MxRFYmKHwldFwmYVuLFJRNG6LUmmevJIa3zzUyXMtzWIeEYLuYcrDFICM+7B/0p2pZ6Y4gZk0QiXVAa34EIvrKDY5JSh/2yO0qqpxbnUzjUmJtzva/MDSJOix8YI5y+MmarzqEhJljKXps2k1lIGnrS+vJrL7X/YiJG8+MSQ4tIzTQs4+uz+dSnHRe+6XN85boZVSWEkNXyNLbi6AHFD7UNj5W5r/7dHMMtpa9IHt+8jCVXS7AJY4LbgulyyFdKG2p0i4LY3dX6gK8ECkgoeSoR52pqF5hOAmecscIfv+/JnHbyHezbeS2jxuaR96ChxbuKWKKltQ/cyrK2mMBlhX1rrD5gsBJgAiIV3SxQLzm6aEYDQVNF+AyXkJjogPA3TQPEVPXFl5iKXsaQcs5iknZmWsMAlKHmlY9tmmaOcQ2vOWRS2d82PGaj4MNhdGVmqEMGmZmgc46uW6xLunk7KKMzri5Mp4E2tGnarV/I86bNfjPTjVzwZWjUsZ8kH3BQ/00+bTQasXXrVqsVR2Db8oixu40f+cntXHzx93LCCd8kTHdQ1ULonJWe8Q5xIyCY9pEmb4kwzM/k6X8DI9TOsC8tH80kOwZRQUhmDDrHnSRpc5rMDiIBoUKkop3NmAWhqhwaA1IJYdZRSf9Whsv8UElnodMLe/NyyGM9f4fh28oa4YDYzMsDJq1rhWhVmJxqhFjjXaQNnZU1cp7YWeyhuIqQxytfWdV8wBhod86dFKdEdQS1sXYazPemwSCTAJynywuvA2LKkfPzOgAJ1UZkIEXn76xRJseSYBqf+TVcwtcRWt3C8urZ/Otnap7/4iu46uoZo5FjOtXkF2TumQ6fIB/o7R4u0/wWtDSlipFkSAc0E7FeAMxrphywrh1II767mmY7TdHnspXKVYpnynQSecKjl/i1dz6JB5x6K3vuuJrVZVBnFgfDrHCEWcCJzzph0XqVXpvrZaMciWlQeyFA5YUQVljy9yXENaOVRXDQDYdoNpsxmUwJwSDGzHw5oFn0DGio2YUQaNuW2Ww2FwiSmZuqMhqNGI/HhBAYj8eAaWaTySQxV+b8a6pK13VMJpN1eXTDfmz4FtL9l5aWmE6nbNu2rWh1h+OnO7iPDuPwXdsmNTT50w57/h1cKt3siHIvJwkgVdm/fz979uwlhik7ushTn3IK57/2BzjuxJtA9lCvbIdQoZUhFqhTnBckdKCKmxvYHki5JF6XHkUUj1OH08ymda6vOkC7sKRkIbpIFFekrpyiIVj9PKKwZSUSdC/TyR5iaKlqga5/3iMpx298rc33bkRec3F1Fz2q2QydKkTg6MIqfrSCd0qV/AveWakj8QOWKgMtuIz0gNGhKOke6vAlqXGGyCwZhGu8RCbj3dROqRRETMNTEjZl5tHJH1KedhDRqiiqDqcV6syTZK+5IuKZqcdVD+JzV27jZa/6OFddPaZZckynEUhScnaoHjWifIxrdAttbu6UP769noGEHmskuSZSIdqhRKuLMlNOv+8Sv3LJI3nsw3cx3fsVtm3tcKK0sxZfJfk5WtHiDGGXA+asJcHSJcYFqJsBRiumXTokeJrlh/DFLwp//uf/TpsEMVPQelasRKoUvv+BD/wxn/jEPwPmQ1aNOFclOmfrbsjohlrTbDYr2tMXv/hFgDnNbm1tjUsuuYTjjjuuMLfRaMS+ffu47rrr1jGw2267jQsvvJCqqtYFmBxKU1WapuH222/nlltuKfsOpx3cdJlsqFEHjsPFyJMj0uZRGTMSC5jfZZilUNU1TiyvLyIcf9wKP/6TT2Pn3r3c/LkxS81Wug7QKvnvTBVfahpiF5npbMA9JelvNhnMybnwfCnowecpuhBiWBikZrNZ1poUi+zMZtIawSHR0zhhMrmJpeXAWQ9Zxck+6KycUEk1OAZpgyqp+kGOWFWCNgRO4IYdDbftjIyWTiCGgIYOJ94YvjMtWMr8scWW59QwAT6DW5uL1CNamSzsAoEJvqqJKI0b89Azz2DWfh2R3VQ+O9/zlZK5CLv0cG30KRGWt6HpPVlCr4XBd3GZLdsextXfWOVVF3yCT31+N8tLI8ZTBTXItF6qnCde3/FN++8cMVh+Onwp+VvQXNIrreq6WFYllQvMZnDayfC773ksP/C4QDf+EqN6De0Cs9BRNRTBSkOCToy5jFS0gr4OE3gB1NwJFn2eojIVlpdhPHFEfzq7957Om978v/nYJ/Yz8iNmIQxSfxLtFKFtjVF+5CMf4SMf+cgRHxXvPWtra3zoQx864DG5iQi7d+/mfe973xHtxxFldCJCVZvjkkjypyxQjCPW+ooAZHNHYRZDidmcnppeqqrSqvDOX/9riLupfUflhC5oQgWzopi1rxh5TwjKRCMumajmCVR/OzNladmlpS/pWBmo3AKloGU29WWfY76GB02F2Srv0BZO3LqPSy7eTgwNImML1XFqkqMce3wuC2JanOoQnSPEJYKcxvs/cCV//Tf7qesddEGpK0ug7rJ1OI1tjNknkK7LetZgYx8QdbgURBRcFhxscEY+cvEbjuNJP/ggvFyLd3sgtCkH0fUpBxRjgJEv6aewiqLSmo6efCI2yyP4ZT5/VeSXL/xXPv7JnVSVMGk7rNSqN02+vONeO723YWOcglGyGyDTjyOFX3h0m086UsSlT+0iswinnDTibZefxZO+PxLH19BUY0RbIhHfpJC7YpYRCAFNQWrCoGSR9ChMluoimO/E1kbbCc3KA/nmDadx6aWf5O//fj+Vc7Qhr4GQ3CnJmZTomaQk3MVk66EGt5HZcAi3tVG+2jBpfJj4PbzPMAF9eK+szW3Uh83a8NhsRh36Bw8n8nJTRpedh8XmSgoCKM99pJndIDFSTAvLt+jr0dl/5qBMwQXOsWv3Grt2rx3k+h2nnLiCc8q+tY69+w/dkXmw1tQ28NPZoQ/8ksDbL3sAj3vCCejsWkSE0AZ844itaXbHYksyT9J+bF5Eb9iOO26r+fevAkwOeI3VlYrptKM7cM3fQ2oXvv5K3v++H+a8715lbfp5Vvwaoh0xOBtEdUBIfo9YZq2FdadnccbwnHHTpAUG6gb+6WOf4+/+cQ3vhRCUZqmmm3SJdLuBtn5vm2tZWFVDBMm+OiNYx3AEaWlmkncOPAEvHQTH8avw5jc8gGf89MmM9/07W5qpOYklgYnHRKBJFu0cGZn9jjoQGBM5NZg6c2vECHjPLCrIyezd+2De+ztf5w8/dCO1gy5qErCyq8QuNIRlzG6Bo6k5Z2Z2oHsMmWVGV7mzbTG45WAFwxfbgUtgilhAQbQQ1aNrkVlkdL3psjD+8i0leV3wiANfC66y8hiuqnG14DxW3bcSvK/Ysv0+bDv+JJZWtuAc1JWVT/Fpu3JQe0flhdo7au+pvKN2jspbMYTKO6pK0sfyR5aWV9m2/XgqX1PXI0QclW+ofIN3Hu8EV9s9tqwKWxt462UP58UveTShuxUvUwSolhwxdL3L5xhsqsnXmBTXjOASoqcZbcU7S0nxlY2DqwRfO5yDqnI0TcWWrcexsrpiRMTLJh/zLXjvqVxN7WoqX+N8hR/VVCPPqPF8+esdL3nxFXzxS1txo4exb7JkVQZcTgTMWK0Jr1USjXC9hbmkrMUKiRVWoV7RdsxP/MQj+IWf3UYIytKSJ3YBEV9M2L00ey+zm2sDRjcMQd80gOAYne8xYsDwQVldCrzj0u/hOf/lVLT9Ak21kxjHVk7KNWjyr0uy6Gj0mNKf5p3tJltyBSD0eKomuFe00aPuvoh/FG+85Ap+8z1fZbmpURklhmbwcmVss6F+w8CeY6PdVaZ7V89fx+jWhZw6kxK6tkuBFXB0ZmX2k7Fgulw8zHALjaMLLppTK3RKjBDUfEOxU2IwG3nsjCG2XcN0tsRkase2nZnWQtruotAGSRBPeRvaaPtiB12IhE4JQYldMPVdnd0nRBzCqG5wkn1+wXK+gtHebk15/cvP4QXPfiBh35VU4XYInYX8D4ImjskpqylQJFq4vws2/pZLhAUKRQzUtuss0isosY3ECF1nBKMLMJvZvjz+IViB3Bg1/Z0WcQgQ7SVKaHFBCdOW2Cqx9WytGj77pd286MUf56vf2M7ytgcTfENLQKqA+GSO1GSylD5vrjA6El+MDaINEr0FHoW9HL99B2+44NE87SnbmYwDlVSWtyddcTX2Prpj8q19a1oWVpP/epiDNWdOGxx/zDShBKt5gWkrjJbg5S89mZ971sn4cA2EW6m8rW9JApVIjSb9TUWIOZh7AE07h5RUvDMu0b4WlUjLdlrO4L2/cyO//4d7QR1tcARSaZ/sApNo5tB1msC9bbH1Udiy3qbrnMM7j+qB0a43b7qwfQA1t3SEgW/OvkuX1PL6zH5twQBKqqOWxaUUlelVqPFUVDhg1JgW5qtM4ZwlwoszzaNk3SfoK1FKpnIS+YfTKecG5o613YxIYGVliRNOPI6tW1dYHm1h5LeyXI2oHGyp4Rf+y314/vPPZGnp6zi/A9UZUYMRhhD7Gm53YrSPeitDl8zY6WP5kSHl/5CSzLNpY96y50XmfRjDQIXE6PPfWanXUlAXSNlMMUaCdqx1kZGr+dRVu3jpK/6F628+Bdc8mCgr5qfVFvEOL4P8Qu0JTb69U0FkhtIWrbWSAO31nH7fPVx68eN4yg9to52NEWYWwcbQx5E/34nMboO1rcXrXpZnCdEf+PkLEMWcXJs5RN5eqNN3lz8wvFv2Zw3EHryrqABxwspIOf8l9+f8lz+GSr9MJXdQS4TWGCEoIc6Kz6xYPDSUHOFsScjrIW+LeHC1lZlqVlhrl2mWz+VP/mwPb7j0k8xEqJpVQkhCH4KGwbgumPTubRu3OY1uMdO8aRoDqtXIbDYbHNlPmHl6lYNV6BkPFBNkIQRDxTDZkzci7Dp3nn1ZFCiEDDVD7C+veTmRkpQ94FGsDI0yQXVKl/MBNQ6eOS8+Mw0I0XLnyt+geASfuu2KyaBuKpzNeFyliAsE7SA6almmQRh38EM/eAJvfceT2Hb8N5jF6wm0+MqDkxLtpzmk+Fics72M0JsAU6RipIfciunYctqA03nnB8nxByNBJSSllH/NuW2QUgFcx5SO5ZHn41fcwWVvuYL9s7No4ylElhD1hEmLxuQnimLERZL8MjSv0SFuas+E5U4u+Q66r3Pm6bfyzsufyJOeOEoumYyvab2dJ5TfaU36Fdx7HEo+Zlri88s/jxuaUpZsTZEiHA1NaLCdmF3Zfxc+pn3la+Z0KemFXnVoMAtTCMoLnntfXvHi76aprkF0B8IU6aD2tfkcpUMlmC9ShIyjioC6FHUtBqyg6sraEbN5ghou6v7ZEttPeAR//he387qLP0P0Nr/GszHOdQP5v49qvLcdWuuxijeQCpqmKdEubcpCF0iTpCdU6QqmEWYKkj+L6kkBMMwXS/dNzlNJEn2xdbOgZSatM8SIge80IJUd7FzaN0LxdEDIjNBXQEAJtK0lIKv2toUY+4WmSJqQeZEm0GeqZJqo0ZRPiAOtHF0Gh6wErQUZCeOwj0m8nf3dhGf8+Fbe9euPp2m+RNt9nbqe4L2ZPysw+3oq3liQE461ll9pkKLwSjRtyGkyI5MWsFb0L37AtZ0glSuEThc+C0dT3s9A5NB8tEBVmw+5jY5mVPOnH9rFL5//Sar6bEJ3PCF6/KiBoKn/LmW85ynqBhK4MVFLFzEtshJHFccwvY6HPGgv73jr9/HocypCDHjXQzrp3BN8hzUdvOksQCTuZrJEAtcuOYfDqL4kHJS8zEIYBjfoNa3CQe/CR5KDVujXv0iGOTS8Ql9DXSnP/9mTec0rH8vWlRvRcCNVNcVXgncV2npcshs5V4H43oIx9AcLRE0Yu1mDVTF6EpUYJozbjtXjH8YHPzjjZa/5NF0bQZRAxPmu2DPqygFHLpDuO6UdML3A+4SJFkG7zJBIVZyNWxVIrxRBYfM7T8o4YGo9cZqT7lSKVC0OgiiIxzlJwQo26fIxo8ZTeUW84mOaReKyeJ46l7HaBKUDFVaWalbqhoAFOgyekhhlkD831DitL5ZHFwxHsUQxJL2ugpXVZbpuRlULq1tWaUYNaMs+N6Pt4PsevZW3vOWJ3Of4q3Gyg7rpaCdTlleWiOoSbF4KyU1wkMcin8uiusF+ZSBtA8h22lc7WEgznNv23ptWfsg3PLCW1KV52bUt3tcQaj7w5zdx5lnwyhefRxc+jwt3IFUCwE2V6DV6Mii5IhaCmZv0gVFRI95DHfcQui/xiIc/jHdc/gP8wgv+kRtuj9Te0wUjmCZSZSJkc+lYVc6PaBtEs/ZCmiNXb9Boa1yAqAGRzoLAvOBzMjWUpZdh9IZwdplh3uW8m0yLEo3KKEg5j1NVqH3LZNbx5Mdv56ILnsBJx9+EcD3Etb6Qr3qkqtFuYtab2plfnqTDLjB/UkCKQ0q0sqkLFVFG1MsP5h8/NuHNl32atTWoqpp2ZlarSILdFeiORKjyd2CbY3TDiCgRYWlpZPW3ZsEkjKStxdjRVxyALB5rjKhX+krfHlyYr1RSVgRoNDNBTPdDPJGAOmHWjtm9C0LI+JPWdu9eY8/usTEwADb3Hc6dd8s+ZH9k2gWm0/Xh741vCKqEGBGpUPXG6NURtSXGGSGul6RCB7fv2MP+/fsA5YZv7LHj1KBxHnlWw3t++3t5wP1uxXc3MXItGqDyHp3NUGfapEm0ya8lBwmH/VY1MRldXCADJEX1SQPqrMoPWDmSjGay0Lz3jEajwwgPNuPlhvqegoYEfqxKCB2uqpgF4VfeeROjZisvfckj2T/+DF5vpkm+WEIyEzuXnila+lLR6oxBWdpeRHVCVUGMd9COr+KHnnwuv/bOx/B/vOzTtBNlxddMg0NlViwA2MopjO7bIaD+TjfphTMhYbtGb8xNlBgrovoEnQUi+xlPOgtAChuJAd9aYt4F+JHHLPPb73wc97/vLmbTrzNq1pBK0BmIMyFJ4hRxBhKhVtfLxiAmkpcEYnEgEmgD4CuD2uoULzDpGlh6KFdetcT5r/44V38Tqqqhi5LcJAp4K9oq9zK5O9vmGN2QyY1Go2K6nM1mdCHDXGmKIupVcIjms5ABfmSxBWXtJ9+EEoXUJw46e5Ex4FWRbicnH+/5zz+1jRtvW6JZrdGgSIg0lUddJFJZxFOSymO6bLlfun5EIUZWloSVCroIu6arFsYbPI0/iR037eMTn/gKkBRCMYxK7xs0BhwzTj1ZedxjTqdplNDNbLKHiPcOVynoMtNZpPKOTgWNx3PCcR3PedZpnPGgWwnTa2hkSghmJsGT7PeBjKzpBgSjWHyPMdWupH9EGyNJPk4D5479MTqQaIDMoDJI6+E5zg9y7CAaOIYW72HSwdt+4yucetp9eOpTv5tuEhDdReMVCQFc0uKtAspgwNX8eI5UdVyQyqNdYNQI07iH6f4v8NSnfg+/OX4ir77wCnTaWYHiLrOzPqF+MHLYDL0HEiudf8uiSQsxNaxYhUwiisTZbr738SvsHTfUjS++eJsXMblLSGghGQS5142LpnfQtTE8qN82C6qa2TB1OCPxKAJdyxtedSZnnbWH8fRrNM1ehIAGy8s0zS0kFJPE0Eog1UCTz6ATKsVCgHbEKFRVw9p+WNpyDl+8ZguXXPIxPv8Fpaoa2ijALDG5GvPJSZqQ93j7wFFphdENs9VVrRqtxkjbzphMJkAo5sOBV7QwMTc0MZXy2Dax597NwJZj0Xo2SRygIVAJxOmtnP2QE3j3O05nEraxtKWmm3XQKk1dgQTq0YjxZEIqMofhIqbLixgTTPBlqi1NVVG5ii50RFFmskzLaQiP4bXnv59/+gSMvLlyuhiBjhgneN8x7ToufcMjePazzmAW9qNhDeciobPyF01T04UJXZhSN8t0sUK7CnG78X43Lu7ENRMkOAyd3FVfYmkAACAASURBVBG9MVQFkwoNPN8WiztGNTro310hPFJ8syXoJBG4Prinb957QgiHXU/qQG0uN0vNUuBFuWOn8oaLP8vKynn82H88B+2+QNTdOC9oCLjaimESk3s3y2ZZOpcESB1AfE0IHd5DiLvYu+ffeM7PPZ7p+JG87qJPEToMkSc/VqqRN4+bmj/3MGI1t6azdTH55NQcueKSKyFG2vFufv7nTuXnnr0N56qErA+z6ZSu62iaEeYiwCxFA9D1XJ370OS/TKyGkkyk5KJJuSq5bpuIw8mEkdvDZHITzq/hgdBFqtEytCEdF4vbJoMNFI+MSDaIm7CdNLyqssA+wTHtGtzogVx7w/FceOE/8ZGPTWiqhnFwqM4Qn4mZJjEewCdjayTe0+bQUW6F0WXk6kw06rpOdYtcKs+TC+2QNLmEEVh8dDZhlKzFJeljs/chWIFOEWI0wGWr6+UQ7QizW5FuDyPfwCTQRKFxI7rpjE5blCWqaDlWgi9BBSpKdJEQjPlV3rRN1zqEChcjwY2oRmcwnYy4+OL38Ccf/AoVZuq0p4ogHYRAVXVceNEjeM4zTkem/04dW7xE0BbnlHY2xUVP48BHRaYeiUny8x1OJzgCaEScJ4YprvJE1xGxJHyXpNfs+xLtcQ6ONY1unlbL+t/W7Z7X6IZQQEeqzRVnxIBrgwSakXDtjv380ss+yV9+8Gk86pFnsXfPv7FtyXhw7JRqqUFn0zl3cu6ymZ8s1lPUpCDvzMS8OtrF2q5/4Rd//jHcevsDeOvbv2mJ6kXYK84qdG4R3HMJVJFvyCbMFEIkStRgiT6iOJlCexONu4UumEThnaOJ0IgiXY60HAjMWVXMSDSHrM3p4NMH0fV5wi7RIS3nGCuZUssUIeLwae1OjE5p2y+D5N5VSLy5Z8xO+hgGpw0SLWagjdDJyayNH8br3/gR/tc/7mPb8hJrUwx4ntpycIsGF8iqhJWwXfQD3dsO1gqjy7hlWdJ23qfqzUrUFsjQMllSt22nJSzBpJiUM1IoxnC+DpuSpF7LX+tSzolXgRBwXlmqW4KQY8pxUlFJZ/6Sbh9ezdzn8r3EEcXyrHzlLDA553YFmyhBG1y1nenkON500Yf5/T+6EaFGxBF0hqDUtaMS2D/reO2LvosLXnUmYe0TVLqDupgsgRhosmVWBS8ecIZXSaTrAr62ZNAQFakwTVC7OZ/GRgGqdyt/07kvIwJHqQe5uOKRbqZAmuzb1DVd6JgFj2+Em+/oeO4v/i/+5APfz6PPfTjd+CoqPwZV2vEML5QIXyt+2ZuIcqyUEW0TYGIXqKvIlmYnwpd47avOpXKr/Mrbv2S11wRiTKHrxa+StJt7Yhtoc1kTNnxCkh0zUDc1aKBtOwu0mO6j1sioEnNLiCENaTDBtJfyZHhRSkXiOUbGYHuDfXO+gGS6TKZp7aQEufSlbwT1uZaeGEanhsS0B8+sfVfE9XByLiSQZnohR9VgvpQRUp2C8DBe9Zr/l7/8653UONamndGI1HXv66J/2pUt72gu6vjedshtXXpBThrfv7bGjTfeyDevv57JzBCx+7dLOrYniAK47KfLXv2N0gsGc9d8YWZKcMkMHZONHjVcvEoMENSLQ6KmaEyD/ZIUlSlSIVIjXnC+Qpwhk4gLOFWLdIop1aDaTqtn865fvYrf+6MbaRqP1J6QnE/iBS/CeBb4xWfcn1e+5AEw+zfq+lbq5YiTlqqyyedqWxjaWYg94pEYkNCChMQMLUhHiGhoEY14AR8dVfD4mMtzWE5YSbeQhXE7Wm0Q4plBrI886G6/KA+nhtThteQbkUjXTS1dJARCF6jqiq/fMOG1r7uC6755H6Q+ky6OEOeol0bk0lNmGUjVEjQV69Ukp0Uj2ASDgdMOKgTX3YTXz/OC592XF/3X+1A3RvwGC2sgzdxDGV2ZP1LMgQa8EIuOhAY0BqrKgbY0SwkbUm3ti4CoZUyKl7S+87dDnJV6Sml0h/eRwbekCEbs2zsr2ZUjvJ3D7uUM3MCLhwg+cbKy1tVydMnwcmkc7FWnmobqySkMUTtzi3ACu/c9mEsv+xJ/9j934gWiV7xXvAsWfa2RrpuYWX1AMJVI6BOm7m2H0dYljOfvyWTCnj17uOOOO5hOJiWpc0h9czE/+yMxSZJNOTO6+VN6K4L01h0RRYMmydoYn7rk3A9qUXKCBTskWKg8UTWYYxhaYpoEGmOZ2JoCXdyoQar74qtz+fV3f5Zf+62vsdSYj8awET3iGhrvGc86nvOfT+Vtb3s4J55wCxJuwtP2OTJFrrKF6OrMtDvwOp/Wl8y5ru6FUge4JL1JHIRQC30szd0ltGVbExRv0pFnRP0EyKZLu/WRY6j93LVSS1m7IAoxGCLOJz65j4su+Ud23HYirjnVhJugiHhUhRDF8iujVW8WXyMiRhgdqaZeQGK08IBOcbT4eDMnbt/Bq195Ds98+ipEGNViQMCSCW1RG++xrWgvZIFGUlyOJp+TlgrwErWY+4wmaBHueiCHkD4JTk4H+I5z3wfbZ9p+2c63FAqgt30iSjShM3aotmiYpT7k+WVzBAAJad0bYYgDVAMRSbECQhSh00ir23Gjh/G7f3AN73rvNVQOgjPO2wZzY3g8ZgPKpqwUcXx3Cb730LYu5mEjImd250GIt64/XiT7LyQFmEARcYaXlP5jKQVG8J2YwOuS9Cs54k1MQpKMiSEpaTxm2KYk7bisTSYYrRCJHSZxVUtM2MpYz+SP/vR6fvs9N1BX0MWQGFyErsURmMw6nvpjJ3Ppmx/N9q3fJLZfx2lrSdLRiF0BNJhjqIZ4T5LDivLrQCozk2RJUkN6JgOGLDJBcblnmnh3TOx1jE42ygo4Is17P8fojipkkSYNA0FjB8ka8D8+vI9f+63PccfaiUQ9kdiNTPoe1SXdQFyFqhKDIllqT8nxGTOzzwZ2wIwwu4aTTriRiy48j6c9ZYXQRhNokotF1Wcp6R7bhtYdq7xuQRrOQUzCqU9pHJoEwWxGLOv8zmhsB9XmMryhS9ubaHua1raQ02dxCVxcYsSJWXvMvxfKOrWpIEVoVYTYdQjBgCXcCjQn4ZbO4t2/tYN3/fa1NI3QKURVQhcLEzZVwVBUrKWJBwPr2D17Hh2NdpjBffOEaYiN2YzEcppiIuASKZhQG70XNQZqQVSZ2GfSNIjiUzs4mwIUb6jgmk0EsUxSibbP0UFnTHEWI607kXr1MXzor/fy+jd9if1TkDii7bZYLTiFpomE2PLjTz6Oy9/0cO5/8u34eD0u7EW8A18lYuWL/V3oF+0wbUzoQYP7CWywZOV8kZ7ZM0AaubuFt3WmSz0KiocNTFWZS7jrjj6yQ/aP5GACFxuc1IQA73nfrbzvD3YQ5VyC3ocu5Uq6yuYAqjhXEUNM73QA2ySZOHu0rlJaDRZANd3BA++3l7df/gSe9MRlOoVaHMIIwj2f0Q3pwwAEBbQnNKo5+CpVgZcFDYsNPsl8nK0cuuFBm3xKZ4qk0nd18ZPWcdHKEtMybVOSbWZoku3lHcUS4K3yt9HFNgbwjla3M4vn8pf/czf//XeuYucetdJjeVCSq8Z0QzNX9qgtw2fJc+juMPXcs9phMrr5heoGyAW1T+XYi3+OzZlculT+qbd+ZjdrLmuRX74RYWModuGh0lgWQBK2UZPIpirM/AnM3EP5m78bc9Gln+fWvcZcxrFCqCFC7TvCrON7H1HzlosfwUMfNEamV1OzD+eVyruBh1IphQ5J0l9+pMHi0uHvC4sJZxqoRWQl6U0td4jBYr9b2hxXO1os1q5ZVVXJy7RbH+l7iUXI5WmdJkP+10bFeU/XwZsvv473/p/XEtxDmOmJzEJy0ngIsUWiw0uNJe26nhCbumJSfQwoZlmofIOjpRtfz4MfuI93vv0RPP7cEa1GlmufApW+c1peF9kvNufJ0MFYDrY3/dB/m4B8FDvN4D75psViQ6FrZf1ny42CikNjJGaTpF+ijcch/mw+/P+Medn5V3LbTqVxFqwkueikCkiFpdNb4IkWZNfSOe7V5O58uxMa3WCapRDdRjKTKeEMB2Zyi1dLk1dd1oQUdYEoOeclTXQXUR9QZ6UxUsFuVBtURwgVqEcRZtR07mT86rn87f+e8PwXfJQ9ax114wmyDRVPZA0nU6YT5THn1rz3N/8DDz9rjHTX0E1uR7suBY2FJMklZ3kO/y+dcH3wSH507evoJUjElLYQsATVoQQrWIHGQxq2Q3tNi2O80Y+b7dHBXt3kmANdYd3BPaMbFk088qbLLCrNm3rMhR9QhS54RCq66LnsrV/lL/7v26hWH0rgBPZPuhTsYNHHzsJNeml7IJDhIlo71CXiqBFfVVReibOv8oiH7+c33v2DnHHKiLV2P96nXNQDd3/wHMPnydB6PdMevqI5W/NBh3SjA/p76PCY5NAa9GC9FnQIdxoKCXneD/Ek1l1zM00rcU6ZszkeLPqE+QUlB/hkYVooASY6YHJFyBGPJug7k+sFh0XjRoGqqYlSM+m2MVp9JB/95wlvvOwKdq3BLAiz6HBS4aVKJXesUn0PGK/MzxXT8GQOIejedjjtMBmdK6eUfBknrCx7ZjMtgMtDiNt1H52bvz1wivGLpPEw0OV66QlVoijRQ1eYhDMGlBhIVAg6og3H46pz+Ng/rfKaCz5FjA1eG0KrqLQoLc63QOC8hwkXveG7OO/cAP4G0J3US9a3rrV8K4sIm9fabKLHMtmz09upRaCSFsL/3965xUqWnfX9ty571+2c7j7dPR57esY9ba6Jk2BDSPKSy0McSygKechblISQxI6iJMYWGIhNMATHMCREBEEEebKEZFskEralQKSg4AQbDDFge8BY9jCe6ZlmerpnuvvcqmrvvdaXh2+ttXedPqfP6bnPUJ9UXdV1du3LunyX/3ejWAL035E+m2zdhVyis2iKQ15yp+VdmF46d0HIpB/HnicOCuqmMTWSU0fSPWfVNQUIZHRzyFf7+ykz2T+XgcPuOBcIfzGhS+1mYQb/J5UnjUlZ8TizQe1qGgs/8IEv8JGPXcObi1jOEaLBWAHbgWnBdGl9JWaXfbIimNAiIabE/w6JC2LcI4SbNM1jvPVbd/jZn/s2Hrx/Rhvi8V3jy7j1vp4ezEeZvJgC8fcJyz0MMIT/+jXRz68UyGAwg2lx9kCMKefNKWsmr5sSuNEvitv3uVlZb2UixCR3U19E+25fknzbktwWh79k8J7X/MH3w18mpndydwp9zpQaq8/uNAiF4spQV4q1Dmc9oe0wTBiNH+Szv73P+3/od/jKY4Y6RZNq0YRIbCLS2bJhTVq7UtZCvzB6rrqm50LP2aIrcIQR6tGEpgOc5nno96z4m8qrbJwBQ89CM/tdB4Kk4Pz0G08MBJMYgVhlYqbTegHGsYxTNs58C7/5WeGfv/NT3HrWsTk9TbvU4sMh7uPcEqIwcvCDP/AXeNvbRiwXX4B4A0YRKhBrMM7jq1GfL5NGwiRBoBsw+RhN71vM2mDx6WQhJAO4I1uvJiRh1w/xUOtl8C6JSQ0jyhTWTZCq6XNxVEiZxDBtUgpy/zQSzKzBQyaNp5Zcyjfdz+XwGXLggJb+SmI0MwXyPQ6k7Uu6QbNgGDBYIE+gtl6KtKFFDPzJ1cCP/+Qf8LufEybTb6LtpupH8gaxHSIdMggGKA1bs9Hg09q1Gh6O6VJnjT268CX+6l+z/PRDf5HX3+O1k/ShO06FmzJY9dPIYIyLEiGxjxAUMEkzMlkhGayZbAFJmm9T9ktcgV91aGKv1OidpPPGkgydz6O+ctsrdgeuudqPLc3E4DP0FXTK92bwftjrAD9BDl7zJK/cpcIN7s/c/srzkJWJgV81L+sSoZlba+X4gWjpxNKGCmPv58qfbPCD7/ssv/Nwi7MQxOOM0SbCSZ1QIenTmIeBisBA2KWiBXe5E9bU03MWdApVCpvjTVw1Zi9EFhIRj2LVkvNL0uf864EQKFpfYfB2RZgNeZVae1IWrhUN+4aOGCwhOqJAEzyz01/HZz8X+e53fIavXdlja+sszXKkSbzO42uDSOTMFH7yx97M3/mbp/HdV3A8gzMNhq48n7MBYguS7isZtWqJFaVOBZVNG8DqjixWWRLuQ+imMAk0Mi1v4PzcfbNGs/IyWcs2RqPBrG5YKwYfjXb+HigKYhTukNTXq9fusyUQC6xn0Ryy/Kxlc6V7KhGmkphmSSdJ6SCZ8RqLFI7uMK4CtO3TYrF4kYNRhL7MU6ISyRCJNDRxl0DHcqG5WY88JvzTd/0+n/5ch3UXid0UE4S2icS6okuh8FLZFNFLYktayT77iK2BykLtLdIFjOzRLb7C29/m+JkPvYULGxq96a3B4TEGvMuC2WvQDJIq6eS1oNpfgfRNJEpHaehJz8xdSFU6sgVSlBODRFeUSmdBE8Ky5ZYW4FBxKeeVMqLRBIx4YnDkDNqhv21VCOT/95+jiYf8nRV+cOhreMxzeg3SB8rr4P/Tyw7Ke6XoMBPBpnxXRIdOIzPzKhBiAIlC2zncxjfwtWv38c++5/f41P9rqCoIUYtytJ0QRIt4qU6ffXKhfFeW8cEl/EJtkT+FdAJBZ478bwQm0wlihGCFaJM2CirgjE1meOrxhnL6Pnw2MUQxaOFSLYNloofoVoRh3lQmGmxwuOgh2B5ysxUtU0azb+b/fNryfe/7FE881XDqTMVe29LJkk5SNFOKqHr/93877/zHb8LLV5HuFtZE7Z4dBlpcHGx2A0HUao0Gohm+p4p06b08V5KMsbQt0ZfBYmJ6Xln9TLLAsv/PFGgpa6U508Zgxek4mz6Ap795ktau5yzpA6VLwlAoSBlj0jUkT3dmZthyDsVnU8pHtp+ypp6skbJk0sdcZq58/1LmlZXbWXXyi+aA86U/7viRf/dZnrhyHvwb6ZiCd4RW80I6UUamEh9wNqEX2oHDBAdBw2CcsYyqCi9QuW265cP83e84w3/80J/n3lPpPFZzULvIwMzrV7thEKUpNsHhDhuydmWLkIPemiLnZQoYHBI9xSeQBFoedVuGP0c46xcW3Y1aeSiF9kjq6GATcy7m1bDRbu9w6N/T5/z3InwGihyUtXvUb+Wo3971d8O/Hfy7MpyYlDnKaCQ7K+apNxBVKZQcdesd0da40UWuXn+A733/7/O/PnUDV4FxPqkPQ1hd0j5c+91eCrpjPzqlbFrFfoeU7y2TyZRmb463RvvExRSwkeEsFFtOLLBogsOTFehL8vdZFR1caqjekYWHWhLOGzosuNfzpUc3eNf3fZ7P/2HHaOIQ63Cjjp1mF3Ed3hnapfD+d7+Zd77jDezv/wE23GDkx5BKnRmjUTEKu6TAE7E9bCkcGIsDIyZp0yQY8MTl+QYj0o/76lgNv4ukUG0rtDYFP1v1Y4IKsgyj9nXYUgFbUGvP9LMjkiNBBS2S7Yr2m4UuiJZHoit+qzx3ufhsZnd6tQASNIfJmBVr7kXNo7sbErVyfu03Ah/44Bd56Cf+DPec6bDyJN1yST1SodJ2Ae9VQBvRRrOqHKSxMS2GQOw6rHea4sIS74Vl+3m+8++9hau7b+XffvDz7C2s+mqigdBhbICoXTmECi355ArM52Ok6mqsjDDiMVbHMQ6EFdGTa+5ZEUpzYFKX63SYJIikdHmPWrJK1a+Q6ikKFk9ueauQdwdmCaZJgsumrSqKFnA3a/yVSdkfnZVLkoDCpnok0WDMBGO8lo+rHDghth2dfz37zYO8592f5xO/cpXxuKINkRBC2oMH1/srZP3/KaBjBZ0ZaiGDeRGEynpGk5rm2QWOU9hhGLZVTKcUczc2+ZSGjgpJ1oL6DpLIS9GKw4v14eK9nyGCDRjn2V8YxpMHeeKJ1/E97/1NvvjlJaOxoYuWKoyJYUyMC6wJzJeR9373g7znX14iLL9I7a5iTYs12vspmoAULTYJK9Rqy4ElB2GFw0irOCgjEHtSFjA8Tgb/Tz4Zoz42iWo5m6wNi1FIywjR2DJfJvX6u60b2sAKyPhWX44tASrGJEaoVqteKSK48vvsI402a8dJpKb3PFQYqFJqQdse3T/w5SJjKiRqLuVHP3GN8Ux46EN/mWnV4vwV2m5JXVfamT4oPIxotQ9l8pKUjhS15wzSLvGMiLHF24ZqvMOy/UP+yd9/K/PdHX7kJ77KIgknaxxGtA2WJGQDkvWQVEU1iCLWBAwBIRQYWReolqQyZqCslDnVPLC0gVRIiS/wsooplz6riI1ErNHnCySrR9QNYdNx2kQ0zXJ69lc7FV07zYGkxPCsqWo7phacID5CZWij4GYXMOYv8e5/8Vv8t195ktnYM48dxlhiKDuBwa5Y00tIxwq6AQBFwkPKH+ppjfWeWzvz1ILDYJ3V+o7pNxmdEgRMjh4bXiFHNvVRRbLC641CNWWTalkcheoMi+Cpp9/Ak1ffwPe97zf4tV9fYiqLeIsLwqTeoFtGpBFCG3nnP3iQH/7hNyPdF3DmKbzpMM4QCVpazKa7tQl+y4aliC5y1II6VnCZ3iY73po7KOB66yt/p+OYrCs70DSL7eS0UkyGoUDHWw6pjJfnJIVjG7GqrdNr/fo7U56hRCXExOKSf44hFCSZOZhkOfTrxTl3Ww7dK8aiQ72RbRRcBR/+6HU2Nh7mgz/6ZoQWxzViCDgDHke37PCVJ2qJGzSIIK8TtZDEWSREqtojBGJYEpZPMq4d7/iub2J3P/BTP/so+xJx3tJ2ovVcJcP9cQXhECCalmg6tbJsHwqvE2aS1SGQg5sSRKoOO8g5OXpM2lOoQhRSA5gh9B2MVuAnPaEYp0qBtAlP0ZEDSqT0q92my8MpKclc+YwFPDna01aGLi6hEnY6MP5eJvU38q//1ef4xY89jveGJinJoYloT7lDUkvWMu8loxNAl7ACXyqnBwIbm5u0irhgxBGDx1YeE7zCIUXvSxZIOVeqmlK2RnIWK4ddvaw4DSLJgQ6YZCHBsqsI5iJPXf96fvRDn+YTv7KP9VBVQmgDs8kMZwVjlnTLBd/5t6d8//u+DmcextbXVDiHiEnJvMZ5+urooXgwSw68qLVyGKA4JDGphJ/hLrZ+VrVj+nEWOtIzKST5BKS/r3Q/PnoEi5WIy+kDqYLDwDDsJS/aKUKyj0kcJeorC+ksoW2uYKOh1TEFuGjkaRwEGQwmLlvlaRCstbf56F4pJKLNWkMwgKWuLT/7Xx/j/D338v3f+xZofw/pnqGyAl3Aj0caEGUNYlILqwgiDoNDRHskWm9oGg368K6mdhDZxlVf5V3vucQT13b58C9ew3kIwaZQhIjmg6ovNWTx41ReRbRxr/pnKYEWxrboTkrC0gg4XUPWCKWnm1EFTlJOKOgURbKlnd0Nei/ZYjNJkYlUGOPB5GhUQVunpSapr2ZBl8bTkDYwDrEWEyuN1kTTTKJErHPsNoE4fgNivoWf+/lH+OgvPaLtfKwjNgFw+GqU2pylCwzRlbWQe8noBNBlPx+uBCNYIoHJdELTzAGI0dCKMG8CVecGrU8gdxHvea2CH1nUiSVtogRjFutRtX6D5sVYY9WngdcgkfpBmu4beO8P/m8+9ss3sc5ipKJbBkLosBOHkYZnnnmGt//1Mzz00N9g89SXCd3TxOUSN5oiMWhuXRLKQo3mOMTM7RHRbgMmCZwcRCElvn91cyuWLyn60hzr0xuOsiRhp32v0l/TOOhp0pgMvxNDTAU42zbl8OX76823/hrpqt0yEhroWg8xtQRxAekMNrqy6bMCYkRBM7Em+aVS5J81dB1JucljIAkAUGWmqlaTxV9ZZFIAkjKhECzOOz7w738bb/8cP/C938ay+y2We09TOZvmxhLEFOaXew1rfI+liwHrDBgd2yakoIYQsPYWjsf4oX/z7ezsfIb//vGbGs1p0SLTZBiTouiIaCBUF0i+U4uR0BdNyAIMIZeYiyaFQUUwyZknJtIGsK3WWIRUjzOlGGhicu9CyGspBEPXWtom+Se91YgV0XJWqj+9qsUcQL/HyM4D3TdWBBOtttkKEXyNsW9gNvo2/ssv/DHvfu+XGU0MtrKETnkJAqFre4h5Bb7s19uaXnw6XtAZQHIio9FGhUQqX1PXNTdvXgfAVZ5TZ+5lZB7Eh7lCIwKpsjI4n/h5spjy5tKroFZeglSco9d+tGoAzmqbgEVQf4Sfcf3aWT740Bf55K/exHmwzhBbj8QRhn2csyx2F3zH3/qz/PR/fhsPvOk6oZkxim+CWCkkapdgtNeThlBqB3MNLR4sRjEK21mrJmyWIcZQEqRyGFuM6VgzqFx7JxYg/fkkErsWOx6j0iOdY/g5ny9ZWQpN1VCdZy6noXoknbXsMMomM5Sk/o1T9+K3Rni/CVaTo/GSAhOzdZt+l2PoI1rp1gBdBFOB3WBivpHZaBvLFZwRuuSftcaChel0tpJasKIsvMxkmKYqKLeIVgidwZgKS+CHfuxh7r3nFN/1j74Ff/o62tHe0ZeqH0C+gM6lpSZX/5a05tME53wUu8HWuTP8zH/6h4zHv87HfukL6gMrUaG6/oxFO3sA42qLU6e/HitzkBsaFjm0nofnNyYJr0CJ/k3H1WJg+iCTmc6FMwpfYkJBElTHS/ePMJucY7R1HyM2QPahFl0HER2DHLA0vJcVxv5yf3fwvu7wXa7AXniQKveECmykshGaEeP6m/nIRx7np/7D56msoWuFENpk1Rs0bSDfToKKjZQ9uUYuXzo63kdX1kHKsYlaDmvr7Bms65jv7wDw9NV9fvWT1zgzm9EEZbDGGJybYowhdIGu61IwygD8y0nL2aaynhjU9+ErS+gafKUMIHRgZILEino04+Of/AI//+HL+CotGYnEuMCYEXU1IXSG2azibW//K3zpj7b5v5/5ClunHXQeIxUiNRiLpcUiahVFSzSa2kDJVbJ4qwwhBg0S1vqXli50ittbp1p5gvNEtDJ5UdKJXwAAEXBJREFU2T7HCrocdCAI41Q9IWjvvSRQY4xIlJVTSdbCjUdYsj/f4+ZOGl3T58wVLVKylgqf/d0WrKNbOJwJQEXM1eWpklsuFgvbZisthWMTBCMV0RsCN3j4yzvqiRCtUGMMRAnkxGYpCdC8KM1XnysZkvDFYqPmOAmS/M7CB370M0S+lQfu36BZ7msHBhFCiBhbURJ6SzFzry+VUisKnVZUsTgb6bhCPfW85a1v5pf/xxfY24sJxdDISd12CikH4It/1PDxX93GiSeGCZNRRde1CTpO8xtzBxEQ05VUFMSTTGxChHq8y+98cReARnLVGJPWe1JqJNKm9fPwl/f5n5+c0+5ZjIzAxZJOA57VyOqMBGSG/vJ/B6z8/ejvskKoyqukKFYAK5UWEKBjPN7ksccf54M//mkefxrNlesUXcmYl2CIxU8dsolIEZzHlYRb0wtGJ1MqDhxlLFy4/17q8YjLX7tM1whjZ9mYOO473/HMHizapFQONM4YRI2fQ3j+0OiRCCQDqSQpR92gColaQhfZmevNtVGK0ReSAjauNzm7dRbpdlm2+0g3x2Yjk3ROMcPMsF7pptfvSiWMvDWy5LAanh0lNdRIBl/RDXsDqiTVHiPqVsc7kXekPmmrR+VDcoqBTfcZo+XGbiRIBaY9gI7kDCkBOsZTy8iDl1ieIdj+Kjn+JD9DeQ5TjE99twq2LRbC/hKqSgMquhDV5WgtFy5cYHd3lxs3bvTP8IoJSDG4FHWY2BO5vqExUDtdW+ORIYbUJNhqq8RsWNss2NNn6Hma5PkhGYQClbWalxkNjcC8CYSAlvwZMFftlac+0fEIZpMKiR3WqiIZ06I7aKdAr6SawTxGdJ0679ibGxZNtvgSSkFNibB1UZUZa5iNYFoBqWhDSHvNHHLtl9t2ez72nND713WNG2Ka0BwHFgJU3jFfBnb2wXqdVyQVXSCL+6iizAxOnhZFjltY00tDJwhGScHEg7w27x2nT9/Dk09epW0sFss8dNhFILh7uXbzKsusChYNaeUUh18poYLpcATY2HC0y8Cy7b/XXlfga+g6KbmrEn3qeNEplGmhM5Znb837i6wI7dvv5mjJ3z/HxszRLILWwTxmrd5JuN2JLFDXltGoYm93SXfEwMng+JVUgiy1jQwYb46U07taLCOL/f4+jxM5eb/m6+Yw85yAcu7MFt4Je/tzjNN2SZFYAlEOVkR5ZQg50JHpEDzgkKx9o8JikdCm3aV+6Qbo9XOnSGVUWEZytRLoVbFMnaLiAoslLJbD9IzhbN7F/RjU0gSc15SBZLOk86SZDvp/aysWi5a9eShzXnj2a5h0Txz1lLn5s0/lcQK92twNxidpjkNIGLnDedf0YtAxgu7wLTSbbmKpaRcR8DjviV3H6fPn8dMzdPI0xqpAjKLte4Y5abdxfxHNYxPBmKjdmNNho9Ep2nYfY1qcc8RUuLWuPU3T4nyNtYG204UWY4cxMBppGHTbtFhjwFQKo7mkWhvtQmBSfziFKUNi2sNcpg5DxDjVYL33VKNNurCXCv8qtKfFZgGbO1JrPzNiTBtgGJF2u245hFAkJfu6akJVT8DeQGJHHyjQAzT5m4ikXEWfsMccXHBgFk1MIewW7zyBBhM1Xyt7h9RM8UCG3aQk0OYK64YWsckiSy7K3d19tk6dx5sRN/afKdZvVWkJsJeiD91zJbnTJwGoFMqUoN3HsWBcGtuU8lJmJv0oIRm9eeAzlKAweMqFQ6xmbSQ/aA++6bvamk73hUCJCiYWaLJfSX3eVw/Jra4Z5z0hBJw1xC4Ltpxu0EfUZjAydJpaY7TbcdFytNGoAxNec4y7D/62AwGmO80gOOeJncGIxzlo4j4lUrWc5fbWTDmDeG3LvbR0jKBLeklW31Oy8GR8CsTQdo2yR6NMdrxxiuu3dpDUZLJtdPtZfGKygmLVtt+aJjF2XPLbaBiZxMB4MsO6MSHOtVxSh3JUgaYVRDxdW9gzOTBgNKrxHpwTonRE0VJZIEjIzESTc0WyqdlRkl4lO6DzkWi5MUDEUldj7KyialuWiwUChNARuw5CLrDV6rOYARZ4LOmYGGOJEumC+g1DCiaQwkRNOeWKZyQn1pNgQYbRmqv6hcGnzsZa/9JT9XdR2khQhFUWmT3kksqZpQjViGXZNdzYfpZzZ+6hnpzn+o2n6YLgXBZ0ocCVrxzYMlNWPGL/MX1tbYWEKikOIeUdGjoJ5aAsLGT445wiQgogIvnvXEUX23QtD1QpJSGkXEiL1j5McGO2Hk0ac1EFE1HlJ6/SmG1rId2L2vkrShQx1WU0hJjay5R7TsKzjIYhs4iYILeEjye/gk+PlVfWawG81O/6MetFk5T1YYgxICngLobD1nFflabA0OlfGd6foeyxNb14dIKoSw2nj4n5e++YbUzY2b1J1y2wDtp2n+l0k8l4zNWnnlLLqThbcyJq3q0qaAr7XZlkg/NOW58QmU7GSOzo2ib9PUNKEclO9yKKcu4P1PUYZz3WexZtioqzobd0CtiWKEcU5tsrgtNQNDTpF/jO7g4xRKbTKRvnzhJjoAuBECIhdLRNQ9u1hLYrp+3rOuYqJxm6669lSs6S/n80qhEiIgFnNaItxhxgku95CLAE+vGljG1ksP3L84WCu6oeH8tW7hlFHFxHj5TBNdQxkYdJNMq1m/Psreuc2tpk69xZbjx7k7quSiDKK0u4DSkzelYVEwGRkJSGUHIYc87jimC7TU/P87MKRRbnZkwWVJ4YiWmuBjZduZcUyXsIg+7vYjhXg3kq/+p8xtgNfmvo5zmWY/tfDRXJ2Au1mAX36i9Wn/3g51fTd/0YDMcOKOvYGkOkOWJNxwPveTSHtq/chRK8pudDJ4i6HAqAjtlsRl17rl+/Soyt1oUEJpMRiOBsKlMlGaZKXZhTM64Yh5tiOMtpIYkQJeCcYzKpuXnzJocb+gOIoC+/gjGGuq4ZT2Y0TUPTtOmQUBhzFjLGDM+bGJbk8/UCOQdhYIQYAvt7uyAwnoy0qsWioW0bqspT1yOm04k+edcSuo4QAm3b0nUtbdtvliFpLUH9PqYAjrr2tK1Gqhqnyda3b6qDG/YQZn37f/vjkq4RMmM0lHJUwyiGPF4r1185qdClHLlFO2d5fcH58+c5e/YsVeXpuo4QVutcvvKsusNJYgRU2ZLCmzQp3Ayqvxzx64FISpQVBNKXJqwofIfDgAeESYrQ6q38BFGmaUsJfav3IXmNDa9yHJx8MDIw3UPs/1YyXV5zXHsg/FfGTikmi/7op76db73WRujVQieqjDJkRqdPn6ZtG/b29vJfMUYtvRgjFy5cYLFYsLu7y3w+Zz6fl1DyOzG1zPTysdPpFO89y+XyJDdYFpC1ltFohPee7e3tlKBsVhKV+9voLZXyvsK0DjB1oeTKGaO+p6qqCCHw7LPPEkPAYPBVRT0aUVeOqqqYTqfqX4yRtm1p2479/T1CCMQYi5WWNxP0526aRtMzDgi5rDg8XyupWMVD52n2La2Mx2Fa++GUk8W3t7c5ffo0VVWzv79f7vPVIuCOpWOFnNJBYG8YdiyyahPe1bVhRRkhw+wrc7bioYXndrVjKEmAO6bQvFppOFYvxtit6aWgE5YAU6qqio2NDW7evEnbtnjvi3B6+umn2dnZSYyt4vWvfz3b29s88cQTDDscH0UHheF0OqVpmmPzrQokOAh8mEwmGGNKXcV83Zyblul2gXc4CQxgfN3U1rkSZLG3t0fsAtY7JEaFLpuGPbJA9NR1TV2PGI1qZrMpGxuzMnZt2zKfz2mahhC0A/d4PMYYw+7u7qGCIQu4Yasbc5CBnkCglG7jhx538Jp3PBXQC2DnHIvFAmMMs9mM2WzGaDRiuVxirdWcwNeAsHtuj3D7XD7f6x+9v164ax19D3daQ68deq0/32uZ7krQzWYzrLVsb28DrFS5EBH29/fZ39/HWstsNmO5XBJCuGsN3nvPxsYGN27cOFFicT63tZbpdEpVVXRdd5s1+HySlI1zSAgaemkN4/GY8VgTu0sSdBj4rJJAFIGm6bTmIfvpPvX3VeUZjUaMRiNms1nJi2qaFmstk8mEuq4T7NlDTNlvOnz2/Pkl7fF2BKmVqmOdizlna//KlSssFovblI41rWlNa3qx6ESCLjPPra0t9vb22NvbK8wLemabj9vc3AQo8OZJhVwWiOPxGO/9wCI7moaWi3OuCIyu60pLmMxUn5fm3AVF8oxWy+jalv3dPaq6hniI9XTItXrhBPv78/TdDi5Zh3VdMx5PmE6nWGupqooLFy7QdR3z+Zz9/X3atmW5XL6iKosM6eB9jUYjYoxcuXKFCxcu8OCDD3LlypWiLK1pTWta04tNJ/bRZQvm+vXrhaFnv9NBq2Jra4vlcnkk7HYYDY+bzWaFuZ/0/kAtugz5NU1ThOALZjkMXB7NsuHq1auaDG3skf6n4f+Hx5SizKJh910XmM8X3Lq1zWQy4YEHHuDatWt0XcepU6fY2NjgzJkz5MLIy+WSxWJRhF8W6rcHuby8/rCNjQ1EhLZtefTRR7l48SIXL17kiSeeWKmSsqY1rWlNLxadGLrc2trCGJOiICkMd0jZyptOp2xvb99V8EE+xnvP6173Oq5evZpqPdoTWy/ZDxRjPJSJPl+mb629TWiFEFLEIivfH/X/g99pEjLl2buuK3DmfD4vZbO894zHY+q6ZjKZMB6PmU6nbG1tISI0TcNyuWR/f5/5fH4iC/aw8TgIfT6X8RqewzlXLFAR4fHHH+fSpUs88MADtG3L7u7uCxZYs6Y1rWlNh9GJocvpdMre3l6xHIaJv1kYhRCKRTWEpu4UGHEw2nI2mxFCOLE1N6TsM2ua5jYL54WybI6y1p7rNTTdIn/WMfCpckXbtmVsu65jd3e3HJut1+zHy8Lv7NmziAjz+ZzFYsFisSjjcVQJroNW50mViyz4jxLu3nu89+zs7CAixXf62GOPceHCBe6///4CYx4UsGsf3prWtKYXik4k6DY3NxmPx1y+fBnoLbehkMqM6uzZsyyXS3Z2dlbOcZQAOCgET58+zWKxKILupIJjNBoxmUxwzhU47yTXPyllqwMGSfQ54brAkM/vGkNhn6Mwh9c9eGwO/sn3530f3DKdTjl16hRnz54tPsumaYqPNf8fbh+b4dzeiY575pzmkedi+H758mXuu+8+3vjGN/L4448XxSivo7WQW9Oa1vRC0Ykqo5w7d67ATJkROec4d+4cIYQCl1VVxfnz53nyySdXIgCPy5/LVFUVs9mMZ599lq7r7spC0kT2mhBCCYJ5IXueZaaeA0eMMSwWixVmfzf3e9Sx3ntOnTrFlStXDoWHj6IYY0qQb9jZ2cFai3NOa3OmlIvZbMa5c+c4f/48IQQWiwVt2xbFYrlcrlh2B6M7TwLLDmky0cT5HP2az5U7jT/55JN477l48SKXL1/m5s2ba+hyTWta0wtOxwq66XTKdDrl6aefJsZY4KrJZMI999xTGNONGzdwztG2Lbdu3VoJuDiOMlPN0ZoZojvp73M6grWW+Xx+19GeJ6F8rhwo0rYt165d49atW7cdczfnO0h1XZcctCHdaSyGAmloXeYglfl8Xiymuq6ZzWbF3zebzYqfb7lcsre3x2KxKBb5nSDMo6DLTNPplOVyWSzTDIsOfa9f+9rXuHTpEpcuXeKRRx5he3t7UEXnlRlZuqY1renVRccKuq2tLZqm4ebNmyvM9syZMywWC5566ik2NzfZ3NxkY2OD69evr/iC7sba2dzcZLlc3jVsOZlMmEwmWGvZ29s7UVrC3VJmzNmiyxVRYNVfebfC9eBvq6paiaLMdFTQSBY0h/39MEGUrb78TDmNYTabFbjzzJkzJa2haZoSFLNcLlfmdgjdOudu6x6eA2qyYMtCLl8739ujjz7KpUuXuHjxIleuXOGZZ57BOfeyR4yuaU1rem3Q/wf+vzPo6NDA0gAAAABJRU5ErkJggg==;" vertex="1" parent="1">
          <mxGeometry x="203.84" y="250" width="284.33" height="110" as="geometry" />
        </mxCell>
      </root>
    </mxGraphModel>
  </diagram>
</mxfile>
